<svg xmlns="http://www.w3.org/2000/svg" xmlns:xlink="http://www.w3.org/1999/xlink" width="70" zoomAndPan="magnify" viewBox="0 0 52.5 52.499999" height="70" preserveAspectRatio="xMidYMid meet" version="1.0"><defs><clipPath id="f23253590e"><path d="M 0 0 L 52.003906 0 L 52.003906 52.003906 L 0 52.003906 Z M 0 0 " clip-rule="nonzero"/></clipPath><clipPath id="fbe7f836b3"><path d="M 6.492188 29 L 14 29 L 14 50 L 6.492188 50 Z M 6.492188 29 " clip-rule="nonzero"/></clipPath><clipPath id="6cc7a75709"><path d="M 25 16.359375 L 34 16.359375 L 34 25 L 25 25 Z M 25 16.359375 " clip-rule="nonzero"/></clipPath><clipPath id="65e97313d8"><path d="M 8 10 L 18 10 L 18 17.984375 L 8 17.984375 Z M 8 10 " clip-rule="nonzero"/></clipPath><clipPath id="46e8d0da6e"><path d="M 24 1.640625 L 27 1.640625 L 27 14 L 24 14 Z M 24 1.640625 " clip-rule="nonzero"/></clipPath><clipPath id="244050ef4a"><path d="M 34 10 L 45.824219 10 L 45.824219 17.984375 L 34 17.984375 Z M 34 10 " clip-rule="nonzero"/></clipPath></defs><g clip-path="url(#f23253590e)"><path fill="#ffffff" d="M 0 0 L 52.003906 0 L 52.003906 52.003906 L 0 52.003906 Z M 0 0 " fill-opacity="1" fill-rule="nonzero"/><path fill="#ffffff" d="M 0 0 L 52.003906 0 L 52.003906 52.003906 L 0 52.003906 Z M 0 0 " fill-opacity="1" fill-rule="nonzero"/></g><path fill="#6e6e95" d="M 15.671875 34.363281 C 15.25 34.351562 14.90625 34.691406 14.90625 35.113281 C 14.90625 35.535156 15.25 35.875 15.671875 35.863281 L 34.8125 35.863281 C 35.234375 35.875 35.582031 35.535156 35.582031 35.113281 C 35.582031 34.691406 35.234375 34.351562 34.8125 34.363281 Z M 15.671875 34.363281 " fill-opacity="1" fill-rule="nonzero"/><path fill="#6e6e95" d="M 43.117188 29.113281 C 43.527344 29.117188 43.855469 29.457031 43.855469 29.867188 L 43.855469 36.894531 C 43.855469 37.890625 43.828125 38.804688 43.476562 39.652344 C 43.132812 40.496094 42.40625 41.199219 41.335938 41.601562 L 41.21875 41.648438 L 41.21875 46.578125 C 42.269531 46.792969 43.199219 47.4375 43.746094 48.386719 C 43.953125 48.746094 43.832031 49.207031 43.472656 49.414062 C 43.113281 49.621094 42.652344 49.5 42.445312 49.140625 C 42.039062 48.429688 41.285156 47.992188 40.464844 47.992188 C 39.648438 47.992188 38.894531 48.429688 38.484375 49.140625 C 38.28125 49.511719 37.8125 49.640625 37.449219 49.429688 C 37.085938 49.21875 36.964844 48.75 37.183594 48.386719 C 37.734375 47.4375 38.664062 46.792969 39.714844 46.578125 L 39.714844 42.214844 L 37.886719 42.90625 C 37.496094 43.078125 37.035156 42.886719 36.886719 42.488281 C 36.730469 42.085938 36.949219 41.636719 37.355469 41.503906 L 40.804688 40.203125 C 41.59375 39.90625 41.886719 39.578125 42.089844 39.082031 C 42.296875 38.582031 42.355469 37.84375 42.355469 36.894531 L 42.355469 29.867188 C 42.347656 29.445312 42.695312 29.105469 43.117188 29.113281 Z M 43.117188 29.113281 " fill-opacity="1" fill-rule="nonzero"/><g clip-path="url(#fbe7f836b3)"><path fill="#6e6e95" d="M 7.441406 29.113281 C 7.03125 29.117188 6.699219 29.457031 6.703125 29.867188 L 6.703125 36.894531 C 6.703125 37.890625 6.730469 38.804688 7.078125 39.652344 C 7.429688 40.496094 8.152344 41.199219 9.222656 41.601562 L 9.339844 41.648438 L 9.339844 46.578125 C 8.289062 46.792969 7.359375 47.4375 6.8125 48.386719 C 6.605469 48.746094 6.726562 49.207031 7.085938 49.414062 C 7.445312 49.621094 7.902344 49.5 8.109375 49.140625 C 8.519531 48.429688 9.273438 47.992188 10.09375 47.992188 C 10.914062 47.992188 11.664062 48.429688 12.074219 49.140625 C 12.277344 49.511719 12.742188 49.640625 13.109375 49.429688 C 13.472656 49.21875 13.59375 48.75 13.375 48.386719 C 12.824219 47.4375 11.894531 46.792969 10.84375 46.578125 L 10.84375 42.214844 L 12.671875 42.90625 C 13.0625 43.078125 13.519531 42.886719 13.671875 42.488281 C 13.824219 42.085938 13.609375 41.636719 13.199219 41.503906 L 9.75 40.203125 C 8.964844 39.90625 8.671875 39.578125 8.46875 39.082031 C 8.261719 38.582031 8.203125 37.84375 8.203125 36.894531 L 8.203125 29.867188 C 8.207031 29.445312 7.863281 29.105469 7.441406 29.113281 Z M 7.441406 29.113281 " fill-opacity="1" fill-rule="nonzero"/></g><path fill="#6e6e95" d="M 41.648438 28.21875 L 41.648438 37.695312 C 41.648438 38.398438 41.214844 39.027344 40.546875 39.289062 L 35.929688 41.078125 L 34.75 48.039062 C 34.441406 50.378906 30.859375 49.792969 31.339844 47.480469 L 32.679688 39.566406 C 32.78125 38.976562 33.183594 38.480469 33.746094 38.261719 L 36.503906 37.191406 L 36.503906 31.5625 L 35.433594 32.949219 C 35.160156 33.222656 34.785156 33.371094 34.394531 33.371094 L 30.605469 33.371094 C 28.636719 33.371094 28.636719 30.457031 30.605469 30.457031 L 33.792969 30.457031 L 36.71875 27.265625 C 37.171875 26.769531 37.660156 26.378906 38.238281 26.378906 L 39.914062 26.378906 C 41.046875 26.378906 41.648438 27.414062 41.648438 28.21875 Z M 41.648438 28.21875 " fill-opacity="1" fill-rule="nonzero"/><path fill="#6e6e95" d="M 18.214844 26.183594 C 17.871094 26.183594 17.597656 26.316406 17.410156 26.507812 L 15.796875 28.132812 L 17.097656 29.550781 L 19.875 29.550781 C 20.597656 29.550781 21.257812 29.847656 21.675781 30.308594 C 22.089844 30.769531 22.277344 31.34375 22.277344 31.910156 C 22.277344 32.449219 22.105469 32.996094 21.734375 33.445312 L 24.257812 33.445312 L 24.292969 29.898438 L 25.914062 31.144531 C 26.355469 31.484375 27.007812 31.503906 27.382812 31.089844 L 29.777344 28.453125 C 29.839844 28.398438 29.921875 28.363281 30.003906 28.367188 L 31.304688 28.367188 C 31.730469 28.367188 32.011719 28.257812 32.183594 28.125 C 32.355469 27.988281 32.425781 27.832031 32.429688 27.65625 C 32.433594 27.300781 32.109375 26.816406 31.269531 26.632812 L 29.570312 26.214844 C 29.289062 26.214844 29.019531 26.320312 28.816406 26.507812 L 26.78125 28.621094 C 26.660156 28.730469 26.476562 28.738281 26.347656 28.636719 L 23.613281 26.507812 C 23.371094 26.316406 23.121094 26.183594 22.769531 26.183594 Z M 18.214844 26.183594 " fill-opacity="1" fill-rule="nonzero"/><path fill="#6e6e95" d="M 17.347656 36.722656 L 19.910156 40.355469 L 19.910156 44.980469 C 19.910156 47.054688 23.210938 47.054688 23.210938 44.980469 L 23.210938 40.207031 L 22.144531 38.390625 C 21.972656 38.011719 22.265625 37.878906 22.496094 38.1875 L 23.824219 39.949219 C 23.855469 40 23.871094 40.054688 23.871094 40.117188 L 23.871094 44.980469 C 23.871094 47.054688 27.144531 47.054688 27.144531 44.980469 L 27.144531 39.777344 C 27.144531 39.402344 27.015625 39.035156 26.78125 38.738281 L 25.375 36.71875 L 17.347656 36.71875 Z M 17.347656 36.722656 " fill-opacity="1" fill-rule="nonzero"/><path fill="#6e6e95" d="M 23.527344 22.984375 C 22.828125 24.578125 20.957031 25.3125 19.339844 24.625 C 17.726562 23.9375 16.984375 22.085938 17.679688 20.496094 C 18.378906 18.902344 20.25 18.171875 21.863281 18.855469 C 23.480469 19.546875 24.222656 21.394531 23.527344 22.984375 Z M 23.527344 22.984375 " fill-opacity="1" fill-rule="evenodd"/><path fill="#6e6e95" d="M 8.835938 28.21875 L 8.835938 37.695312 C 8.835938 38.398438 9.269531 39.027344 9.933594 39.289062 L 14.554688 41.078125 L 15.734375 48.039062 C 16.039062 50.378906 19.625 49.792969 19.144531 47.480469 L 17.804688 39.566406 C 17.703125 38.976562 17.296875 38.480469 16.734375 38.261719 L 13.980469 37.191406 L 13.980469 31.5625 L 15.046875 32.949219 C 15.324219 33.222656 15.699219 33.371094 16.085938 33.371094 L 19.878906 33.371094 C 21.847656 33.371094 21.847656 30.457031 19.878906 30.457031 L 16.691406 30.457031 L 13.765625 27.265625 C 13.308594 26.769531 12.824219 26.378906 12.246094 26.378906 L 10.566406 26.378906 C 9.4375 26.378906 8.835938 27.414062 8.835938 28.21875 Z M 8.835938 28.21875 " fill-opacity="1" fill-rule="nonzero"/><path fill="#6e6e95" d="M 8.285156 23.367188 C 9.03125 25.070312 11.03125 25.851562 12.757812 25.117188 C 14.480469 24.386719 15.273438 22.410156 14.53125 20.714844 C 13.785156 19.011719 11.785156 18.226562 10.066406 18.960938 C 8.335938 19.695312 7.542969 21.667969 8.285156 23.367188 Z M 8.285156 23.367188 " fill-opacity="1" fill-rule="evenodd"/><path fill="#6e6e95" d="M 42.199219 23.367188 C 41.453125 25.070312 39.453125 25.851562 37.726562 25.117188 C 36.007812 24.386719 35.214844 22.410156 35.957031 20.714844 C 36.703125 19.011719 38.703125 18.226562 40.421875 18.960938 C 42.152344 19.695312 42.941406 21.667969 42.199219 23.367188 Z M 42.199219 23.367188 " fill-opacity="1" fill-rule="evenodd"/><g clip-path="url(#6cc7a75709)"><path fill="#6e6e95" d="M 30.300781 24.40625 C 29.921875 24.421875 29.53125 24.375 29.136719 24.273438 C 28.136719 24.003906 27.355469 23.382812 26.871094 22.59375 L 25.824219 22.746094 C 25.484375 22.792969 25.351562 22.472656 25.5625 22.199219 L 26.359375 21.183594 C 26.28125 20.679688 26.304688 20.144531 26.449219 19.609375 C 26.996094 17.574219 29.019531 16.359375 31.109375 16.921875 C 33.199219 17.480469 34.347656 19.546875 33.800781 21.582031 C 33.359375 23.234375 31.9375 24.347656 30.300781 24.40625 Z M 28.199219 21.3125 C 28.59375 21.3125 28.914062 20.992188 28.914062 20.59375 C 28.914062 20.203125 28.59375 19.878906 28.199219 19.878906 C 27.800781 19.878906 27.480469 20.203125 27.480469 20.59375 C 27.480469 20.992188 27.804688 21.3125 28.199219 21.3125 Z M 30.125 21.3125 C 30.519531 21.3125 30.839844 20.992188 30.84375 20.59375 C 30.839844 20.203125 30.519531 19.878906 30.125 19.878906 C 29.730469 19.878906 29.410156 20.203125 29.410156 20.59375 C 29.410156 20.992188 29.730469 21.3125 30.125 21.3125 Z M 32.050781 21.3125 C 32.445312 21.3125 32.765625 20.992188 32.765625 20.59375 C 32.765625 20.203125 32.445312 19.878906 32.050781 19.878906 C 31.652344 19.878906 31.335938 20.203125 31.335938 20.59375 C 31.335938 20.992188 31.652344 21.3125 32.050781 21.3125 Z M 32.050781 21.3125 " fill-opacity="1" fill-rule="evenodd"/></g><g clip-path="url(#65e97313d8)"><path fill="#ff4615" d="M 8.625 10.710938 L 8.609375 10.710938 C 8.183594 10.714844 7.992188 10.941406 8.035156 11.386719 C 8.105469 11.683594 8.441406 12.113281 9.050781 12.683594 C 9.699219 13.25 11.117188 14.25 13.300781 15.6875 C 14.492188 16.460938 15.367188 17.003906 15.917969 17.320312 C 16.421875 17.605469 16.699219 17.726562 16.75 17.683594 C 16.859375 17.703125 16.988281 17.621094 17.132812 17.433594 C 17.203125 17.308594 17.203125 17.179688 17.132812 17.050781 C 17.046875 16.898438 16.898438 16.707031 16.679688 16.472656 C 16.023438 15.820312 15.550781 15.375 15.265625 15.144531 C 11.933594 12.269531 9.722656 10.792969 8.625 10.710938 " fill-opacity="1" fill-rule="nonzero"/></g><path fill="#ff4615" d="M 16.929688 6.59375 L 16.921875 6.59375 C 16.746094 6.613281 16.613281 6.683594 16.527344 6.796875 C 16.46875 6.875 16.429688 6.96875 16.410156 7.085938 C 16.398438 7.203125 16.398438 7.292969 16.40625 7.359375 C 16.476562 7.84375 16.757812 8.542969 17.253906 9.457031 C 17.644531 10.214844 18.285156 11.089844 19.171875 12.085938 C 19.445312 12.410156 19.835938 12.800781 20.339844 13.257812 C 20.53125 13.441406 20.695312 13.535156 20.839844 13.535156 C 20.972656 13.53125 21.082031 13.453125 21.160156 13.308594 C 21.191406 13.242188 21.207031 13.195312 21.207031 13.164062 L 21.210938 12.953125 C 21.207031 12.902344 21.203125 12.867188 21.195312 12.847656 C 20.707031 11.546875 20.214844 10.472656 19.722656 9.621094 C 19.285156 8.878906 18.71875 8.117188 18.03125 7.34375 C 17.589844 6.886719 17.222656 6.636719 16.929688 6.59375 " fill-opacity="1" fill-rule="nonzero"/><g clip-path="url(#46e8d0da6e)"><path fill="#ff4615" d="M 25.675781 3.140625 L 25.683594 3.191406 C 25.695312 3.324219 25.703125 3.46875 25.710938 3.628906 L 25.714844 3.734375 L 25.71875 3.855469 L 25.71875 3.996094 L 25.714844 4.160156 L 25.710938 4.347656 L 25.707031 4.558594 L 25.695312 4.792969 L 25.6875 5.046875 L 25.671875 5.324219 L 25.65625 5.621094 C 25.652344 5.476562 25.648438 5.328125 25.648438 5.171875 C 25.644531 5.058594 25.640625 4.855469 25.636719 4.558594 C 25.648438 4.03125 25.65625 3.601562 25.664062 3.265625 L 25.667969 3.140625 L 25.675781 3.140625 M 26.136719 10.371094 L 26.125 10.398438 L 26.109375 10.421875 L 26.09375 10.441406 L 26.054688 10.480469 L 26.007812 10.511719 L 25.984375 10.523438 L 25.957031 10.53125 C 25.992188 10.515625 26.023438 10.492188 26.054688 10.464844 C 26.085938 10.4375 26.109375 10.40625 26.128906 10.371094 L 26.136719 10.371094 M 25.671875 1.636719 L 25.644531 1.640625 C 25.445312 1.652344 25.289062 1.738281 25.171875 1.910156 L 25.078125 2.066406 C 25.019531 2.183594 24.964844 2.328125 24.914062 2.5 C 24.816406 2.839844 24.738281 3.285156 24.683594 3.839844 C 24.636719 4.367188 24.617188 4.839844 24.617188 5.253906 C 24.621094 6.273438 24.664062 7.230469 24.742188 8.121094 C 24.757812 8.285156 24.804688 8.839844 24.886719 9.785156 L 25.238281 12.78125 C 25.277344 12.992188 25.40625 13.105469 25.632812 13.121094 C 25.757812 13.117188 25.859375 13.0625 25.941406 12.953125 C 25.976562 12.886719 25.996094 12.84375 25.996094 12.828125 C 26.007812 12.730469 26.011719 12.699219 26 12.730469 C 26.046875 12.671875 26.074219 12.574219 26.089844 12.445312 L 26.171875 10.253906 L 26.445312 5.363281 C 26.472656 4.769531 26.488281 4.308594 26.488281 3.984375 C 26.484375 3.214844 26.417969 2.625 26.289062 2.21875 C 26.144531 1.835938 25.941406 1.644531 25.671875 1.636719 " fill-opacity="1" fill-rule="nonzero"/></g><path fill="#ff4615" d="M 25.566406 2.816406 C 25.363281 2.816406 25.191406 2.980469 25.183594 3.1875 C 25.179688 3.25 25.179688 3.324219 25.179688 3.410156 L 25.179688 3.414062 L 25.199219 3.929688 C 25.203125 4.082031 25.214844 4.496094 25.238281 5.167969 C 25.242188 5.292969 25.246094 5.644531 25.257812 6.226562 C 25.257812 6.320312 25.261719 6.449219 25.265625 6.609375 C 25.269531 6.722656 25.28125 7.054688 25.304688 7.605469 C 25.3125 7.8125 25.484375 7.972656 25.691406 7.972656 C 25.695312 7.972656 25.699219 7.972656 25.707031 7.972656 C 25.917969 7.964844 26.085938 7.785156 26.074219 7.570312 C 26.050781 7.023438 26.039062 6.699219 26.039062 6.59375 L 26.039062 6.585938 C 26.035156 6.433594 26.03125 6.308594 26.027344 6.210938 L 26.027344 6.214844 C 26.019531 5.628906 26.011719 5.273438 26.007812 5.144531 C 25.988281 4.472656 25.976562 4.0625 25.972656 3.90625 L 25.972656 3.902344 L 25.953125 3.394531 C 25.953125 3.324219 25.953125 3.265625 25.953125 3.21875 C 25.964844 3.003906 25.796875 2.824219 25.585938 2.816406 C 25.578125 2.816406 25.574219 2.816406 25.566406 2.816406 Z M 25.566406 2.816406 " fill-opacity="1" fill-rule="nonzero"/><path fill="#ff4615" d="M 33.917969 6.859375 L 33.890625 6.859375 C 33.738281 6.875 33.597656 6.941406 33.464844 7.0625 C 33.28125 7.21875 33.058594 7.488281 32.796875 7.867188 C 32.414062 8.464844 32.140625 8.933594 31.96875 9.269531 C 31.753906 9.675781 31.550781 10.085938 31.359375 10.507812 L 31.082031 11.148438 C 30.902344 11.578125 30.734375 12.015625 30.582031 12.460938 L 30.359375 13.132812 L 30.125 13.925781 C 30.09375 14.050781 30.109375 14.167969 30.175781 14.273438 C 30.285156 14.398438 30.394531 14.460938 30.511719 14.460938 C 30.632812 14.457031 30.746094 14.390625 30.855469 14.257812 L 31.363281 13.601562 C 31.570312 13.316406 31.769531 13.023438 31.96875 12.71875 C 32.472656 11.96875 33.101562 10.832031 33.859375 9.304688 C 34.082031 8.8125 34.242188 8.402344 34.335938 8.066406 C 34.382812 7.898438 34.414062 7.75 34.425781 7.621094 L 34.433594 7.441406 C 34.40625 7.082031 34.234375 6.886719 33.917969 6.859375 " fill-opacity="1" fill-rule="nonzero"/><g clip-path="url(#244050ef4a)"><path fill="#ff4615" d="M 44.898438 10.527344 L 44.761719 10.539062 C 43.011719 10.984375 40.457031 12.277344 37.101562 14.425781 L 36.195312 15.039062 L 34.246094 16.4375 C 34.078125 16.644531 34.035156 16.800781 34.125 16.90625 C 34.230469 17.082031 34.371094 17.164062 34.550781 17.148438 C 34.65625 17.136719 34.789062 17.097656 34.949219 17.027344 C 35.363281 16.824219 35.671875 16.652344 35.875 16.511719 C 37.703125 15.78125 39.136719 15.136719 40.171875 14.582031 C 41.628906 13.84375 42.839844 13.160156 43.808594 12.539062 C 44.722656 11.9375 45.234375 11.515625 45.34375 11.269531 C 45.441406 11.074219 45.441406 10.902344 45.34375 10.75 C 45.269531 10.609375 45.117188 10.535156 44.898438 10.527344 " fill-opacity="1" fill-rule="nonzero"/></g></svg>