<svg xmlns="http://www.w3.org/2000/svg" xmlns:xlink="http://www.w3.org/1999/xlink" width="70" zoomAndPan="magnify" viewBox="0 0 52.5 52.499999" height="70" preserveAspectRatio="xMidYMid meet" version="1.0"><defs><clipPath id="603b6966d3"><path d="M 0 0 L 52.003906 0 L 52.003906 52.003906 L 0 52.003906 Z M 0 0 " clip-rule="nonzero"/></clipPath><clipPath id="8ac2e673c1"><path d="M 43 17 L 50.046875 17 L 50.046875 29 L 43 29 Z M 43 17 " clip-rule="nonzero"/></clipPath><clipPath id="6beb3c4715"><path d="M 1.757812 15 L 9 15 L 9 24 L 1.757812 24 Z M 1.757812 15 " clip-rule="nonzero"/></clipPath><clipPath id="c3d81169a1"><path d="M 7 6.121094 L 14 6.121094 L 14 16 L 7 16 Z M 7 6.121094 " clip-rule="nonzero"/></clipPath><clipPath id="63610448d8"><path d="M 7 6.121094 L 15 6.121094 L 15 17 L 7 17 Z M 7 6.121094 " clip-rule="nonzero"/></clipPath><clipPath id="092dfb9c0e"><path d="M 7 6.121094 L 16 6.121094 L 16 12 L 7 12 Z M 7 6.121094 " clip-rule="nonzero"/></clipPath><clipPath id="98afc93e50"><path d="M 16 6.121094 L 25 6.121094 L 25 16 L 16 16 Z M 16 6.121094 " clip-rule="nonzero"/></clipPath><clipPath id="98ad61ca8d"><path d="M 17 6.121094 L 24 6.121094 L 24 16 L 17 16 Z M 17 6.121094 " clip-rule="nonzero"/></clipPath><clipPath id="c76717a9b8"><path d="M 16 6.121094 L 24 6.121094 L 24 11 L 16 11 Z M 16 6.121094 " clip-rule="nonzero"/></clipPath><clipPath id="f420941f00"><path d="M 16 6.121094 L 25 6.121094 L 25 12 L 16 12 Z M 16 6.121094 " clip-rule="nonzero"/></clipPath><clipPath id="b3bbb7815e"><path d="M 1.757812 14 L 5 14 L 5 24 L 1.757812 24 Z M 1.757812 14 " clip-rule="nonzero"/></clipPath></defs><g clip-path="url(#603b6966d3)"><path fill="#ffffff" d="M 0 0 L 52.003906 0 L 52.003906 52.003906 L 0 52.003906 Z M 0 0 " fill-opacity="1" fill-rule="nonzero"/><path fill="#ffffff" d="M 0 0 L 52.003906 0 L 52.003906 52.003906 L 0 52.003906 Z M 0 0 " fill-opacity="1" fill-rule="nonzero"/></g><path fill="#ffffff" d="M 40.839844 18.289062 C 40.644531 18.289062 40.421875 18.246094 40.207031 18.203125 C 40.015625 18.164062 39.835938 18.128906 39.671875 18.121094 C 39.589844 18.117188 39.519531 18.117188 39.457031 18.117188 C 39.296875 18.113281 39.1875 18.113281 39.035156 18.058594 C 38.78125 17.96875 38.523438 17.808594 38.378906 17.652344 C 38.296875 17.566406 38.300781 17.5 38.320312 17.351562 C 38.324219 17.320312 38.328125 17.292969 38.328125 17.257812 C 38.347656 17.042969 38.242188 16.902344 38.140625 16.773438 C 38.109375 16.726562 38.070312 16.675781 38.035156 16.617188 C 37.933594 16.449219 38.050781 16.273438 38.253906 16.003906 C 38.359375 15.863281 38.46875 15.71875 38.519531 15.566406 C 38.59375 15.363281 38.46875 15.199219 38.382812 15.082031 C 38.339844 15.023438 38.296875 14.96875 38.28125 14.921875 C 38.226562 14.734375 38.214844 14.472656 38.296875 14.339844 C 38.339844 14.269531 38.453125 14.191406 38.558594 14.121094 C 38.707031 14.019531 38.859375 13.914062 38.925781 13.769531 C 39.007812 13.601562 38.984375 13.414062 38.964844 13.253906 C 38.957031 13.199219 38.953125 13.144531 38.953125 13.097656 C 38.949219 13.035156 38.945312 12.96875 38.9375 12.90625 C 38.921875 12.734375 38.90625 12.570312 38.976562 12.433594 C 39.027344 12.347656 39.148438 12.253906 39.265625 12.164062 C 39.382812 12.070312 39.496094 11.984375 39.570312 11.882812 C 39.613281 11.882812 39.652344 11.878906 39.695312 11.878906 C 39.847656 11.875 40.003906 11.871094 40.160156 11.871094 C 40.421875 11.871094 40.808594 11.882812 41.140625 11.964844 C 41.902344 12.15625 42.152344 12.550781 42.273438 12.828125 C 42.296875 12.882812 42.347656 12.914062 42.402344 12.914062 L 42.40625 12.914062 C 42.464844 12.910156 42.515625 12.875 42.535156 12.820312 C 42.640625 12.535156 42.867188 12.128906 43.617188 11.894531 C 44.027344 11.765625 44.511719 11.746094 45.058594 11.730469 L 45.179688 11.726562 C 45.261719 11.824219 45.378906 11.90625 45.5 11.992188 C 45.625 12.074219 45.75 12.160156 45.804688 12.246094 C 45.886719 12.375 45.878906 12.539062 45.871094 12.710938 C 45.867188 12.777344 45.863281 12.84375 45.867188 12.90625 C 45.867188 12.953125 45.863281 13.007812 45.859375 13.0625 C 45.851562 13.226562 45.839844 13.410156 45.929688 13.574219 C 46.003906 13.714844 46.160156 13.8125 46.3125 13.902344 C 46.425781 13.96875 46.542969 14.039062 46.589844 14.109375 C 46.675781 14.234375 46.683594 14.5 46.636719 14.6875 C 46.625 14.734375 46.585938 14.792969 46.546875 14.855469 C 46.464844 14.980469 46.355469 15.148438 46.433594 15.34375 C 46.496094 15.496094 46.613281 15.632812 46.722656 15.765625 C 46.941406 16.023438 47.070312 16.195312 46.976562 16.371094 C 46.945312 16.429688 46.910156 16.480469 46.875 16.53125 C 46.785156 16.667969 46.691406 16.808594 46.71875 17.027344 C 46.722656 17.058594 46.730469 17.089844 46.734375 17.117188 C 46.761719 17.261719 46.769531 17.332031 46.691406 17.421875 C 46.558594 17.585938 46.308594 17.757812 46.058594 17.863281 C 45.910156 17.925781 45.800781 17.929688 45.640625 17.941406 C 45.578125 17.945312 45.507812 17.953125 45.429688 17.960938 C 45.265625 17.976562 45.085938 18.023438 44.898438 18.074219 C 44.660156 18.132812 44.417969 18.195312 44.210938 18.195312 C 44.097656 18.195312 44.007812 18.179688 43.9375 18.140625 C 43.878906 18.109375 43.804688 18.09375 43.710938 18.09375 C 43.574219 18.09375 43.40625 18.125 43.210938 18.160156 C 42.996094 18.195312 42.75 18.238281 42.519531 18.246094 L 42.449219 18.246094 C 42.238281 18.246094 42.027344 18.21875 41.84375 18.195312 C 41.6875 18.175781 41.558594 18.160156 41.441406 18.160156 C 41.320312 18.160156 41.234375 18.179688 41.167969 18.21875 C 41.085938 18.269531 40.980469 18.289062 40.839844 18.289062 " fill-opacity="1" fill-rule="nonzero"/><path fill="#6e6e95" d="M 45.253906 11.585938 C 45.1875 11.585938 45.121094 11.589844 45.054688 11.589844 C 44.546875 11.601562 44.015625 11.625 43.578125 11.761719 C 42.855469 11.988281 42.550781 12.371094 42.402344 12.773438 C 42.234375 12.378906 41.910156 12.011719 41.175781 11.828125 C 40.867188 11.75 40.515625 11.730469 40.160156 11.730469 C 40.003906 11.730469 39.84375 11.734375 39.6875 11.738281 C 39.625 11.742188 39.554688 11.742188 39.488281 11.746094 C 39.390625 11.957031 38.980469 12.140625 38.855469 12.367188 C 38.726562 12.597656 38.804688 12.867188 38.8125 13.101562 C 38.816406 13.292969 38.886719 13.523438 38.800781 13.707031 C 38.699219 13.917969 38.304688 14.0625 38.175781 14.265625 C 38.0625 14.449219 38.085938 14.773438 38.144531 14.960938 C 38.203125 15.152344 38.460938 15.308594 38.390625 15.519531 C 38.253906 15.898438 37.675781 16.289062 37.914062 16.6875 C 38.042969 16.902344 38.207031 17.015625 38.1875 17.25 C 38.175781 17.429688 38.121094 17.582031 38.273438 17.75 C 38.429688 17.914062 38.699219 18.085938 38.988281 18.191406 C 39.230469 18.277344 39.378906 18.246094 39.664062 18.261719 C 40.003906 18.277344 40.460938 18.433594 40.839844 18.433594 C 40.988281 18.433594 41.125 18.40625 41.242188 18.339844 C 41.289062 18.3125 41.359375 18.300781 41.441406 18.300781 C 41.683594 18.300781 42.054688 18.386719 42.449219 18.386719 L 42.519531 18.386719 C 42.972656 18.375 43.4375 18.234375 43.710938 18.234375 C 43.777344 18.234375 43.832031 18.246094 43.871094 18.265625 C 43.972656 18.320312 44.085938 18.335938 44.210938 18.335938 C 44.601562 18.335938 45.082031 18.140625 45.441406 18.101562 C 45.726562 18.070312 45.878906 18.089844 46.113281 17.992188 C 46.398438 17.875 46.660156 17.683594 46.800781 17.511719 C 46.945312 17.339844 46.886719 17.1875 46.859375 17.007812 C 46.828125 16.777344 46.984375 16.65625 47.101562 16.433594 C 47.320312 16.019531 46.71875 15.664062 46.5625 15.292969 C 46.480469 15.085938 46.726562 14.914062 46.773438 14.722656 C 46.820312 14.53125 46.832031 14.207031 46.707031 14.027344 C 46.566406 13.828125 46.164062 13.710938 46.050781 13.507812 C 45.953125 13.328125 46.011719 13.09375 46.007812 12.902344 C 46 12.667969 46.0625 12.394531 45.921875 12.167969 C 45.785156 11.953125 45.367188 11.789062 45.253906 11.585938 Z M 45.121094 11.871094 C 45.207031 11.960938 45.316406 12.03125 45.421875 12.105469 C 45.523438 12.175781 45.644531 12.261719 45.683594 12.320312 C 45.742188 12.414062 45.738281 12.546875 45.730469 12.707031 C 45.726562 12.773438 45.722656 12.839844 45.726562 12.90625 C 45.726562 12.949219 45.722656 13 45.71875 13.054688 C 45.710938 13.226562 45.695312 13.441406 45.804688 13.640625 C 45.898438 13.816406 46.082031 13.925781 46.242188 14.023438 C 46.328125 14.074219 46.441406 14.144531 46.476562 14.191406 C 46.53125 14.269531 46.542969 14.488281 46.5 14.652344 C 46.496094 14.679688 46.457031 14.738281 46.429688 14.777344 C 46.339844 14.910156 46.195312 15.132812 46.300781 15.398438 C 46.375 15.566406 46.496094 15.714844 46.617188 15.859375 C 46.820312 16.101562 46.898438 16.214844 46.851562 16.304688 C 46.824219 16.355469 46.792969 16.402344 46.761719 16.449219 C 46.664062 16.597656 46.542969 16.777344 46.578125 17.046875 C 46.585938 17.078125 46.589844 17.109375 46.597656 17.140625 C 46.621094 17.28125 46.617188 17.292969 46.585938 17.332031 C 46.460938 17.476562 46.234375 17.636719 46.003906 17.730469 C 45.878906 17.785156 45.785156 17.792969 45.632812 17.800781 C 45.566406 17.808594 45.496094 17.8125 45.414062 17.820312 C 45.238281 17.835938 45.046875 17.886719 44.863281 17.933594 C 44.632812 17.996094 44.398438 18.054688 44.210938 18.054688 C 44.125 18.054688 44.054688 18.042969 44.003906 18.015625 C 43.925781 17.972656 43.828125 17.953125 43.710938 17.953125 C 43.5625 17.953125 43.386719 17.984375 43.183594 18.019531 C 42.972656 18.054688 42.738281 18.097656 42.515625 18.105469 L 42.449219 18.105469 C 42.246094 18.105469 42.039062 18.078125 41.863281 18.054688 C 41.703125 18.035156 41.566406 18.019531 41.441406 18.019531 C 41.296875 18.019531 41.1875 18.042969 41.097656 18.097656 C 41.039062 18.132812 40.953125 18.148438 40.839844 18.148438 C 40.660156 18.148438 40.445312 18.105469 40.234375 18.066406 C 40.046875 18.027344 39.851562 17.988281 39.675781 17.976562 C 39.597656 17.972656 39.523438 17.972656 39.460938 17.972656 C 39.304688 17.972656 39.214844 17.972656 39.082031 17.921875 C 38.847656 17.839844 38.609375 17.699219 38.484375 17.558594 C 38.445312 17.519531 38.441406 17.511719 38.460938 17.367188 C 38.460938 17.335938 38.46875 17.304688 38.46875 17.269531 C 38.492188 17 38.363281 16.828125 38.257812 16.6875 C 38.21875 16.636719 38.183594 16.59375 38.15625 16.542969 C 38.105469 16.460938 38.175781 16.339844 38.367188 16.085938 C 38.476562 15.9375 38.59375 15.785156 38.652344 15.613281 C 38.75 15.339844 38.589844 15.125 38.492188 14.996094 C 38.464844 14.957031 38.421875 14.902344 38.414062 14.878906 C 38.367188 14.714844 38.367188 14.492188 38.414062 14.414062 C 38.445312 14.367188 38.550781 14.292969 38.640625 14.234375 C 38.796875 14.128906 38.96875 14.011719 39.058594 13.828125 C 39.152344 13.621094 39.125 13.40625 39.105469 13.238281 C 39.101562 13.183594 39.09375 13.132812 39.09375 13.09375 C 39.089844 13.023438 39.085938 12.957031 39.078125 12.890625 C 39.0625 12.734375 39.050781 12.597656 39.101562 12.503906 C 39.136719 12.441406 39.253906 12.351562 39.351562 12.277344 C 39.453125 12.195312 39.558594 12.117188 39.636719 12.023438 C 39.660156 12.019531 39.675781 12.019531 39.699219 12.019531 C 39.835938 12.015625 40 12.011719 40.160156 12.011719 C 40.414062 12.011719 40.792969 12.019531 41.109375 12.101562 C 41.800781 12.277344 42.027344 12.613281 42.144531 12.886719 C 42.191406 12.988281 42.292969 13.054688 42.402344 13.054688 L 42.410156 13.054688 C 42.527344 13.050781 42.628906 12.980469 42.667969 12.871094 C 42.769531 12.589844 42.976562 12.242188 43.660156 12.03125 C 44.050781 11.910156 44.527344 11.886719 45.0625 11.871094 L 45.121094 11.871094 " fill-opacity="1" fill-rule="nonzero"/><g clip-path="url(#8ac2e673c1)"><path fill="#ffffff" d="M 48.070312 28.65625 C 48.007812 28.65625 47.945312 28.648438 47.886719 28.636719 C 47.359375 28.535156 47.011719 28.023438 47.113281 27.496094 L 47.988281 22.917969 C 47.996094 22.871094 47.980469 22.816406 47.941406 22.785156 L 43.902344 19.304688 C 43.691406 19.121094 43.5625 18.867188 43.539062 18.589844 C 43.519531 18.308594 43.609375 18.039062 43.792969 17.824219 C 43.992188 17.59375 44.28125 17.460938 44.589844 17.460938 C 44.839844 17.460938 45.082031 17.554688 45.273438 17.714844 L 49.625 21.464844 C 49.914062 21.664062 50.078125 21.972656 50.070312 22.304688 C 50.074219 22.433594 50.054688 22.550781 50.019531 22.664062 L 49.023438 27.863281 C 48.933594 28.320312 48.535156 28.65625 48.070312 28.65625 " fill-opacity="1" fill-rule="nonzero"/><path fill="#6e6e95" d="M 44.589844 17.320312 C 44.253906 17.320312 43.921875 17.460938 43.6875 17.734375 C 43.257812 18.230469 43.3125 18.984375 43.8125 19.410156 L 47.847656 22.894531 L 46.972656 27.472656 C 46.859375 28.074219 47.253906 28.660156 47.859375 28.773438 C 47.929688 28.789062 48 28.796875 48.070312 28.796875 C 48.59375 28.796875 49.058594 28.421875 49.164062 27.890625 L 50.152344 22.710938 C 50.195312 22.578125 50.214844 22.441406 50.210938 22.308594 C 50.21875 21.925781 50.027344 21.566406 49.714844 21.363281 L 45.363281 17.609375 C 45.136719 17.414062 44.863281 17.320312 44.589844 17.320312 Z M 44.589844 17.605469 C 44.804688 17.605469 45.015625 17.679688 45.179688 17.824219 L 49.53125 21.574219 C 49.539062 21.582031 49.546875 21.589844 49.558594 21.597656 C 49.796875 21.753906 49.933594 22.019531 49.929688 22.300781 L 49.929688 22.316406 C 49.933594 22.421875 49.917969 22.523438 49.886719 22.621094 C 49.882812 22.632812 49.878906 22.644531 49.875 22.65625 L 48.882812 27.835938 C 48.8125 28.230469 48.464844 28.511719 48.070312 28.511719 C 48.015625 28.511719 47.964844 28.507812 47.910156 28.5 C 47.460938 28.410156 47.164062 27.976562 47.25 27.523438 L 48.125 22.945312 C 48.144531 22.847656 48.109375 22.746094 48.03125 22.679688 L 43.996094 19.199219 C 43.8125 19.039062 43.699219 18.820312 43.683594 18.578125 C 43.664062 18.335938 43.742188 18.101562 43.898438 17.917969 C 44.074219 17.71875 44.324219 17.605469 44.589844 17.605469 " fill-opacity="1" fill-rule="nonzero"/></g><path fill="#ffffff" d="M 35.996094 23.382812 C 35.691406 23.382812 35.402344 23.25 35.203125 23.019531 C 35.019531 22.804688 34.929688 22.539062 34.949219 22.257812 C 34.972656 21.980469 35.101562 21.722656 35.308594 21.542969 L 39.75 17.714844 C 39.9375 17.554688 40.183594 17.460938 40.433594 17.460938 C 40.738281 17.460938 41.027344 17.59375 41.226562 17.824219 C 41.605469 18.265625 41.554688 18.925781 41.117188 19.304688 L 36.679688 23.128906 C 36.488281 23.292969 36.246094 23.382812 35.996094 23.382812 " fill-opacity="1" fill-rule="nonzero"/><path fill="#6e6e95" d="M 40.433594 17.320312 C 40.15625 17.320312 39.878906 17.414062 39.65625 17.609375 L 35.21875 21.433594 C 34.722656 21.863281 34.664062 22.613281 35.097656 23.109375 C 35.332031 23.382812 35.664062 23.523438 35.996094 23.523438 C 36.273438 23.523438 36.546875 23.429688 36.773438 23.238281 L 41.210938 19.410156 C 41.707031 18.984375 41.761719 18.230469 41.335938 17.734375 C 41.097656 17.460938 40.765625 17.320312 40.433594 17.320312 Z M 40.433594 17.605469 C 40.699219 17.605469 40.949219 17.71875 41.121094 17.917969 C 41.445312 18.296875 41.402344 18.871094 41.023438 19.199219 L 36.589844 23.023438 C 36.421875 23.164062 36.214844 23.242188 35.996094 23.242188 C 35.730469 23.242188 35.480469 23.128906 35.308594 22.925781 C 35.152344 22.746094 35.074219 22.507812 35.089844 22.269531 C 35.109375 22.027344 35.21875 21.804688 35.40625 21.648438 L 39.839844 17.824219 C 40.003906 17.679688 40.214844 17.605469 40.433594 17.605469 " fill-opacity="1" fill-rule="nonzero"/><path fill="#ffffff" d="M 43.222656 45.222656 L 43.378906 37.648438 C 43.378906 37.644531 43.375 37.636719 43.375 37.632812 L 42.648438 31.285156 C 42.640625 31.21875 42.578125 31.164062 42.507812 31.164062 C 42.4375 31.164062 42.375 31.214844 42.367188 31.285156 L 41.578125 37.503906 C 41.578125 37.511719 41.578125 37.519531 41.578125 37.527344 L 41.792969 45.222656 L 38.964844 45.222656 C 38.851562 44.675781 38.371094 42.089844 38.355469 37.707031 C 38.339844 32.28125 38.949219 27.664062 39.183594 26.828125 C 39.335938 26.285156 39.492188 26.214844 39.609375 26.214844 C 39.78125 26.214844 40.035156 26.363281 40.324219 26.535156 C 40.851562 26.84375 41.570312 27.269531 42.550781 27.269531 C 43.53125 27.269531 44.207031 26.859375 44.703125 26.566406 C 44.96875 26.40625 45.199219 26.265625 45.371094 26.265625 C 45.488281 26.265625 45.652344 26.332031 45.859375 26.84375 C 46.238281 27.765625 46.722656 32.234375 46.664062 37.40625 C 46.632812 40.046875 46.394531 41.898438 46.222656 43.25 C 46.121094 44.035156 46.039062 44.671875 46.023438 45.222656 L 43.222656 45.222656 " fill-opacity="1" fill-rule="nonzero"/><path fill="#6e6e95" d="M 39.609375 26.074219 C 39.375 26.074219 39.195312 26.261719 39.046875 26.789062 C 38.789062 27.707031 38.195312 32.421875 38.214844 37.707031 C 38.230469 42.726562 38.851562 45.363281 38.851562 45.363281 L 41.9375 45.363281 L 41.71875 37.523438 L 42.507812 31.304688 L 43.238281 37.648438 L 43.078125 45.363281 L 46.164062 45.363281 C 46.171875 43.847656 46.753906 41.683594 46.804688 37.410156 C 46.867188 32.152344 46.367188 27.710938 45.992188 26.789062 C 45.792969 26.300781 45.597656 26.125 45.371094 26.125 C 44.816406 26.125 44.0625 27.125 42.550781 27.125 C 41.039062 27.125 40.167969 26.074219 39.609375 26.074219 Z M 39.609375 26.355469 C 39.742188 26.355469 39.988281 26.5 40.25 26.65625 C 40.792969 26.972656 41.53125 27.410156 42.550781 27.410156 C 43.570312 27.410156 44.265625 26.992188 44.773438 26.6875 C 45.015625 26.542969 45.238281 26.40625 45.371094 26.40625 C 45.503906 26.40625 45.640625 26.671875 45.730469 26.898438 C 46.050781 27.683594 46.589844 31.863281 46.523438 37.40625 C 46.492188 40.035156 46.253906 41.882812 46.082031 43.234375 C 45.988281 43.960938 45.910156 44.554688 45.890625 45.082031 L 43.367188 45.082031 L 43.519531 37.652344 C 43.519531 37.640625 43.519531 37.628906 43.519531 37.613281 L 42.789062 31.273438 C 42.769531 31.128906 42.652344 31.023438 42.507812 31.023438 C 42.363281 31.023438 42.246094 31.125 42.226562 31.269531 L 41.4375 37.488281 C 41.4375 37.5 41.4375 37.515625 41.4375 37.53125 L 41.644531 45.082031 L 39.082031 45.082031 C 38.941406 44.355469 38.511719 41.835938 38.496094 37.707031 C 38.480469 32.292969 39.085938 27.699219 39.320312 26.863281 C 39.371094 26.675781 39.480469 26.355469 39.609375 26.355469 " fill-opacity="1" fill-rule="nonzero"/><path fill="#ffffff" d="M 39.214844 19.769531 C 39.332031 17.289062 40.671875 17.089844 42.40625 17.089844 L 42.601562 17.089844 C 44.335938 17.089844 45.675781 17.289062 45.789062 19.769531 L 39.214844 19.769531 " fill-opacity="1" fill-rule="nonzero"/><path fill="#6e6e95" d="M 42.601562 16.945312 L 42.40625 16.945312 C 40.605469 16.945312 39.144531 17.171875 39.070312 19.910156 L 45.9375 19.910156 C 45.863281 17.171875 44.402344 16.945312 42.601562 16.945312 Z M 42.601562 17.230469 C 44.277344 17.230469 45.484375 17.40625 45.640625 19.628906 L 39.367188 19.628906 C 39.519531 17.40625 40.730469 17.230469 42.40625 17.230469 L 42.601562 17.230469 " fill-opacity="1" fill-rule="nonzero"/><path fill="#ffffff" d="M 42.660156 27.550781 C 40.410156 27.550781 39.429688 26.914062 39.199219 26.734375 C 39.570312 24.46875 39.015625 20.394531 38.976562 20.109375 C 38.980469 17.828125 39.960938 17.242188 41.445312 17.121094 C 41.523438 17.539062 41.808594 18.15625 42.503906 18.15625 C 43.277344 18.15625 43.628906 17.425781 43.734375 17.136719 C 45.117188 17.289062 46.027344 17.878906 46.027344 20.121094 C 46.007812 20.308594 45.511719 25.011719 45.839844 26.75 C 45.675781 26.917969 44.902344 27.550781 42.660156 27.550781 " fill-opacity="1" fill-rule="nonzero"/><path fill="#6e6e95" d="M 41.570312 16.96875 C 40.003906 17.070312 38.835938 17.605469 38.835938 20.121094 C 38.835938 20.121094 39.453125 24.507812 39.046875 26.789062 C 39.046875 26.789062 39.957031 27.691406 42.660156 27.691406 C 45.363281 27.691406 45.992188 26.789062 45.992188 26.789062 C 45.636719 25.113281 46.167969 20.121094 46.167969 20.121094 C 46.167969 17.714844 45.101562 17.121094 43.636719 16.984375 C 43.636719 16.984375 43.355469 18.015625 42.503906 18.015625 C 41.652344 18.015625 41.570312 16.96875 41.570312 16.96875 Z M 41.335938 17.269531 C 41.453125 17.726562 41.785156 18.296875 42.503906 18.296875 C 43.28125 18.296875 43.671875 17.648438 43.828125 17.289062 C 45.101562 17.453125 45.882812 18.03125 45.886719 20.105469 C 45.847656 20.453125 45.390625 24.910156 45.6875 26.699219 C 45.460938 26.894531 44.667969 27.410156 42.660156 27.410156 C 40.621094 27.410156 39.65625 26.878906 39.351562 26.671875 C 39.699219 24.394531 39.167969 20.453125 39.117188 20.101562 C 39.125 17.988281 39.964844 17.410156 41.335938 17.269531 " fill-opacity="1" fill-rule="nonzero"/><path fill="#ffffff" d="M 43.207031 45.480469 C 43.203125 45.441406 43.199219 45.398438 43.199219 45.359375 C 43.199219 44.484375 43.910156 43.773438 44.785156 43.773438 C 45.660156 43.773438 46.375 44.484375 46.375 45.359375 C 46.375 45.398438 46.371094 45.441406 46.367188 45.480469 L 43.207031 45.480469 " fill-opacity="1" fill-rule="nonzero"/><path fill="#6e6e95" d="M 44.785156 43.632812 C 43.832031 43.632812 43.058594 44.40625 43.058594 45.359375 C 43.058594 45.449219 43.066406 45.539062 43.078125 45.621094 L 46.492188 45.621094 C 46.507812 45.539062 46.515625 45.449219 46.515625 45.359375 C 46.515625 44.40625 45.738281 43.632812 44.785156 43.632812 Z M 44.785156 43.917969 C 45.578125 43.917969 46.222656 44.550781 46.234375 45.339844 L 43.339844 45.339844 C 43.351562 44.550781 43.996094 43.917969 44.785156 43.917969 " fill-opacity="1" fill-rule="nonzero"/><path fill="#ffffff" d="M 38.480469 45.480469 C 38.476562 45.441406 38.476562 45.398438 38.476562 45.359375 C 38.476562 44.484375 39.1875 43.773438 40.0625 43.773438 C 40.9375 43.773438 41.648438 44.484375 41.648438 45.359375 C 41.648438 45.398438 41.644531 45.441406 41.640625 45.480469 L 38.480469 45.480469 " fill-opacity="1" fill-rule="nonzero"/><path fill="#6e6e95" d="M 40.0625 43.632812 C 39.109375 43.632812 38.335938 44.40625 38.335938 45.359375 C 38.335938 45.449219 38.339844 45.539062 38.355469 45.621094 L 41.769531 45.621094 C 41.78125 45.539062 41.789062 45.449219 41.789062 45.359375 C 41.789062 44.40625 41.015625 43.632812 40.0625 43.632812 Z M 40.0625 43.917969 C 40.851562 43.917969 41.496094 44.550781 41.507812 45.339844 L 38.617188 45.339844 C 38.628906 44.550781 39.269531 43.917969 40.0625 43.917969 " fill-opacity="1" fill-rule="nonzero"/><path fill="#ffffff" d="M 39.289062 14.773438 C 39.007812 14.773438 38.785156 14.554688 38.777344 14.277344 L 38.769531 14.019531 C 38.761719 13.738281 38.984375 13.503906 39.265625 13.496094 C 39.558594 13.496094 39.78125 13.714844 39.789062 13.992188 L 39.796875 14.25 C 39.804688 14.53125 39.582031 14.765625 39.300781 14.773438 L 39.289062 14.773438 " fill-opacity="1" fill-rule="nonzero"/><path fill="#6e6e95" d="M 39.28125 13.355469 L 39.261719 13.355469 C 38.902344 13.363281 38.621094 13.664062 38.628906 14.023438 L 38.636719 14.28125 C 38.648438 14.632812 38.9375 14.914062 39.289062 14.914062 L 39.304688 14.914062 C 39.664062 14.902344 39.945312 14.605469 39.9375 14.246094 L 39.929688 13.988281 C 39.921875 13.632812 39.632812 13.355469 39.28125 13.355469 Z M 39.28125 13.636719 C 39.480469 13.636719 39.640625 13.796875 39.648438 13.996094 L 39.65625 14.253906 C 39.660156 14.457031 39.5 14.628906 39.296875 14.632812 L 39.289062 14.632812 C 39.085938 14.632812 38.921875 14.476562 38.917969 14.273438 L 38.910156 14.015625 C 38.90625 13.8125 39.066406 13.644531 39.269531 13.636719 L 39.28125 13.636719 " fill-opacity="1" fill-rule="nonzero"/><path fill="#ffffff" d="M 45.429688 14.601562 C 45.152344 14.601562 44.929688 14.382812 44.921875 14.109375 L 44.914062 13.847656 C 44.90625 13.566406 45.128906 13.332031 45.410156 13.324219 C 45.703125 13.324219 45.925781 13.542969 45.9375 13.820312 L 45.941406 14.078125 C 45.945312 14.214844 45.894531 14.34375 45.800781 14.441406 C 45.710938 14.539062 45.582031 14.597656 45.445312 14.601562 L 45.429688 14.601562 " fill-opacity="1" fill-rule="nonzero"/><path fill="#6e6e95" d="M 45.425781 13.183594 L 45.40625 13.183594 C 45.046875 13.195312 44.761719 13.492188 44.773438 13.851562 L 44.78125 14.113281 C 44.789062 14.464844 45.078125 14.742188 45.429688 14.742188 L 45.449219 14.742188 C 45.808594 14.734375 46.09375 14.433594 46.082031 14.074219 L 46.078125 13.816406 C 46.066406 13.460938 45.777344 13.183594 45.425781 13.183594 Z M 45.425781 13.464844 C 45.625 13.464844 45.789062 13.625 45.792969 13.824219 L 45.800781 14.082031 C 45.804688 14.179688 45.765625 14.273438 45.699219 14.347656 C 45.632812 14.417969 45.539062 14.457031 45.441406 14.460938 L 45.429688 14.460938 C 45.230469 14.460938 45.070312 14.304688 45.0625 14.101562 L 45.054688 13.847656 C 45.050781 13.640625 45.210938 13.472656 45.414062 13.464844 L 45.425781 13.464844 " fill-opacity="1" fill-rule="nonzero"/><path fill="#ffffff" d="M 42.363281 17.457031 C 40.757812 17.457031 39.46875 16.203125 39.425781 14.601562 L 39.363281 12.246094 C 39.339844 11.460938 39.625 10.714844 40.164062 10.144531 C 40.703125 9.574219 41.429688 9.246094 42.214844 9.226562 L 42.296875 9.226562 C 43.898438 9.226562 45.1875 10.480469 45.234375 12.082031 L 45.300781 14.4375 C 45.34375 16.058594 44.0625 17.410156 42.445312 17.457031 L 42.363281 17.457031 " fill-opacity="1" fill-rule="nonzero"/><path fill="#6e6e95" d="M 42.296875 9.085938 L 42.210938 9.085938 C 40.511719 9.132812 39.171875 10.550781 39.21875 12.25 L 39.285156 14.605469 C 39.332031 16.277344 40.703125 17.597656 42.363281 17.597656 L 42.449219 17.597656 C 44.148438 17.550781 45.488281 16.132812 45.441406 14.433594 L 45.375 12.078125 C 45.328125 10.40625 43.960938 9.085938 42.296875 9.085938 Z M 42.296875 9.085938 L 42.296875 9.367188 C 43.824219 9.367188 45.050781 10.5625 45.09375 12.085938 L 45.160156 14.441406 C 45.203125 15.980469 43.984375 17.273438 42.441406 17.316406 L 42.363281 17.316406 C 40.835938 17.316406 39.609375 16.121094 39.566406 14.597656 L 39.503906 12.242188 C 39.480469 11.496094 39.753906 10.785156 40.265625 10.242188 C 40.777344 9.699219 41.472656 9.390625 42.21875 9.367188 L 42.296875 9.367188 L 42.296875 9.085938 " fill-opacity="1" fill-rule="nonzero"/><path fill="#ffffff" d="M 39.289062 11.488281 C 39.292969 11.476562 39.300781 11.460938 39.3125 11.445312 C 39.320312 11.425781 39.324219 11.410156 39.328125 11.390625 C 39.5625 9.207031 41.171875 8.882812 42.109375 8.882812 C 42.386719 8.882812 42.574219 8.914062 42.574219 8.914062 C 43.695312 9.109375 44.492188 9.558594 44.945312 10.257812 C 45.59375 11.257812 45.339844 12.460938 45.28125 12.691406 C 45.277344 12.703125 45.277344 12.714844 45.277344 12.730469 L 45.285156 13.355469 C 45.210938 13.261719 45.109375 13.109375 45 12.867188 C 44.976562 12.816406 44.925781 12.785156 44.871094 12.785156 C 44.863281 12.785156 44.855469 12.785156 44.84375 12.785156 C 44.554688 12.847656 44.246094 12.878906 43.921875 12.878906 C 42.511719 12.878906 41.074219 12.3125 40.121094 11.835938 C 40.101562 11.824219 40.082031 11.820312 40.058594 11.820312 C 40.035156 11.820312 40.015625 11.824219 39.996094 11.835938 C 39.957031 11.855469 39.929688 11.890625 39.921875 11.933594 C 39.738281 12.875 39.519531 13.308594 39.371094 13.507812 L 39.289062 11.488281 " fill-opacity="1" fill-rule="nonzero"/><path fill="#6e6e95" d="M 42.109375 8.742188 C 41.226562 8.742188 39.441406 9.035156 39.1875 11.375 C 39.160156 11.425781 39.144531 11.460938 39.144531 11.460938 L 39.246094 13.804688 C 39.246094 13.804688 39.71875 13.714844 40.058594 11.960938 C 40.96875 12.414062 42.457031 13.019531 43.921875 13.019531 C 44.242188 13.019531 44.558594 12.992188 44.871094 12.925781 C 45.175781 13.605469 45.429688 13.640625 45.429688 13.640625 L 45.417969 12.726562 C 45.519531 12.316406 46.125 9.386719 42.601562 8.773438 C 42.601562 8.773438 42.40625 8.742188 42.109375 8.742188 Z M 42.109375 9.023438 C 42.375 9.023438 42.550781 9.050781 42.550781 9.050781 C 43.632812 9.238281 44.398438 9.671875 44.824219 10.335938 C 45.445312 11.285156 45.199219 12.4375 45.144531 12.65625 C 45.136719 12.679688 45.136719 12.707031 45.136719 12.730469 L 45.136719 12.824219 C 45.132812 12.820312 45.132812 12.816406 45.128906 12.8125 C 45.085938 12.707031 44.980469 12.644531 44.871094 12.644531 C 44.855469 12.644531 44.835938 12.644531 44.8125 12.648438 C 44.535156 12.707031 44.238281 12.738281 43.921875 12.738281 C 42.539062 12.738281 41.125 12.175781 40.183594 11.707031 C 40.144531 11.6875 40.101562 11.679688 40.058594 11.679688 C 40.015625 11.679688 39.972656 11.6875 39.933594 11.707031 C 39.855469 11.746094 39.796875 11.820312 39.78125 11.90625 C 39.6875 12.386719 39.585938 12.730469 39.492188 12.972656 L 39.429688 11.519531 C 39.433594 11.515625 39.433594 11.511719 39.433594 11.511719 C 39.453125 11.480469 39.464844 11.445312 39.46875 11.40625 C 39.691406 9.332031 41.21875 9.023438 42.109375 9.023438 " fill-opacity="1" fill-rule="nonzero"/><path fill="#6e6e95" d="M 40.710938 13.824219 C 40.101562 13.824219 39.589844 14.125 39.589844 14.476562 C 39.589844 14.832031 40.101562 15.128906 40.710938 15.128906 C 41.316406 15.128906 41.832031 14.832031 41.832031 14.476562 C 41.832031 14.125 41.316406 13.824219 40.710938 13.824219 Z M 40.710938 15.378906 C 39.984375 15.378906 39.414062 14.984375 39.414062 14.476562 C 39.414062 13.972656 39.984375 13.578125 40.710938 13.578125 C 41.4375 13.578125 42.007812 13.972656 42.007812 14.476562 C 42.007812 14.984375 41.4375 15.378906 40.710938 15.378906 " fill-opacity="1" fill-rule="nonzero"/><path fill="#6e6e95" d="M 43.972656 13.824219 C 43.367188 13.824219 42.851562 14.125 42.851562 14.476562 C 42.851562 14.832031 43.367188 15.128906 43.972656 15.128906 C 44.582031 15.128906 45.09375 14.832031 45.09375 14.476562 C 45.09375 14.125 44.582031 13.824219 43.972656 13.824219 Z M 43.972656 15.378906 C 43.246094 15.378906 42.675781 14.984375 42.675781 14.476562 C 42.675781 13.972656 43.246094 13.578125 43.972656 13.578125 C 44.703125 13.578125 45.273438 13.972656 45.273438 14.476562 C 45.273438 14.984375 44.703125 15.378906 43.972656 15.378906 " fill-opacity="1" fill-rule="nonzero"/><path fill="#6e6e95" d="M 41.90625 14.578125 C 41.914062 14.429688 42.113281 14.300781 42.347656 14.300781 C 42.585938 14.300781 42.785156 14.429688 42.792969 14.578125 L 42.863281 14.578125 C 42.859375 14.363281 42.636719 14.195312 42.347656 14.195312 C 42.066406 14.195312 41.84375 14.363281 41.835938 14.578125 L 41.90625 14.578125 " fill-opacity="1" fill-rule="nonzero"/><path fill="#ffffff" d="M 3.371094 23.636719 C 3.121094 23.636719 2.878906 23.5625 2.667969 23.417969 C 2.097656 23.03125 1.949219 22.25 2.339844 21.679688 L 6.203125 16.011719 C 6.4375 15.667969 6.824219 15.464844 7.238281 15.464844 C 7.492188 15.464844 7.734375 15.539062 7.941406 15.679688 C 8.21875 15.867188 8.40625 16.152344 8.46875 16.484375 C 8.53125 16.8125 8.460938 17.144531 8.273438 17.421875 L 4.410156 23.089844 C 4.175781 23.433594 3.789062 23.636719 3.371094 23.636719 " fill-opacity="1" fill-rule="nonzero"/><g clip-path="url(#6beb3c4715)"><path fill="#6e6e95" d="M 7.238281 15.324219 C 6.792969 15.324219 6.355469 15.535156 6.085938 15.929688 L 2.222656 21.601562 C 1.789062 22.238281 1.953125 23.101562 2.589844 23.535156 C 2.828125 23.699219 3.101562 23.777344 3.371094 23.777344 C 3.816406 23.777344 4.253906 23.566406 4.523438 23.167969 L 8.386719 17.5 C 8.824219 16.863281 8.660156 15.996094 8.023438 15.5625 C 7.78125 15.402344 7.511719 15.324219 7.238281 15.324219 Z M 7.238281 15.605469 C 7.460938 15.605469 7.675781 15.671875 7.863281 15.796875 C 8.109375 15.964844 8.273438 16.21875 8.332031 16.507812 C 8.386719 16.800781 8.324219 17.097656 8.15625 17.339844 L 4.292969 23.011719 C 4.085938 23.316406 3.738281 23.496094 3.371094 23.496094 C 3.148438 23.496094 2.933594 23.429688 2.746094 23.304688 C 2.242188 22.957031 2.109375 22.265625 2.457031 21.757812 L 6.320312 16.089844 C 6.527344 15.785156 6.871094 15.605469 7.238281 15.605469 " fill-opacity="1" fill-rule="nonzero"/></g><path fill="#ffffff" d="M 5.304688 21.773438 C 4.59375 21.105469 3.980469 20.609375 3.355469 20.1875 L 6.203125 16.011719 C 6.4375 15.667969 6.824219 15.464844 7.238281 15.464844 C 7.492188 15.464844 7.734375 15.539062 7.941406 15.679688 C 8.21875 15.867188 8.40625 16.152344 8.46875 16.484375 C 8.53125 16.8125 8.460938 17.144531 8.273438 17.421875 L 5.304688 21.773438 " fill-opacity="1" fill-rule="nonzero"/><path fill="#6e6e95" d="M 7.238281 15.324219 C 6.792969 15.324219 6.355469 15.535156 6.085938 15.929688 L 3.160156 20.226562 C 3.949219 20.746094 4.652344 21.347656 5.328125 21.988281 L 8.386719 17.5 C 8.824219 16.863281 8.660156 15.996094 8.023438 15.5625 C 7.78125 15.402344 7.511719 15.324219 7.238281 15.324219 Z M 7.238281 15.605469 C 7.460938 15.605469 7.675781 15.671875 7.863281 15.796875 C 8.109375 15.964844 8.273438 16.21875 8.332031 16.507812 C 8.386719 16.800781 8.324219 17.097656 8.15625 17.339844 L 5.28125 21.558594 C 4.664062 20.988281 4.101562 20.53125 3.550781 20.152344 L 6.320312 16.089844 C 6.527344 15.785156 6.871094 15.605469 7.238281 15.605469 " fill-opacity="1" fill-rule="nonzero"/><path fill="#ffffff" d="M 20.917969 18.183594 C 20.890625 18.183594 20.859375 18.183594 20.832031 18.183594 L 13.988281 17.726562 C 13.296875 17.679688 12.773438 17.082031 12.820312 16.390625 C 12.863281 15.738281 13.414062 15.222656 14.070312 15.222656 C 14.09375 15.222656 14.125 15.226562 14.152344 15.226562 L 21 15.683594 C 21.332031 15.707031 21.640625 15.859375 21.855469 16.109375 C 22.078125 16.363281 22.1875 16.683594 22.164062 17.015625 C 22.121094 17.671875 21.574219 18.183594 20.917969 18.183594 " fill-opacity="1" fill-rule="nonzero"/><path fill="#6e6e95" d="M 14.070312 15.082031 C 13.339844 15.082031 12.730469 15.648438 12.679688 16.382812 C 12.628906 17.152344 13.210938 17.816406 13.976562 17.867188 L 20.820312 18.324219 C 20.855469 18.328125 20.886719 18.328125 20.917969 18.328125 C 21.644531 18.328125 22.257812 17.765625 22.308594 17.027344 C 22.359375 16.257812 21.777344 15.59375 21.007812 15.542969 L 14.164062 15.085938 C 14.132812 15.085938 14.097656 15.082031 14.070312 15.082031 Z M 14.070312 15.363281 C 14.09375 15.363281 14.117188 15.367188 14.144531 15.367188 L 20.988281 15.824219 C 21.601562 15.867188 22.066406 16.394531 22.023438 17.007812 C 21.988281 17.589844 21.5 18.042969 20.917969 18.042969 C 20.890625 18.042969 20.867188 18.042969 20.84375 18.042969 L 13.996094 17.585938 C 13.386719 17.542969 12.921875 17.011719 12.960938 16.402344 C 13 15.820312 13.488281 15.363281 14.070312 15.363281 " fill-opacity="1" fill-rule="nonzero"/><path fill="#ffffff" d="M 27.089844 22.085938 C 26.828125 22.085938 26.523438 21.976562 26.222656 21.765625 L 20.429688 18.078125 C 19.867188 17.691406 19.726562 16.90625 20.121094 16.339844 C 20.355469 16.003906 20.738281 15.804688 21.148438 15.804688 C 21.40625 15.804688 21.652344 15.882812 21.863281 16.027344 L 27.28125 20.214844 C 27.761719 20.550781 28.238281 21.074219 27.808594 21.691406 C 27.625 21.953125 27.382812 22.085938 27.089844 22.085938 " fill-opacity="1" fill-rule="nonzero"/><path fill="#6e6e95" d="M 21.148438 15.664062 C 20.710938 15.664062 20.273438 15.871094 20.003906 16.261719 C 19.566406 16.894531 19.722656 17.761719 20.351562 18.199219 L 26.144531 21.878906 C 26.453125 22.097656 26.785156 22.226562 27.089844 22.226562 C 27.40625 22.226562 27.699219 22.089844 27.921875 21.773438 C 28.363281 21.140625 28 20.542969 27.367188 20.105469 L 21.945312 15.914062 C 21.699219 15.746094 21.425781 15.664062 21.148438 15.664062 Z M 21.148438 15.945312 C 21.375 15.945312 21.589844 16.011719 21.777344 16.140625 L 27.195312 20.328125 C 27.199219 20.332031 27.203125 20.335938 27.207031 20.335938 C 27.820312 20.761719 27.980469 21.191406 27.691406 21.609375 C 27.535156 21.835938 27.339844 21.945312 27.089844 21.945312 C 26.855469 21.945312 26.582031 21.84375 26.304688 21.648438 C 26.300781 21.648438 26.296875 21.644531 26.292969 21.644531 L 20.511719 17.964844 C 20.007812 17.613281 19.890625 16.921875 20.238281 16.421875 C 20.445312 16.125 20.785156 15.945312 21.148438 15.945312 " fill-opacity="1" fill-rule="nonzero"/><path fill="#ffffff" d="M 13.988281 17.726562 C 13.296875 17.679688 12.773438 17.082031 12.820312 16.390625 C 12.863281 15.738281 13.414062 15.222656 14.070312 15.222656 C 14.09375 15.222656 14.125 15.226562 14.152344 15.226562 L 19.199219 15.5625 C 19.144531 16.308594 19.160156 17.113281 19.242188 18.074219 L 13.988281 17.726562 " fill-opacity="1" fill-rule="nonzero"/><path fill="#6e6e95" d="M 14.070312 15.082031 C 13.339844 15.082031 12.730469 15.648438 12.679688 16.382812 C 12.628906 17.152344 13.210938 17.816406 13.976562 17.867188 L 19.398438 18.230469 C 19.3125 17.300781 19.269531 16.375 19.351562 15.433594 L 14.164062 15.085938 C 14.132812 15.085938 14.097656 15.082031 14.070312 15.082031 Z M 14.070312 15.363281 C 14.09375 15.363281 14.117188 15.367188 14.144531 15.367188 L 19.046875 15.695312 C 19.007812 16.367188 19.019531 17.085938 19.085938 17.921875 L 13.996094 17.585938 C 13.386719 17.542969 12.921875 17.011719 12.960938 16.402344 C 13 15.820312 13.488281 15.363281 14.070312 15.363281 " fill-opacity="1" fill-rule="nonzero"/><path fill="#ffffff" d="M 6.707031 28.171875 L 5.882812 17.789062 C 5.886719 15.09375 7.820312 14.878906 10.34375 14.878906 L 10.609375 14.878906 C 13.136719 14.878906 15.066406 15.09375 15.066406 17.800781 L 14.285156 28.171875 L 6.707031 28.171875 " fill-opacity="1" fill-rule="nonzero"/><path fill="#6e6e95" d="M 10.609375 14.734375 L 10.34375 14.734375 C 7.804688 14.734375 5.746094 14.957031 5.746094 17.800781 L 6.578125 28.3125 L 14.417969 28.3125 L 15.207031 17.800781 C 15.207031 14.957031 13.148438 14.734375 10.609375 14.734375 Z M 10.609375 15.019531 C 13.132812 15.019531 14.921875 15.214844 14.925781 17.789062 L 14.15625 28.03125 L 6.839844 28.03125 L 6.027344 17.789062 C 6.03125 15.214844 7.820312 15.019531 10.34375 15.019531 L 10.609375 15.019531 " fill-opacity="1" fill-rule="nonzero"/><path fill="#ffffff" d="M 6.773438 28.285156 C 6.773438 28.28125 6.742188 28.214844 6.742188 28.214844 C 6.730469 28.191406 6.707031 28.167969 6.683594 28.15625 L 6.679688 28.113281 C 6.679688 28.097656 6.675781 28.082031 6.667969 28.066406 C 6.242188 27.152344 6.019531 26.105469 6.019531 25.046875 C 6.019531 24.375 6.109375 23.703125 6.289062 23.054688 C 6.296875 23.039062 6.296875 23.019531 6.296875 23.003906 L 5.902344 17.753906 C 5.902344 16.152344 6.542969 15.316406 8.046875 15.007812 C 8.039062 15.628906 8.253906 16.21875 8.644531 16.640625 C 9.046875 17.070312 9.601562 17.300781 10.25 17.300781 C 10.910156 17.300781 11.46875 17.0625 11.871094 16.621094 C 12.261719 16.183594 12.472656 15.5625 12.449219 14.925781 C 14.316406 15.160156 15.082031 15.992188 15.082031 17.765625 L 14.671875 22.945312 C 14.667969 22.960938 14.671875 22.980469 14.675781 22.996094 C 14.867188 23.660156 14.964844 24.351562 14.964844 25.046875 C 14.964844 26.148438 14.722656 27.226562 14.265625 28.164062 C 14.261719 28.171875 14.257812 28.183594 14.257812 28.191406 C 14.25 28.199219 14.246094 28.207031 14.242188 28.214844 C 14.242188 28.214844 14.210938 28.277344 14.210938 28.285156 L 6.773438 28.285156 " fill-opacity="1" fill-rule="nonzero"/><path fill="#6e6e95" d="M 12.296875 14.765625 C 12.417969 15.914062 11.738281 17.15625 10.25 17.15625 C 8.792969 17.15625 8.109375 15.960938 8.195312 14.835938 C 6.746094 15.089844 5.761719 15.796875 5.761719 17.765625 L 6.15625 23.015625 C 5.976562 23.648438 5.875 24.332031 5.875 25.046875 C 5.875 26.171875 6.121094 27.222656 6.539062 28.125 L 6.550781 28.277344 L 6.617188 28.277344 C 6.640625 28.328125 6.664062 28.378906 6.6875 28.425781 L 14.296875 28.425781 C 14.320312 28.378906 14.34375 28.328125 14.367188 28.277344 L 14.390625 28.277344 L 14.394531 28.226562 C 14.84375 27.304688 15.109375 26.214844 15.109375 25.046875 C 15.109375 24.308594 15 23.609375 14.8125 22.957031 L 15.222656 17.765625 C 15.222656 15.582031 14.007812 14.941406 12.296875 14.765625 Z M 12.589844 15.085938 C 14.011719 15.292969 14.9375 15.875 14.941406 17.753906 L 14.53125 22.933594 C 14.527344 22.96875 14.53125 23.003906 14.542969 23.035156 C 14.730469 23.6875 14.824219 24.363281 14.824219 25.046875 C 14.824219 26.128906 14.589844 27.183594 14.140625 28.101562 C 14.136719 28.113281 14.132812 28.121094 14.128906 28.128906 C 14.125 28.132812 14.125 28.140625 14.121094 28.144531 L 6.863281 28.144531 C 6.851562 28.121094 6.835938 28.101562 6.820312 28.082031 C 6.816406 28.054688 6.808594 28.03125 6.792969 28.003906 C 6.378906 27.113281 6.160156 26.089844 6.160156 25.046875 C 6.160156 24.386719 6.246094 23.730469 6.429688 23.089844 C 6.433594 23.058594 6.4375 23.027344 6.4375 22.996094 L 6.042969 17.753906 C 6.046875 16.289062 6.609375 15.507812 7.910156 15.183594 C 7.941406 15.773438 8.164062 16.328125 8.542969 16.738281 C 8.96875 17.199219 9.558594 17.441406 10.25 17.441406 C 10.953125 17.441406 11.546875 17.191406 11.976562 16.714844 C 12.359375 16.289062 12.578125 15.699219 12.589844 15.085938 " fill-opacity="1" fill-rule="nonzero"/><path fill="#ffffff" d="M 11.316406 44.835938 L 10.589844 31.542969 C 10.585938 31.46875 10.523438 31.410156 10.449219 31.410156 C 10.375 31.410156 10.3125 31.46875 10.308594 31.542969 L 9.574219 44.835938 L 5.871094 44.835938 C 5.929688 42.582031 6.28125 28.890625 6.316406 27.324219 L 14.667969 27.324219 C 14.699219 28.914062 14.988281 43.125 15.023438 44.835938 L 11.316406 44.835938 " fill-opacity="1" fill-rule="nonzero"/><path fill="#6e6e95" d="M 14.808594 27.179688 L 6.179688 27.179688 C 6.179688 27.289062 5.730469 44.976562 5.730469 44.976562 L 9.710938 44.976562 L 10.449219 31.550781 L 11.1875 44.976562 L 15.167969 44.976562 C 15.167969 44.976562 14.804688 27.289062 14.808594 27.179688 Z M 14.53125 27.464844 C 14.570312 29.53125 14.828125 42.128906 14.878906 44.691406 L 11.453125 44.691406 L 10.730469 31.535156 C 10.722656 31.382812 10.597656 31.269531 10.449219 31.269531 C 10.296875 31.269531 10.175781 31.382812 10.167969 31.535156 L 9.441406 44.691406 L 6.019531 44.691406 C 6.101562 41.464844 6.40625 29.488281 6.453125 27.464844 L 14.53125 27.464844 " fill-opacity="1" fill-rule="nonzero"/><path fill="#ffffff" d="M 11.363281 45.753906 C 11.355469 45.6875 11.351562 45.628906 11.351562 45.570312 C 11.351562 44.464844 12.25 43.566406 13.355469 43.566406 C 14.457031 43.566406 15.355469 44.464844 15.355469 45.570312 C 15.355469 45.628906 15.355469 45.6875 15.347656 45.753906 L 11.363281 45.753906 " fill-opacity="1" fill-rule="nonzero"/><path fill="#6e6e95" d="M 13.355469 43.425781 C 12.171875 43.425781 11.210938 44.386719 11.210938 45.570312 C 11.210938 45.679688 11.222656 45.789062 11.238281 45.894531 L 15.46875 45.894531 C 15.488281 45.789062 15.496094 45.679688 15.496094 45.570312 C 15.496094 44.386719 14.539062 43.425781 13.355469 43.425781 Z M 13.355469 43.710938 C 14.382812 43.710938 15.214844 44.542969 15.214844 45.570312 L 15.214844 45.613281 L 11.492188 45.613281 L 11.492188 45.570312 C 11.492188 44.542969 12.328125 43.710938 13.355469 43.710938 " fill-opacity="1" fill-rule="nonzero"/><path fill="#ffffff" d="M 5.765625 45.753906 C 5.761719 45.6875 5.757812 45.628906 5.757812 45.570312 C 5.757812 44.464844 6.652344 43.566406 7.757812 43.566406 C 8.863281 43.566406 9.761719 44.464844 9.761719 45.570312 C 9.761719 45.628906 9.757812 45.6875 9.75 45.753906 L 5.765625 45.753906 " fill-opacity="1" fill-rule="nonzero"/><path fill="#6e6e95" d="M 7.757812 43.425781 C 6.574219 43.425781 5.613281 44.386719 5.613281 45.570312 C 5.613281 45.679688 5.625 45.789062 5.640625 45.894531 L 9.875 45.894531 C 9.890625 45.789062 9.902344 45.679688 9.902344 45.570312 C 9.902344 44.386719 8.941406 43.425781 7.757812 43.425781 Z M 7.757812 43.710938 C 8.785156 43.710938 9.621094 44.542969 9.621094 45.570312 C 9.621094 45.582031 9.621094 45.597656 9.617188 45.613281 L 5.898438 45.613281 L 5.898438 45.570312 C 5.898438 44.542969 6.734375 43.710938 7.757812 43.710938 " fill-opacity="1" fill-rule="nonzero"/><path fill="#ffffff" d="M 7.160156 12.796875 C 6.847656 12.792969 6.597656 12.527344 6.605469 12.21875 L 6.609375 11.933594 C 6.617188 11.628906 6.875 11.375 7.179688 11.375 C 7.347656 11.378906 7.488281 11.445312 7.59375 11.550781 C 7.699219 11.664062 7.753906 11.808594 7.753906 11.960938 L 7.746094 12.242188 C 7.738281 12.546875 7.480469 12.796875 7.175781 12.796875 L 7.160156 12.796875 " fill-opacity="1" fill-rule="nonzero"/><path fill="#6e6e95" d="M 7.179688 11.234375 C 6.792969 11.234375 6.480469 11.542969 6.46875 11.929688 L 6.464844 12.214844 C 6.453125 12.605469 6.765625 12.933594 7.15625 12.9375 L 7.175781 12.9375 C 7.5625 12.9375 7.875 12.632812 7.886719 12.246094 L 7.894531 11.960938 C 7.902344 11.570312 7.589844 11.242188 7.199219 11.234375 Z M 7.179688 11.515625 L 7.191406 11.515625 C 7.304688 11.519531 7.410156 11.566406 7.492188 11.652344 C 7.570312 11.734375 7.613281 11.84375 7.613281 11.957031 L 7.605469 12.238281 C 7.597656 12.46875 7.40625 12.65625 7.175781 12.65625 L 7.164062 12.65625 C 6.929688 12.652344 6.742188 12.457031 6.742188 12.21875 L 6.75 11.9375 C 6.757812 11.707031 6.949219 11.515625 7.179688 11.515625 " fill-opacity="1" fill-rule="nonzero"/><path fill="#ffffff" d="M 14.058594 12.953125 C 13.90625 12.953125 13.761719 12.886719 13.65625 12.78125 C 13.550781 12.667969 13.496094 12.523438 13.5 12.371094 L 13.507812 12.089844 C 13.515625 11.777344 13.765625 11.53125 14.078125 11.53125 C 14.402344 11.542969 14.65625 11.804688 14.648438 12.117188 L 14.640625 12.398438 C 14.632812 12.707031 14.378906 12.953125 14.070312 12.953125 L 14.058594 12.953125 " fill-opacity="1" fill-rule="nonzero"/><path fill="#6e6e95" d="M 14.078125 11.390625 C 13.691406 11.390625 13.375 11.699219 13.367188 12.085938 L 13.359375 12.371094 C 13.351562 12.761719 13.664062 13.085938 14.054688 13.09375 L 14.070312 13.09375 C 14.453125 13.09375 14.773438 12.789062 14.78125 12.402344 L 14.789062 12.117188 C 14.796875 11.726562 14.484375 11.398438 14.09375 11.394531 C 14.089844 11.394531 14.082031 11.390625 14.078125 11.390625 Z M 14.078125 11.671875 L 14.085938 11.675781 C 14.324219 11.679688 14.511719 11.875 14.503906 12.113281 L 14.5 12.394531 C 14.496094 12.625 14.300781 12.8125 14.070312 12.8125 L 14.0625 12.8125 C 13.945312 12.8125 13.839844 12.765625 13.761719 12.679688 C 13.679688 12.597656 13.636719 12.488281 13.640625 12.375 L 13.648438 12.09375 C 13.652344 11.859375 13.839844 11.671875 14.078125 11.671875 " fill-opacity="1" fill-rule="nonzero"/><g clip-path="url(#c3d81169a1)"><path fill="#ffffff" d="M 10.511719 15.976562 C 8.671875 15.9375 7.210938 14.40625 7.253906 12.570312 L 7.3125 9.90625 C 7.351562 8.109375 8.847656 6.648438 10.644531 6.648438 L 10.722656 6.648438 C 12.558594 6.691406 14.023438 8.21875 13.980469 10.058594 L 13.921875 12.71875 C 13.882812 14.515625 12.386719 15.980469 10.589844 15.980469 L 10.511719 15.976562 " fill-opacity="1" fill-rule="nonzero"/></g><g clip-path="url(#63610448d8)"><path fill="#6e6e95" d="M 10.644531 6.507812 C 8.761719 6.507812 7.210938 8.011719 7.171875 9.90625 L 7.109375 12.566406 C 7.066406 14.484375 8.589844 16.074219 10.507812 16.121094 C 10.535156 16.121094 10.5625 16.121094 10.589844 16.121094 C 12.472656 16.121094 14.019531 14.617188 14.0625 12.722656 L 14.121094 10.0625 C 14.167969 8.144531 12.644531 6.550781 10.726562 6.507812 C 10.699219 6.507812 10.671875 6.507812 10.644531 6.507812 Z M 10.644531 6.507812 L 10.644531 6.789062 C 10.667969 6.789062 10.695312 6.789062 10.71875 6.789062 C 12.480469 6.828125 13.882812 8.296875 13.839844 10.054688 L 13.78125 12.714844 C 13.742188 14.4375 12.308594 15.839844 10.589844 15.839844 C 10.5625 15.839844 10.539062 15.839844 10.515625 15.835938 C 8.753906 15.796875 7.351562 14.332031 7.394531 12.570312 L 7.453125 9.910156 C 7.492188 8.191406 8.921875 6.789062 10.644531 6.789062 L 10.644531 6.507812 " fill-opacity="1" fill-rule="nonzero"/></g><path fill="#ffffff" d="M 10.597656 15.996094 C 8.773438 15.996094 7.289062 14.796875 7.289062 13.328125 L 7.289062 12.953125 C 7.507812 13.757812 7.875 14.5625 8.46875 14.5625 L 8.492188 14.5625 C 8.535156 14.5625 8.578125 14.539062 8.601562 14.503906 C 8.820312 14.203125 9.625 13.644531 10.597656 13.644531 C 11.566406 13.644531 12.375 14.203125 12.589844 14.503906 C 12.617188 14.539062 12.660156 14.5625 12.703125 14.5625 C 12.71875 14.5625 12.734375 14.5625 12.75 14.554688 C 13.332031 14.359375 13.695312 13.640625 13.910156 12.929688 L 13.902344 13.339844 C 13.902344 14.804688 12.421875 15.996094 10.597656 15.996094 " fill-opacity="1" fill-rule="nonzero"/><path fill="#6e6e95" d="M 14.082031 11.285156 C 14.082031 11.285156 13.863281 14.035156 12.703125 14.421875 C 12.464844 14.089844 11.613281 13.503906 10.597656 13.503906 C 9.578125 13.503906 8.726562 14.089844 8.488281 14.421875 L 8.46875 14.421875 C 7.441406 14.421875 7.148438 11.367188 7.148438 11.367188 L 7.148438 13.328125 C 7.148438 14.875 8.714844 16.136719 10.597656 16.136719 C 12.480469 16.136719 14.042969 14.886719 14.042969 13.339844 Z M 10.597656 13.785156 C 11.503906 13.785156 12.28125 14.316406 12.476562 14.585938 C 12.53125 14.664062 12.613281 14.703125 12.703125 14.703125 C 12.734375 14.703125 12.765625 14.699219 12.792969 14.6875 C 13.1875 14.558594 13.484375 14.222656 13.707031 13.8125 C 13.425781 14.972656 12.136719 15.855469 10.597656 15.855469 C 9.15625 15.855469 7.933594 15.082031 7.554688 14.027344 C 7.78125 14.425781 8.078125 14.703125 8.46875 14.703125 L 8.496094 14.703125 C 8.585938 14.699219 8.664062 14.65625 8.714844 14.585938 C 8.910156 14.316406 9.6875 13.785156 10.597656 13.785156 " fill-opacity="1" fill-rule="nonzero"/><g clip-path="url(#092dfb9c0e)"><path fill="#ffffff" d="M 13.957031 11.203125 C 13.785156 11.128906 13.5 10.9375 13.257812 10.460938 C 13.230469 10.410156 13.183594 10.382812 13.132812 10.382812 C 13.117188 10.382812 13.105469 10.382812 13.09375 10.386719 C 12.890625 10.445312 12.753906 10.46875 12.753906 10.46875 C 12.453125 10.488281 12.144531 10.503906 11.847656 10.503906 C 10.539062 10.503906 9.382812 10.265625 8.417969 9.804688 C 8.398438 9.796875 8.378906 9.792969 8.359375 9.792969 C 8.339844 9.792969 8.324219 9.796875 8.304688 9.804688 C 8.269531 9.816406 8.238281 9.847656 8.226562 9.882812 C 7.925781 10.703125 7.507812 10.96875 7.285156 11.054688 L 7.328125 9.121094 C 7.328125 9.042969 7.34375 8.824219 7.414062 8.6875 C 7.417969 8.675781 7.425781 8.664062 7.429688 8.648438 C 7.609375 7.726562 8.417969 7.207031 8.425781 7.199219 C 9.21875 6.648438 10.03125 6.371094 10.851562 6.371094 C 12.292969 6.371094 13.261719 7.242188 13.273438 7.25 C 14.421875 8.242188 15.007812 8.554688 15.285156 8.648438 C 15.050781 9.195312 14.632812 9.644531 14.050781 9.984375 C 14.007812 10.007812 13.984375 10.054688 13.980469 10.101562 L 13.957031 11.203125 " fill-opacity="1" fill-rule="nonzero"/><path fill="#6e6e95" d="M 15.480469 8.542969 Z M 10.851562 6.230469 C 10.117188 6.230469 9.265625 6.445312 8.347656 7.082031 C 8.347656 7.082031 7.484375 7.625 7.289062 8.621094 C 7.183594 8.820312 7.1875 9.121094 7.1875 9.121094 L 7.140625 11.234375 C 7.140625 11.234375 7.894531 11.191406 8.359375 9.933594 C 9.101562 10.289062 10.242188 10.644531 11.847656 10.644531 C 12.140625 10.644531 12.449219 10.632812 12.773438 10.605469 C 12.773438 10.605469 12.914062 10.582031 13.132812 10.523438 C 13.546875 11.335938 14.09375 11.394531 14.09375 11.394531 L 14.121094 10.105469 C 14.65625 9.796875 15.203125 9.304688 15.480469 8.542969 C 15.480469 8.542969 15.476562 8.542969 15.46875 8.542969 C 15.382812 8.542969 14.910156 8.472656 13.367188 7.148438 C 13.367188 7.148438 12.363281 6.230469 10.851562 6.230469 Z M 10.851562 6.230469 L 10.851562 6.511719 C 12.230469 6.511719 13.167969 7.347656 13.183594 7.359375 C 14.011719 8.074219 14.65625 8.535156 15.09375 8.726562 C 14.859375 9.1875 14.488281 9.566406 13.980469 9.859375 C 13.894531 9.910156 13.839844 10 13.839844 10.101562 L 13.820312 10.957031 C 13.6875 10.851562 13.527344 10.679688 13.382812 10.394531 C 13.332031 10.296875 13.234375 10.242188 13.132812 10.242188 C 13.105469 10.242188 13.082031 10.246094 13.054688 10.25 C 12.890625 10.296875 12.769531 10.320312 12.738281 10.324219 C 12.4375 10.351562 12.136719 10.363281 11.847656 10.363281 C 10.558594 10.363281 9.425781 10.132812 8.480469 9.679688 C 8.441406 9.660156 8.398438 9.648438 8.359375 9.648438 C 8.324219 9.648438 8.285156 9.65625 8.253906 9.671875 C 8.179688 9.703125 8.121094 9.757812 8.09375 9.835938 C 7.886719 10.394531 7.628906 10.675781 7.433594 10.8125 L 7.46875 9.117188 C 7.46875 9.027344 7.488281 8.847656 7.539062 8.753906 C 7.550781 8.726562 7.5625 8.703125 7.566406 8.675781 C 7.734375 7.816406 8.492188 7.324219 8.496094 7.320312 C 8.503906 7.316406 8.503906 7.316406 8.511719 7.3125 C 9.273438 6.78125 10.0625 6.511719 10.851562 6.511719 L 10.851562 6.230469 " fill-opacity="1" fill-rule="nonzero"/></g><path fill="#ffffff" d="M 27.414062 23.523438 C 27.175781 23.523438 26.949219 23.429688 26.78125 23.269531 C 26.597656 23.097656 26.496094 22.871094 26.488281 22.621094 C 26.480469 22.375 26.570312 22.140625 26.738281 21.960938 L 30.34375 18.132812 C 30.519531 17.945312 30.761719 17.839844 31.019531 17.839844 C 31.253906 17.839844 31.480469 17.929688 31.65625 18.09375 C 31.832031 18.265625 31.9375 18.492188 31.945312 18.742188 C 31.953125 18.988281 31.863281 19.222656 31.691406 19.402344 L 28.089844 23.230469 C 27.910156 23.417969 27.671875 23.523438 27.414062 23.523438 " fill-opacity="1" fill-rule="nonzero"/><path fill="#6e6e95" d="M 31.019531 17.699219 C 30.734375 17.699219 30.453125 17.8125 30.242188 18.035156 L 26.636719 21.863281 C 26.230469 22.292969 26.253906 22.96875 26.679688 23.371094 C 26.886719 23.566406 27.152344 23.664062 27.414062 23.664062 C 27.699219 23.664062 27.980469 23.550781 28.191406 23.324219 L 31.796875 19.5 C 32.199219 19.070312 32.179688 18.394531 31.75 17.992188 C 31.542969 17.796875 31.28125 17.699219 31.019531 17.699219 Z M 31.019531 17.980469 C 31.21875 17.980469 31.410156 18.058594 31.558594 18.195312 C 31.710938 18.339844 31.796875 18.535156 31.804688 18.742188 C 31.808594 18.953125 31.734375 19.152344 31.589844 19.304688 L 27.984375 23.132812 C 27.835938 23.292969 27.632812 23.378906 27.414062 23.378906 C 27.214844 23.378906 27.023438 23.304688 26.875 23.164062 C 26.722656 23.023438 26.632812 22.828125 26.628906 22.617188 C 26.625 22.40625 26.699219 22.207031 26.84375 22.054688 L 30.445312 18.230469 C 30.597656 18.070312 30.800781 17.980469 31.019531 17.980469 " fill-opacity="1" fill-rule="nonzero"/><path fill="#ffffff" d="M 27.414062 23.523438 C 27.175781 23.523438 26.949219 23.429688 26.78125 23.269531 C 26.597656 23.097656 26.496094 22.871094 26.488281 22.621094 C 26.480469 22.375 26.570312 22.140625 26.738281 21.960938 L 30.34375 18.132812 C 30.519531 17.945312 30.761719 17.839844 31.019531 17.839844 C 31.253906 17.839844 31.480469 17.929688 31.65625 18.09375 C 31.832031 18.265625 31.9375 18.492188 31.945312 18.742188 C 31.953125 18.988281 31.863281 19.222656 31.691406 19.402344 L 28.089844 23.230469 C 27.910156 23.417969 27.671875 23.523438 27.414062 23.523438 " fill-opacity="1" fill-rule="nonzero"/><path fill="#6e6e95" d="M 31.019531 17.699219 C 30.734375 17.699219 30.453125 17.8125 30.242188 18.035156 L 26.636719 21.863281 C 26.230469 22.292969 26.253906 22.96875 26.679688 23.371094 C 26.886719 23.566406 27.152344 23.664062 27.414062 23.664062 C 27.699219 23.664062 27.980469 23.550781 28.191406 23.324219 L 31.796875 19.5 C 32.199219 19.070312 32.179688 18.394531 31.75 17.992188 C 31.542969 17.796875 31.28125 17.699219 31.019531 17.699219 Z M 31.019531 17.980469 C 31.21875 17.980469 31.410156 18.058594 31.558594 18.195312 C 31.710938 18.339844 31.796875 18.535156 31.804688 18.742188 C 31.808594 18.953125 31.734375 19.152344 31.589844 19.304688 L 27.984375 23.132812 C 27.835938 23.292969 27.632812 23.378906 27.414062 23.378906 C 27.214844 23.378906 27.023438 23.304688 26.875 23.164062 C 26.722656 23.023438 26.632812 22.828125 26.628906 22.617188 C 26.625 22.40625 26.699219 22.207031 26.84375 22.054688 L 30.445312 18.230469 C 30.597656 18.070312 30.800781 17.980469 31.019531 17.980469 " fill-opacity="1" fill-rule="nonzero"/><path fill="#ffffff" d="M 22.167969 25.019531 C 21.753906 25.019531 21.386719 24.742188 21.277344 24.34375 C 21.207031 24.105469 21.238281 23.855469 21.359375 23.640625 C 21.480469 23.425781 21.679688 23.269531 21.917969 23.203125 L 26.980469 21.78125 C 27.058594 21.757812 27.144531 21.746094 27.230469 21.746094 C 27.644531 21.746094 28.011719 22.023438 28.121094 22.421875 C 28.257812 22.914062 27.96875 23.425781 27.480469 23.566406 L 22.417969 24.988281 C 22.335938 25.011719 22.253906 25.019531 22.167969 25.019531 " fill-opacity="1" fill-rule="nonzero"/><path fill="#6e6e95" d="M 27.230469 21.605469 C 27.132812 21.605469 27.035156 21.617188 26.9375 21.644531 L 21.878906 23.066406 C 21.3125 23.226562 20.980469 23.816406 21.140625 24.382812 C 21.273438 24.855469 21.699219 25.164062 22.167969 25.164062 C 22.261719 25.164062 22.359375 25.148438 22.457031 25.121094 L 27.515625 23.699219 C 28.085938 23.539062 28.417969 22.953125 28.257812 22.382812 C 28.125 21.914062 27.695312 21.605469 27.230469 21.605469 Z M 27.230469 21.886719 C 27.578125 21.886719 27.890625 22.121094 27.984375 22.460938 C 28.101562 22.875 27.859375 23.3125 27.441406 23.429688 L 22.378906 24.851562 C 22.308594 24.871094 22.238281 24.878906 22.167969 24.878906 C 21.816406 24.878906 21.507812 24.644531 21.410156 24.304688 C 21.355469 24.105469 21.382812 23.894531 21.484375 23.710938 C 21.585938 23.527344 21.753906 23.394531 21.953125 23.339844 L 27.015625 21.917969 C 27.085938 21.894531 27.15625 21.886719 27.230469 21.886719 " fill-opacity="1" fill-rule="nonzero"/><path fill="#ffffff" d="M 32.707031 24.566406 C 32.503906 24.566406 32.253906 24.507812 32.015625 24.441406 L 27.921875 23.820312 C 27.855469 23.800781 27.773438 23.769531 27.695312 23.726562 C 27.6875 23.726562 27.679688 23.722656 27.671875 23.71875 C 27.476562 23.660156 27.296875 23.550781 27.152344 23.402344 L 22.597656 18.648438 C 22.140625 18.175781 22.15625 17.414062 22.632812 16.957031 C 22.855469 16.746094 23.148438 16.628906 23.460938 16.628906 C 23.789062 16.628906 24.09375 16.757812 24.324219 16.996094 L 28.695312 21.554688 C 28.710938 21.570312 28.730469 21.582031 28.746094 21.589844 L 32.332031 23.007812 C 33.351562 23.285156 33.367188 23.730469 33.269531 24.089844 C 33.175781 24.429688 33.015625 24.566406 32.707031 24.566406 " fill-opacity="1" fill-rule="nonzero"/><path fill="#6e6e95" d="M 23.460938 16.484375 C 23.128906 16.484375 22.792969 16.609375 22.535156 16.855469 C 22 17.367188 21.984375 18.214844 22.496094 18.746094 L 27.050781 23.5 C 27.21875 23.671875 27.417969 23.789062 27.628906 23.851562 C 27.714844 23.898438 27.804688 23.933594 27.902344 23.960938 L 31.976562 24.578125 C 32.25 24.652344 32.496094 24.707031 32.707031 24.707031 C 33.042969 24.707031 33.285156 24.566406 33.40625 24.128906 C 33.597656 23.417969 33.097656 23.070312 32.386719 22.875 L 28.796875 21.457031 L 24.425781 16.894531 C 24.160156 16.625 23.808594 16.484375 23.460938 16.484375 Z M 23.460938 16.769531 C 23.75 16.769531 24.019531 16.882812 24.21875 17.09375 L 28.59375 21.652344 C 28.625 21.679688 28.65625 21.707031 28.695312 21.722656 L 32.28125 23.140625 C 32.292969 23.144531 32.300781 23.144531 32.3125 23.148438 C 33.183594 23.382812 33.222656 23.726562 33.132812 24.054688 C 33.046875 24.367188 32.917969 24.425781 32.707031 24.425781 C 32.523438 24.425781 32.28125 24.367188 32.050781 24.304688 C 32.039062 24.300781 32.027344 24.300781 32.019531 24.296875 L 27.960938 23.683594 C 27.894531 23.664062 27.824219 23.636719 27.761719 23.601562 C 27.746094 23.59375 27.730469 23.585938 27.710938 23.582031 C 27.539062 23.53125 27.382812 23.433594 27.257812 23.304688 L 22.699219 18.550781 C 22.296875 18.132812 22.308594 17.464844 22.730469 17.0625 C 22.925781 16.871094 23.183594 16.769531 23.460938 16.769531 " fill-opacity="1" fill-rule="nonzero"/><path fill="#ffffff" d="M 36.488281 23.308594 C 36.34375 23.308594 36.234375 23.242188 36.140625 23.109375 C 35.976562 22.859375 35.804688 22.570312 35.804688 22.292969 C 35.804688 22.152344 35.820312 22.011719 35.839844 21.867188 C 35.871094 21.648438 35.902344 21.417969 35.867188 21.171875 C 35.808594 20.804688 35.601562 20.511719 35.371094 20.21875 C 35.152344 19.9375 35.042969 19.679688 34.964844 19.257812 L 34.941406 19.109375 C 34.871094 18.742188 34.808594 18.425781 34.921875 18.078125 C 35.011719 17.789062 35.042969 17.664062 34.878906 17.359375 C 34.722656 17.085938 34.554688 16.488281 34.644531 16.265625 C 34.714844 16.082031 35.035156 15.886719 35.394531 15.800781 C 35.609375 15.828125 35.816406 15.875 35.929688 16.035156 C 36.128906 16.3125 36.21875 16.664062 36.277344 16.972656 C 36.292969 17.074219 36.289062 17.179688 36.285156 17.289062 C 36.28125 17.410156 36.273438 17.535156 36.296875 17.664062 C 36.34375 17.890625 36.476562 18.019531 36.609375 18.140625 C 36.632812 18.160156 36.789062 18.308594 36.789062 18.308594 C 37.066406 18.578125 37.359375 18.855469 37.503906 19.207031 C 37.683594 19.640625 37.8125 20.347656 37.707031 20.855469 C 37.671875 21.007812 37.597656 21.144531 37.515625 21.289062 C 37.410156 21.476562 37.300781 21.671875 37.28125 21.925781 C 37.277344 22 37.273438 22.070312 37.273438 22.140625 C 37.265625 22.347656 37.261719 22.527344 37.164062 22.726562 C 37.023438 23.007812 36.914062 23.195312 36.691406 23.269531 C 36.617188 23.296875 36.550781 23.308594 36.488281 23.308594 " fill-opacity="1" fill-rule="nonzero"/><path fill="#6e6e95" d="M 35.386719 15.660156 C 35.023438 15.742188 34.617188 15.953125 34.515625 16.214844 C 34.394531 16.511719 34.609375 17.167969 34.753906 17.429688 C 34.894531 17.683594 34.871094 17.765625 34.785156 18.035156 C 34.648438 18.464844 34.75 18.847656 34.828125 19.28125 C 34.898438 19.683594 35.007812 19.984375 35.257812 20.304688 C 35.464844 20.574219 35.671875 20.851562 35.726562 21.195312 C 35.785156 21.574219 35.664062 21.917969 35.664062 22.292969 C 35.664062 22.609375 35.851562 22.933594 36.023438 23.1875 C 36.144531 23.363281 36.300781 23.449219 36.488281 23.449219 C 36.566406 23.449219 36.648438 23.433594 36.738281 23.40625 C 37.027344 23.308594 37.15625 23.058594 37.289062 22.789062 C 37.4375 22.492188 37.402344 22.242188 37.421875 21.933594 C 37.453125 21.53125 37.765625 21.265625 37.84375 20.886719 C 37.953125 20.363281 37.835938 19.644531 37.636719 19.15625 C 37.457031 18.726562 37.105469 18.421875 36.777344 18.105469 C 36.625 17.957031 36.480469 17.855469 36.4375 17.636719 C 36.390625 17.40625 36.460938 17.179688 36.414062 16.945312 C 36.347656 16.601562 36.253906 16.246094 36.046875 15.953125 C 35.898438 15.746094 35.644531 15.6875 35.386719 15.660156 Z M 35.402344 15.945312 C 35.628906 15.972656 35.75 16.027344 35.816406 16.121094 C 36 16.375 36.082031 16.707031 36.136719 16.996094 C 36.152344 17.085938 36.148438 17.179688 36.144531 17.28125 C 36.136719 17.40625 36.128906 17.542969 36.160156 17.691406 C 36.214844 17.964844 36.371094 18.113281 36.511719 18.242188 C 36.535156 18.265625 36.558594 18.285156 36.582031 18.308594 L 36.691406 18.410156 C 36.972656 18.683594 37.238281 18.9375 37.375 19.261719 C 37.574219 19.746094 37.65625 20.402344 37.566406 20.828125 C 37.539062 20.957031 37.46875 21.085938 37.394531 21.21875 C 37.285156 21.414062 37.160156 21.628906 37.140625 21.914062 C 37.136719 21.992188 37.132812 22.066406 37.132812 22.136719 C 37.125 22.34375 37.121094 22.492188 37.039062 22.664062 C 36.910156 22.921875 36.820312 23.078125 36.648438 23.136719 C 36.589844 23.15625 36.535156 23.167969 36.488281 23.167969 C 36.425781 23.167969 36.339844 23.152344 36.257812 23.027344 C 36.113281 22.8125 35.945312 22.53125 35.945312 22.292969 C 35.945312 22.160156 35.960938 22.027344 35.980469 21.886719 C 36.011719 21.65625 36.046875 21.417969 36.003906 21.152344 C 35.945312 20.75 35.722656 20.4375 35.480469 20.132812 C 35.277344 19.875 35.175781 19.628906 35.105469 19.230469 C 35.097656 19.179688 35.085938 19.132812 35.078125 19.085938 C 35.007812 18.722656 34.953125 18.433594 35.054688 18.125 C 35.152344 17.816406 35.195312 17.640625 35 17.292969 C 34.851562 17.027344 34.710938 16.476562 34.777344 16.316406 C 34.824219 16.199219 35.082031 16.027344 35.402344 15.945312 " fill-opacity="1" fill-rule="nonzero"/><path fill="#ffffff" d="M 33.117188 16.949219 C 31.347656 16.949219 29.910156 15.65625 29.910156 14.066406 L 29.910156 11.753906 C 29.910156 10.164062 31.347656 8.867188 33.117188 8.867188 C 34.882812 8.867188 36.324219 10.164062 36.324219 11.753906 L 36.324219 14.066406 C 36.324219 15.65625 34.882812 16.949219 33.117188 16.949219 " fill-opacity="1" fill-rule="nonzero"/><path fill="#6e6e95" d="M 33.117188 8.726562 C 31.265625 8.726562 29.765625 10.082031 29.765625 11.753906 L 29.765625 14.066406 C 29.765625 15.738281 31.265625 17.09375 33.117188 17.09375 C 34.964844 17.09375 36.464844 15.738281 36.464844 14.066406 L 36.464844 11.753906 C 36.464844 10.082031 34.964844 8.726562 33.117188 8.726562 Z M 33.117188 9.007812 C 34.804688 9.007812 36.179688 10.238281 36.179688 11.753906 L 36.179688 14.066406 C 36.179688 15.578125 34.804688 16.808594 33.117188 16.808594 C 31.425781 16.808594 30.050781 15.578125 30.050781 14.066406 L 30.050781 11.753906 C 30.050781 10.238281 31.425781 9.007812 33.117188 9.007812 " fill-opacity="1" fill-rule="nonzero"/><path fill="#ffffff" d="M 30.105469 19.765625 C 30.195312 17.9375 31.027344 17.5 32.25 17.410156 C 32.324219 17.40625 32.378906 17.34375 32.378906 17.269531 L 32.378906 15.910156 L 33.898438 15.910156 L 33.898438 17.285156 C 33.898438 17.359375 33.953125 17.417969 34.023438 17.425781 C 34.984375 17.53125 35.882812 17.890625 35.976562 19.765625 L 30.105469 19.765625 " fill-opacity="1" fill-rule="nonzero"/><path fill="#6e6e95" d="M 34.039062 15.765625 L 32.238281 15.765625 L 32.238281 17.269531 C 30.964844 17.359375 30.015625 17.824219 29.960938 19.90625 L 36.121094 19.90625 C 36.070312 17.929688 35.210938 17.414062 34.039062 17.285156 Z M 33.757812 16.050781 L 33.757812 17.285156 C 33.757812 17.429688 33.867188 17.550781 34.007812 17.566406 C 35.011719 17.675781 35.710938 18.078125 35.824219 19.625 L 30.257812 19.625 C 30.375 18.019531 31.117188 17.632812 32.261719 17.550781 C 32.40625 17.539062 32.523438 17.417969 32.523438 17.269531 L 32.523438 16.050781 L 33.757812 16.050781 " fill-opacity="1" fill-rule="nonzero"/><path fill="#ffffff" d="M 30.25 14.15625 C 29.992188 14.15625 29.78125 13.945312 29.78125 13.6875 L 29.78125 13.445312 C 29.78125 13.183594 29.992188 12.972656 30.25 12.972656 C 30.511719 12.972656 30.722656 13.183594 30.722656 13.445312 L 30.722656 13.6875 C 30.722656 13.945312 30.511719 14.15625 30.25 14.15625 " fill-opacity="1" fill-rule="nonzero"/><path fill="#6e6e95" d="M 30.25 12.832031 C 29.914062 12.832031 29.640625 13.105469 29.640625 13.445312 L 29.640625 13.6875 C 29.640625 14.023438 29.914062 14.296875 30.25 14.296875 C 30.585938 14.296875 30.863281 14.023438 30.863281 13.6875 L 30.863281 13.445312 C 30.863281 13.105469 30.585938 12.832031 30.25 12.832031 Z M 30.25 13.113281 C 30.429688 13.113281 30.582031 13.261719 30.582031 13.445312 L 30.582031 13.6875 C 30.582031 13.867188 30.429688 14.015625 30.25 14.015625 C 30.066406 14.015625 29.921875 13.867188 29.921875 13.6875 L 29.921875 13.445312 C 29.921875 13.261719 30.066406 13.113281 30.25 13.113281 " fill-opacity="1" fill-rule="nonzero"/><path fill="#ffffff" d="M 36.027344 14.15625 C 35.769531 14.15625 35.558594 13.945312 35.558594 13.6875 L 35.558594 13.445312 C 35.558594 13.183594 35.769531 12.972656 36.027344 12.972656 C 36.285156 12.972656 36.496094 13.183594 36.496094 13.445312 L 36.496094 13.6875 C 36.496094 13.945312 36.285156 14.15625 36.027344 14.15625 " fill-opacity="1" fill-rule="nonzero"/><path fill="#6e6e95" d="M 36.027344 12.832031 C 35.691406 12.832031 35.414062 13.105469 35.414062 13.445312 L 35.414062 13.6875 C 35.414062 14.023438 35.691406 14.296875 36.027344 14.296875 C 36.367188 14.296875 36.640625 14.023438 36.640625 13.6875 L 36.640625 13.445312 C 36.640625 13.105469 36.367188 12.832031 36.027344 12.832031 Z M 36.027344 13.113281 C 36.210938 13.113281 36.355469 13.261719 36.355469 13.445312 L 36.355469 13.6875 C 36.355469 13.867188 36.210938 14.015625 36.027344 14.015625 C 35.84375 14.015625 35.699219 13.867188 35.699219 13.6875 L 35.699219 13.445312 C 35.699219 13.261719 35.84375 13.113281 36.027344 13.113281 " fill-opacity="1" fill-rule="nonzero"/><path fill="#ffffff" d="M 33.140625 16.585938 C 31.621094 16.585938 30.386719 15.351562 30.386719 13.835938 L 30.386719 11.621094 C 30.386719 10.101562 31.621094 8.867188 33.140625 8.867188 C 34.65625 8.867188 35.890625 10.101562 35.890625 11.621094 L 35.890625 13.835938 C 35.890625 15.351562 34.65625 16.585938 33.140625 16.585938 " fill-opacity="1" fill-rule="nonzero"/><path fill="#6e6e95" d="M 33.140625 8.726562 C 31.542969 8.726562 30.246094 10.023438 30.246094 11.621094 L 30.246094 13.835938 C 30.246094 15.433594 31.542969 16.730469 33.140625 16.730469 C 34.738281 16.730469 36.03125 15.433594 36.03125 13.835938 L 36.03125 11.621094 C 36.03125 10.023438 34.738281 8.726562 33.140625 8.726562 Z M 33.140625 9.007812 C 34.578125 9.007812 35.75 10.179688 35.75 11.621094 L 35.75 13.835938 C 35.75 15.277344 34.578125 16.445312 33.140625 16.445312 C 31.699219 16.445312 30.527344 15.277344 30.527344 13.835938 L 30.527344 11.621094 C 30.527344 10.179688 31.699219 9.007812 33.140625 9.007812 " fill-opacity="1" fill-rule="nonzero"/><path fill="#ffffff" d="M 35.902344 13.089844 C 35.820312 12.980469 35.71875 12.800781 35.613281 12.511719 C 35.589844 12.453125 35.539062 12.417969 35.480469 12.417969 L 35.46875 12.417969 C 35.324219 12.429688 35.175781 12.433594 35.023438 12.433594 C 33.582031 12.433594 32.113281 11.914062 31.136719 11.480469 C 31.117188 11.46875 31.097656 11.464844 31.078125 11.464844 C 31.054688 11.464844 31.035156 11.472656 31.011719 11.484375 C 30.976562 11.5 30.949219 11.539062 30.941406 11.578125 C 30.746094 12.472656 30.53125 12.890625 30.386719 13.085938 L 30.363281 11.1875 C 30.359375 11.136719 30.332031 11.089844 30.285156 11.066406 C 30.171875 11.003906 30.082031 10.953125 30.023438 10.921875 C 30.332031 8.945312 31.980469 8.648438 32.945312 8.648438 C 33.308594 8.648438 33.5625 8.691406 33.566406 8.691406 C 36.601562 9.515625 36.402344 11.804688 36.328125 12.273438 C 36.238281 12.296875 36.140625 12.320312 36.027344 12.34375 C 35.960938 12.355469 35.914062 12.414062 35.914062 12.476562 L 35.902344 13.089844 " fill-opacity="1" fill-rule="nonzero"/><path fill="#6e6e95" d="M 32.945312 8.507812 C 31.957031 8.507812 30.15625 8.8125 29.875 10.996094 C 29.875 10.996094 30 11.070312 30.222656 11.191406 L 30.25 13.386719 C 30.25 13.386719 30.710938 13.3125 31.078125 11.605469 C 32.074219 12.054688 33.5625 12.578125 35.023438 12.578125 C 35.175781 12.578125 35.328125 12.574219 35.480469 12.558594 C 35.769531 13.34375 36.039062 13.386719 36.039062 13.386719 L 36.054688 12.480469 C 36.1875 12.453125 36.320312 12.425781 36.453125 12.382812 C 36.453125 12.382812 37.089844 9.5 33.589844 8.550781 C 33.589844 8.550781 33.328125 8.507812 32.945312 8.507812 Z M 32.945312 8.789062 C 33.253906 8.789062 33.480469 8.820312 33.53125 8.828125 C 36.273438 9.578125 36.269531 11.570312 36.203125 12.160156 C 36.140625 12.175781 36.074219 12.1875 36 12.203125 C 35.867188 12.230469 35.773438 12.34375 35.769531 12.476562 L 35.769531 12.53125 C 35.761719 12.507812 35.753906 12.484375 35.746094 12.460938 C 35.703125 12.351562 35.597656 12.277344 35.480469 12.277344 C 35.472656 12.277344 35.464844 12.277344 35.457031 12.277344 C 35.316406 12.289062 35.171875 12.292969 35.023438 12.292969 C 33.609375 12.292969 32.160156 11.78125 31.195312 11.347656 C 31.15625 11.335938 31.117188 11.324219 31.078125 11.324219 C 31.035156 11.324219 30.992188 11.335938 30.949219 11.355469 C 30.875 11.394531 30.820312 11.464844 30.800781 11.546875 C 30.707031 11.980469 30.609375 12.296875 30.519531 12.527344 L 30.5 11.1875 C 30.5 11.082031 30.441406 10.988281 30.351562 10.9375 C 30.285156 10.90625 30.230469 10.875 30.179688 10.847656 C 30.488281 9.152344 31.84375 8.789062 32.945312 8.789062 " fill-opacity="1" fill-rule="nonzero"/><path fill="#ffffff" d="M 33.1875 30.121094 C 33.179688 30.046875 33.121094 29.992188 33.046875 29.988281 C 32.972656 29.988281 32.910156 30.046875 32.902344 30.117188 L 31.46875 45.210938 L 30.097656 45.25 C 30.054688 43.570312 29.65625 27.609375 30.074219 26.117188 C 30.226562 25.578125 30.382812 25.578125 30.445312 25.578125 C 30.59375 25.578125 30.820312 25.710938 31.078125 25.863281 C 31.550781 26.140625 32.199219 26.523438 33.082031 26.523438 C 33.96875 26.523438 34.578125 26.160156 35.023438 25.890625 C 35.257812 25.75 35.464844 25.625 35.613281 25.625 C 35.671875 25.625 35.835938 25.625 36.039062 26.132812 C 36.511719 27.289062 36.011719 39.050781 35.671875 45.222656 L 34.246094 45.378906 L 33.1875 30.121094 " fill-opacity="1" fill-rule="nonzero"/><path fill="#6e6e95" d="M 30.445312 25.4375 C 30.234375 25.4375 30.070312 25.605469 29.9375 26.082031 C 29.492188 27.683594 29.960938 45.394531 29.960938 45.394531 L 31.597656 45.351562 L 33.046875 30.128906 L 34.117188 45.535156 L 35.808594 45.351562 C 35.808594 45.351562 36.78125 27.578125 36.171875 26.082031 C 35.992188 25.640625 35.820312 25.484375 35.613281 25.484375 C 35.117188 25.484375 34.441406 26.382812 33.082031 26.382812 C 31.726562 26.382812 30.945312 25.4375 30.445312 25.4375 Z M 30.445312 25.722656 C 30.554688 25.722656 30.785156 25.855469 31.003906 25.984375 C 31.492188 26.273438 32.164062 26.664062 33.082031 26.664062 C 34.007812 26.664062 34.636719 26.289062 35.097656 26.011719 C 35.308594 25.886719 35.507812 25.765625 35.613281 25.765625 C 35.695312 25.765625 35.800781 25.921875 35.910156 26.1875 C 36.335938 27.230469 35.925781 37.972656 35.539062 45.097656 L 34.378906 45.222656 L 33.324219 30.109375 C 33.316406 29.964844 33.195312 29.847656 33.046875 29.847656 C 32.898438 29.847656 32.777344 29.957031 32.765625 30.101562 L 31.339844 45.074219 L 30.234375 45.101562 C 30.070312 38.917969 29.871094 27.375 30.210938 26.15625 C 30.285156 25.886719 30.375 25.722656 30.445312 25.722656 " fill-opacity="1" fill-rule="nonzero"/><path fill="#ffffff" d="M 29.824219 34.40625 C 29.828125 28.28125 29.964844 26.515625 30.074219 26.117188 C 30.226562 25.578125 30.382812 25.578125 30.445312 25.578125 C 30.59375 25.578125 30.820312 25.710938 31.078125 25.863281 C 31.550781 26.140625 32.199219 26.523438 33.082031 26.523438 C 33.96875 26.523438 34.578125 26.160156 35.023438 25.890625 C 35.257812 25.75 35.464844 25.625 35.613281 25.625 C 35.671875 25.625 35.835938 25.625 36.039062 26.132812 C 36.273438 26.707031 36.378906 29.488281 36.347656 34.40625 L 29.824219 34.40625 " fill-opacity="1" fill-rule="nonzero"/><path fill="#6e6e95" d="M 30.445312 25.4375 C 30.234375 25.4375 30.070312 25.605469 29.9375 26.082031 C 29.742188 26.777344 29.6875 30.527344 29.683594 34.546875 L 36.488281 34.546875 C 36.511719 30.511719 36.460938 26.792969 36.171875 26.082031 C 35.992188 25.640625 35.820312 25.484375 35.613281 25.484375 C 35.117188 25.484375 34.441406 26.382812 33.082031 26.382812 C 31.726562 26.382812 30.945312 25.4375 30.445312 25.4375 Z M 30.445312 25.722656 C 30.554688 25.722656 30.785156 25.855469 31.003906 25.984375 C 31.492188 26.273438 32.164062 26.664062 33.082031 26.664062 C 34.007812 26.664062 34.636719 26.289062 35.097656 26.011719 C 35.308594 25.886719 35.507812 25.765625 35.613281 25.765625 C 35.695312 25.765625 35.800781 25.921875 35.910156 26.1875 C 36.066406 26.566406 36.238281 28.28125 36.207031 34.261719 L 29.964844 34.261719 C 29.972656 28.269531 30.101562 26.542969 30.210938 26.15625 C 30.285156 25.886719 30.375 25.722656 30.445312 25.722656 " fill-opacity="1" fill-rule="nonzero"/><path fill="#ffffff" d="M 37.246094 29.015625 C 37.183594 29.015625 37.109375 29.007812 37.035156 28.984375 C 36.824219 28.933594 36.722656 28.835938 36.691406 28.652344 C 36.65625 28.453125 36.710938 28.191406 36.773438 27.933594 L 37.960938 23.078125 C 37.972656 23.03125 37.957031 22.980469 37.925781 22.949219 L 34.523438 19.46875 C 34.164062 19.105469 34.171875 18.519531 34.535156 18.160156 C 34.710938 17.988281 34.941406 17.898438 35.183594 17.898438 C 35.433594 17.898438 35.667969 17.996094 35.847656 18.175781 L 39.519531 21.933594 C 39.707031 22.121094 39.800781 22.386719 39.777344 22.65625 C 39.777344 22.667969 39.777344 22.679688 39.777344 22.691406 C 39.753906 23.007812 38.570312 26.304688 37.824219 28.320312 C 37.703125 28.816406 37.535156 29.015625 37.246094 29.015625 " fill-opacity="1" fill-rule="nonzero"/><path fill="#6e6e95" d="M 35.183594 17.757812 C 34.914062 17.757812 34.644531 17.855469 34.4375 18.058594 C 34.015625 18.472656 34.007812 19.148438 34.421875 19.566406 L 37.824219 23.046875 L 36.636719 27.898438 C 36.496094 28.472656 36.425781 28.984375 37 29.121094 C 37.089844 29.144531 37.171875 29.15625 37.246094 29.15625 C 37.648438 29.15625 37.839844 28.851562 37.957031 28.367188 C 37.957031 28.367188 39.992188 22.863281 39.921875 22.667969 C 39.945312 22.371094 39.847656 22.066406 39.625 21.832031 L 35.945312 18.074219 C 35.738281 17.863281 35.460938 17.757812 35.183594 17.757812 Z M 35.183594 18.039062 C 35.398438 18.039062 35.597656 18.121094 35.746094 18.273438 L 39.421875 22.03125 C 39.582031 22.195312 39.660156 22.414062 39.636719 22.644531 C 39.636719 22.660156 39.636719 22.671875 39.636719 22.6875 C 39.574219 23.09375 38.417969 26.3125 37.695312 28.269531 C 37.691406 28.28125 37.6875 28.292969 37.683594 28.300781 C 37.542969 28.875 37.359375 28.875 37.246094 28.875 C 37.195312 28.875 37.132812 28.863281 37.066406 28.851562 C 36.875 28.804688 36.84375 28.714844 36.828125 28.625 C 36.800781 28.457031 36.851562 28.210938 36.910156 27.96875 L 38.097656 23.113281 C 38.121094 23.019531 38.09375 22.917969 38.027344 22.851562 L 34.621094 19.371094 C 34.320312 19.0625 34.328125 18.5625 34.636719 18.261719 C 34.785156 18.117188 34.976562 18.039062 35.183594 18.039062 " fill-opacity="1" fill-rule="nonzero"/><path fill="#ffffff" d="M 33.183594 26.75 C 31.1875 26.75 30.308594 26.1875 30.09375 26.023438 C 30.425781 23.988281 29.929688 20.347656 29.890625 20.082031 C 29.894531 18.046875 30.726562 17.53125 32.082031 17.417969 C 32.152344 17.800781 32.414062 18.34375 33.042969 18.34375 C 33.734375 18.34375 34.054688 17.703125 34.15625 17.433594 C 35.382812 17.570312 36.1875 18.101562 36.1875 20.09375 C 36.171875 20.261719 35.726562 24.46875 36.019531 26.039062 C 35.863281 26.191406 35.164062 26.75 33.183594 26.75 " fill-opacity="1" fill-rule="nonzero"/><path fill="#6e6e95" d="M 32.203125 17.265625 C 30.796875 17.355469 29.75 17.835938 29.75 20.09375 C 29.75 20.09375 30.304688 24.035156 29.9375 26.082031 C 29.9375 26.082031 30.753906 26.890625 33.183594 26.890625 C 35.605469 26.890625 36.171875 26.082031 36.171875 26.082031 C 35.851562 24.574219 36.332031 20.09375 36.332031 20.09375 C 36.332031 17.933594 35.371094 17.402344 34.058594 17.28125 C 34.058594 17.28125 33.804688 18.203125 33.042969 18.203125 C 32.277344 18.203125 32.203125 17.265625 32.203125 17.265625 Z M 31.96875 17.570312 C 32.085938 17.980469 32.390625 18.488281 33.042969 18.488281 C 33.742188 18.488281 34.097656 17.917969 34.246094 17.585938 C 35.359375 17.734375 36.042969 18.25 36.046875 20.078125 C 36.015625 20.402344 35.605469 24.371094 35.867188 25.988281 C 35.652344 26.164062 34.945312 26.605469 33.183594 26.605469 C 31.390625 26.605469 30.527344 26.148438 30.246094 25.960938 C 30.550781 23.914062 30.078125 20.40625 30.03125 20.074219 C 30.039062 18.203125 30.742188 17.699219 31.96875 17.570312 " fill-opacity="1" fill-rule="nonzero"/><path fill="#ffffff" d="M 33.683594 45.648438 C 33.679688 45.613281 33.679688 45.582031 33.679688 45.554688 C 33.679688 44.777344 34.3125 44.144531 35.089844 44.144531 C 35.867188 44.144531 36.5 44.777344 36.5 45.554688 C 36.5 45.582031 36.496094 45.613281 36.492188 45.648438 L 33.683594 45.648438 " fill-opacity="1" fill-rule="nonzero"/><path fill="#6e6e95" d="M 35.089844 44.003906 C 34.230469 44.003906 33.539062 44.695312 33.539062 45.554688 C 33.539062 45.632812 33.546875 45.714844 33.558594 45.789062 L 36.621094 45.789062 C 36.632812 45.714844 36.640625 45.632812 36.640625 45.554688 C 36.640625 44.695312 35.945312 44.003906 35.089844 44.003906 Z M 35.089844 44.285156 C 35.773438 44.285156 36.332031 44.828125 36.355469 45.507812 L 33.820312 45.507812 C 33.847656 44.828125 34.40625 44.285156 35.089844 44.285156 " fill-opacity="1" fill-rule="nonzero"/><path fill="#ffffff" d="M 29.445312 45.648438 C 29.441406 45.613281 29.441406 45.585938 29.441406 45.554688 C 29.441406 44.777344 30.070312 44.144531 30.847656 44.144531 C 31.625 44.144531 32.261719 44.777344 32.261719 45.554688 C 32.261719 45.585938 32.257812 45.613281 32.253906 45.648438 L 29.445312 45.648438 " fill-opacity="1" fill-rule="nonzero"/><path fill="#6e6e95" d="M 30.847656 44.003906 C 29.992188 44.003906 29.296875 44.695312 29.296875 45.554688 C 29.296875 45.632812 29.304688 45.714844 29.320312 45.789062 L 32.378906 45.789062 C 32.390625 45.714844 32.402344 45.632812 32.402344 45.554688 C 32.402344 44.695312 31.707031 44.003906 30.847656 44.003906 Z M 30.847656 44.285156 C 31.535156 44.285156 32.089844 44.828125 32.117188 45.507812 L 29.582031 45.507812 C 29.605469 44.828125 30.167969 44.285156 30.847656 44.285156 " fill-opacity="1" fill-rule="nonzero"/><path fill="#ffffff" d="M 16.867188 28.78125 L 16.078125 18.820312 C 16.078125 16.660156 17.371094 16.152344 19.3125 16.054688 C 19.386719 16.050781 19.445312 15.988281 19.445312 15.914062 L 19.445312 14.4375 L 21.402344 14.4375 L 21.402344 15.90625 C 21.402344 15.980469 21.460938 16.046875 21.539062 16.046875 C 23.597656 16.132812 24.878906 16.632812 24.878906 18.832031 L 24.128906 28.78125 L 16.867188 28.78125 " fill-opacity="1" fill-rule="nonzero"/><path fill="#6e6e95" d="M 21.542969 14.296875 L 19.304688 14.296875 L 19.304688 15.914062 C 17.371094 16.007812 15.9375 16.507812 15.9375 18.832031 L 16.738281 28.921875 L 24.257812 28.921875 L 25.019531 18.832031 C 25.019531 16.464844 23.53125 15.992188 21.542969 15.90625 Z M 21.261719 14.578125 L 21.261719 15.90625 C 21.261719 16.058594 21.378906 16.183594 21.53125 16.1875 C 23.507812 16.273438 24.730469 16.742188 24.734375 18.820312 L 23.996094 28.640625 L 16.996094 28.640625 L 16.21875 18.820312 C 16.222656 16.761719 17.410156 16.289062 19.320312 16.195312 C 19.46875 16.1875 19.585938 16.0625 19.585938 15.914062 L 19.585938 14.578125 L 21.261719 14.578125 " fill-opacity="1" fill-rule="nonzero"/><path fill="#ffffff" d="M 13.285156 31.300781 C 13.265625 31.300781 13.242188 31.300781 13.21875 31.300781 C 12.917969 31.28125 12.710938 31.160156 12.578125 30.925781 C 12.453125 30.714844 12.402344 30.410156 12.421875 30.042969 L 12.46875 23.457031 C 12.472656 23.378906 12.488281 23.292969 12.511719 23.210938 C 12.515625 23.203125 12.515625 23.191406 12.515625 23.183594 C 12.535156 22.976562 12.601562 22.78125 12.71875 22.613281 L 16.429688 17.171875 C 16.652344 16.84375 17.019531 16.648438 17.417969 16.648438 C 17.65625 16.648438 17.890625 16.722656 18.089844 16.855469 C 18.632812 17.226562 18.773438 17.972656 18.40625 18.519531 L 14.859375 23.714844 C 14.847656 23.734375 14.839844 23.757812 14.839844 23.777344 L 14.207031 30.148438 C 14.1875 30.5 14.058594 31.300781 13.285156 31.300781 " fill-opacity="1" fill-rule="nonzero"/><path fill="#6e6e95" d="M 17.417969 16.507812 C 16.988281 16.507812 16.570312 16.710938 16.3125 17.09375 L 12.601562 22.53125 C 12.46875 22.730469 12.394531 22.949219 12.375 23.171875 C 12.351562 23.265625 12.335938 23.359375 12.328125 23.457031 L 12.28125 30.035156 C 12.238281 30.769531 12.472656 31.398438 13.210938 31.441406 C 13.234375 31.441406 13.261719 31.441406 13.285156 31.441406 C 13.972656 31.441406 14.308594 30.871094 14.347656 30.160156 L 14.980469 23.792969 L 18.519531 18.597656 C 18.9375 17.988281 18.777344 17.15625 18.167969 16.738281 C 17.941406 16.585938 17.675781 16.507812 17.417969 16.507812 Z M 17.417969 16.789062 C 17.628906 16.789062 17.835938 16.851562 18.007812 16.972656 C 18.242188 17.132812 18.402344 17.371094 18.453125 17.648438 C 18.503906 17.925781 18.445312 18.207031 18.289062 18.4375 L 14.746094 23.632812 C 14.71875 23.675781 14.703125 23.71875 14.699219 23.765625 L 14.070312 30.132812 C 14.066406 30.136719 14.066406 30.140625 14.066406 30.144531 C 14.042969 30.523438 13.914062 31.160156 13.285156 31.160156 C 13.265625 31.160156 13.246094 31.160156 13.226562 31.160156 C 12.976562 31.144531 12.808594 31.050781 12.699219 30.859375 C 12.589844 30.667969 12.542969 30.390625 12.5625 30.050781 L 12.5625 30.039062 L 12.609375 23.46875 C 12.613281 23.394531 12.628906 23.320312 12.648438 23.246094 C 12.652344 23.230469 12.65625 23.214844 12.65625 23.195312 C 12.671875 23.015625 12.734375 22.839844 12.835938 22.691406 L 16.546875 17.25 C 16.742188 16.960938 17.070312 16.789062 17.417969 16.789062 " fill-opacity="1" fill-rule="nonzero"/><g clip-path="url(#98afc93e50)"><path fill="#ffffff" d="M 20.550781 15.230469 C 18.234375 15.230469 16.855469 13.996094 16.761719 11.851562 C 16.671875 9.671875 17.011719 8.214844 17.800781 7.390625 C 18.550781 6.609375 19.613281 6.503906 20.550781 6.503906 C 21.765625 6.503906 22.652344 6.828125 23.261719 7.5 C 24.050781 8.367188 24.351562 9.824219 24.160156 11.84375 C 23.949219 14.089844 22.734375 15.230469 20.550781 15.230469 " fill-opacity="1" fill-rule="nonzero"/><path fill="#6e6e95" d="M 20.550781 6.363281 C 18.429688 6.363281 16.417969 6.976562 16.621094 11.855469 C 16.726562 14.339844 18.429688 15.371094 20.550781 15.371094 C 22.667969 15.371094 24.066406 14.332031 24.300781 11.855469 C 24.726562 7.351562 22.667969 6.363281 20.550781 6.363281 Z M 20.550781 6.644531 C 21.722656 6.644531 22.578125 6.957031 23.15625 7.59375 C 23.917969 8.429688 24.207031 9.855469 24.019531 11.828125 C 23.8125 14.023438 22.675781 15.089844 20.550781 15.089844 C 19.238281 15.089844 17.023438 14.667969 16.90625 11.84375 C 16.8125 9.707031 17.140625 8.285156 17.902344 7.488281 C 18.617188 6.746094 19.640625 6.644531 20.550781 6.644531 " fill-opacity="1" fill-rule="nonzero"/></g><path fill="#ffffff" d="M 17.386719 12.570312 C 17.113281 12.570312 16.886719 12.34375 16.886719 12.070312 L 16.886719 11.816406 C 16.886719 11.542969 17.113281 11.320312 17.386719 11.320312 C 17.660156 11.320312 17.886719 11.542969 17.886719 11.816406 L 17.886719 12.070312 C 17.886719 12.34375 17.660156 12.570312 17.386719 12.570312 " fill-opacity="1" fill-rule="nonzero"/><path fill="#6e6e95" d="M 17.386719 11.179688 C 17.03125 11.179688 16.746094 11.464844 16.746094 11.816406 L 16.746094 12.070312 C 16.746094 12.425781 17.03125 12.710938 17.386719 12.710938 C 17.738281 12.710938 18.027344 12.425781 18.027344 12.070312 L 18.027344 11.816406 C 18.027344 11.464844 17.738281 11.179688 17.386719 11.179688 Z M 17.386719 11.460938 C 17.582031 11.460938 17.742188 11.621094 17.742188 11.816406 L 17.742188 12.070312 C 17.742188 12.269531 17.582031 12.425781 17.386719 12.425781 C 17.1875 12.425781 17.027344 12.269531 17.027344 12.070312 L 17.027344 11.816406 C 17.027344 11.621094 17.1875 11.460938 17.386719 11.460938 " fill-opacity="1" fill-rule="nonzero"/><path fill="#ffffff" d="M 23.589844 12.570312 C 23.3125 12.570312 23.089844 12.34375 23.089844 12.070312 L 23.089844 11.816406 C 23.089844 11.542969 23.3125 11.320312 23.589844 11.320312 C 23.863281 11.320312 24.089844 11.542969 24.089844 11.816406 L 24.089844 12.070312 C 24.089844 12.34375 23.863281 12.570312 23.589844 12.570312 " fill-opacity="1" fill-rule="nonzero"/><path fill="#6e6e95" d="M 23.589844 11.179688 C 23.234375 11.179688 22.949219 11.464844 22.949219 11.816406 L 22.949219 12.070312 C 22.949219 12.425781 23.234375 12.710938 23.589844 12.710938 C 23.941406 12.710938 24.230469 12.425781 24.230469 12.070312 L 24.230469 11.816406 C 24.230469 11.464844 23.941406 11.179688 23.589844 11.179688 Z M 23.589844 11.460938 C 23.785156 11.460938 23.949219 11.621094 23.949219 11.816406 L 23.949219 12.070312 C 23.949219 12.269531 23.785156 12.425781 23.589844 12.425781 C 23.390625 12.425781 23.230469 12.269531 23.230469 12.070312 L 23.230469 11.816406 C 23.230469 11.621094 23.390625 11.460938 23.589844 11.460938 " fill-opacity="1" fill-rule="nonzero"/><g clip-path="url(#98ad61ca8d)"><path fill="#ffffff" d="M 20.460938 15.359375 C 18.816406 15.359375 17.476562 14.019531 17.476562 12.375 L 17.476562 9.980469 C 17.476562 8.335938 18.816406 6.996094 20.460938 6.996094 C 22.105469 6.996094 23.445312 8.335938 23.445312 9.980469 L 23.445312 12.375 C 23.445312 14.019531 22.105469 15.359375 20.460938 15.359375 " fill-opacity="1" fill-rule="nonzero"/><path fill="#6e6e95" d="M 20.460938 6.855469 C 18.734375 6.855469 17.335938 8.253906 17.335938 9.980469 L 17.335938 12.375 C 17.335938 14.101562 18.734375 15.5 20.460938 15.5 C 22.1875 15.5 23.589844 14.101562 23.589844 12.375 L 23.589844 9.980469 C 23.589844 8.253906 22.1875 6.855469 20.460938 6.855469 Z M 20.460938 7.136719 C 22.03125 7.136719 23.304688 8.414062 23.304688 9.980469 L 23.304688 12.375 C 23.304688 13.941406 22.03125 15.21875 20.460938 15.21875 C 18.894531 15.21875 17.617188 13.941406 17.617188 12.375 L 17.617188 9.980469 C 17.617188 8.414062 18.894531 7.136719 20.460938 7.136719 " fill-opacity="1" fill-rule="nonzero"/></g><g clip-path="url(#c76717a9b8)"><path fill="#ffffff" d="M 23.53125 10.9375 C 23.148438 10.558594 22.136719 9.449219 21.910156 8.152344 C 21.898438 8.082031 21.839844 8.035156 21.773438 8.035156 C 21.765625 8.035156 21.757812 8.035156 21.75 8.035156 C 21.675781 8.046875 21.621094 8.117188 21.632812 8.195312 C 21.660156 8.382812 21.707031 9.273438 20.242188 9.699219 C 20.585938 9.242188 21.0625 8.46875 20.738281 8.0625 C 20.714844 8.027344 20.671875 8.007812 20.628906 8.007812 C 20.585938 8.007812 20.546875 8.027344 20.519531 8.058594 C 20.511719 8.074219 19.457031 9.34375 17.722656 9.65625 C 17.660156 9.667969 17.613281 9.71875 17.605469 9.78125 C 17.605469 9.789062 17.546875 10.351562 17.328125 10.871094 C 16.984375 10.183594 16.210938 8.136719 18.316406 6.734375 C 18.324219 6.726562 19.023438 6.269531 20.226562 6.269531 C 21.105469 6.269531 22.027344 6.507812 22.972656 6.980469 C 24.535156 7.761719 23.789062 10.226562 23.53125 10.9375 " fill-opacity="1" fill-rule="nonzero"/></g><g clip-path="url(#f420941f00)"><path fill="#6e6e95" d="M 20.226562 6.128906 C 18.960938 6.128906 18.238281 6.617188 18.238281 6.617188 C 15.578125 8.386719 17.335938 11.179688 17.335938 11.179688 C 17.667969 10.574219 17.746094 9.796875 17.746094 9.796875 C 19.558594 9.472656 20.628906 8.148438 20.628906 8.148438 C 21.007812 8.625 19.871094 9.933594 19.871094 9.933594 C 21.886719 9.535156 21.800781 8.363281 21.773438 8.175781 C 21.769531 8.167969 21.769531 8.160156 21.769531 8.148438 C 21.769531 8.148438 21.769531 8.160156 21.773438 8.175781 C 22.066406 9.851562 23.589844 11.1875 23.589844 11.1875 C 23.589844 11.1875 25.003906 7.839844 23.03125 6.855469 C 21.929688 6.300781 20.980469 6.128906 20.226562 6.128906 Z M 20.226562 6.410156 C 21.082031 6.410156 21.984375 6.644531 22.90625 7.105469 C 24.242188 7.777344 23.753906 9.804688 23.472656 10.675781 C 23.03125 10.207031 22.246094 9.238281 22.054688 8.132812 C 22.050781 8.105469 22.042969 8.089844 22.042969 8.089844 C 22.011719 7.957031 21.898438 7.867188 21.769531 7.867188 C 21.75 7.867188 21.734375 7.871094 21.714844 7.875 C 21.566406 7.902344 21.464844 8.046875 21.488281 8.195312 L 21.492188 8.214844 C 21.515625 8.363281 21.546875 9 20.609375 9.417969 C 20.910156 8.9375 21.148438 8.347656 20.851562 7.972656 C 20.796875 7.90625 20.71875 7.867188 20.628906 7.867188 C 20.542969 7.867188 20.460938 7.90625 20.410156 7.972656 C 20.398438 7.984375 19.378906 9.21875 17.695312 9.515625 C 17.574219 9.539062 17.480469 9.640625 17.464844 9.765625 C 17.464844 9.773438 17.429688 10.109375 17.3125 10.492188 C 16.980469 9.65625 16.644531 8.019531 18.398438 6.851562 C 18.402344 6.847656 19.074219 6.410156 20.226562 6.410156 " fill-opacity="1" fill-rule="nonzero"/></g><path fill="#ffffff" d="M 16.867188 28.78125 L 16.078125 18.820312 C 16.078125 16.703125 17.347656 16.242188 18.761719 16.097656 C 18.839844 16.875 19.382812 17.660156 20.457031 17.660156 C 21.535156 17.660156 22.074219 16.875 22.152344 16.089844 C 23.585938 16.230469 24.878906 16.691406 24.878906 18.832031 L 24.128906 28.78125 L 16.867188 28.78125 " fill-opacity="1" fill-rule="nonzero"/><path fill="#6e6e95" d="M 22.019531 15.9375 C 22.003906 16.734375 21.484375 17.515625 20.457031 17.515625 C 19.433594 17.515625 18.910156 16.738281 18.890625 15.941406 C 17.171875 16.09375 15.9375 16.675781 15.9375 18.832031 L 16.738281 28.921875 L 24.257812 28.921875 L 25.019531 18.832031 C 25.019531 16.65625 23.761719 16.082031 22.019531 15.9375 Z M 22.273438 16.246094 C 23.761719 16.417969 24.730469 16.964844 24.734375 18.820312 L 23.996094 28.640625 L 16.996094 28.640625 L 16.21875 18.820312 C 16.222656 16.976562 17.175781 16.429688 18.640625 16.25 C 18.773438 17.046875 19.359375 17.800781 20.457031 17.800781 C 21.558594 17.800781 22.144531 17.042969 22.273438 16.246094 " fill-opacity="1" fill-rule="nonzero"/><path fill="#ffffff" d="M 21.324219 44.867188 L 20.625 32.117188 C 20.617188 32.042969 20.558594 31.984375 20.484375 31.984375 C 20.410156 31.984375 20.347656 32.042969 20.34375 32.117188 L 19.640625 44.867188 L 16.101562 44.867188 L 16.882812 29.292969 C 16.902344 29.265625 16.914062 29.230469 16.910156 29.199219 C 16.910156 29.199219 16.898438 29.085938 16.898438 29.0625 L 24.109375 29.0625 C 24.109375 29.085938 24.097656 29.199219 24.097656 29.199219 C 24.09375 29.230469 24.105469 29.265625 24.121094 29.292969 L 24.863281 44.867188 L 21.324219 44.867188 " fill-opacity="1" fill-rule="nonzero"/><path fill="#6e6e95" d="M 24.257812 28.921875 L 16.75 28.921875 C 16.75 29.023438 16.761719 29.117188 16.769531 29.210938 L 16.75 29.199219 L 15.953125 45.007812 L 19.773438 45.007812 L 20.484375 32.125 L 21.191406 45.007812 L 25.011719 45.007812 L 24.257812 29.199219 L 24.238281 29.210938 C 24.246094 29.117188 24.257812 29.023438 24.257812 28.921875 Z M 24.257812 28.921875 L 24.261719 28.921875 Z M 23.953125 29.203125 C 23.953125 29.25 23.964844 29.292969 23.980469 29.332031 L 24.714844 44.726562 L 21.457031 44.726562 L 20.765625 32.109375 C 20.757812 31.960938 20.632812 31.84375 20.484375 31.84375 C 20.332031 31.84375 20.207031 31.960938 20.203125 32.109375 L 19.507812 44.726562 L 16.25 44.726562 L 17.023438 29.332031 C 17.042969 29.292969 17.054688 29.25 17.050781 29.203125 L 23.953125 29.203125 " fill-opacity="1" fill-rule="nonzero"/><path fill="#ffffff" d="M 21.332031 45.648438 C 21.328125 45.589844 21.324219 45.535156 21.324219 45.480469 C 21.324219 44.421875 22.183594 43.5625 23.238281 43.5625 C 24.292969 43.5625 25.152344 44.421875 25.152344 45.480469 C 25.152344 45.535156 25.152344 45.589844 25.144531 45.648438 L 21.332031 45.648438 " fill-opacity="1" fill-rule="nonzero"/><path fill="#6e6e95" d="M 23.238281 43.421875 C 22.105469 43.421875 21.179688 44.34375 21.179688 45.480469 C 21.179688 45.585938 21.191406 45.6875 21.207031 45.789062 L 25.269531 45.789062 C 25.285156 45.6875 25.292969 45.585938 25.292969 45.480469 C 25.292969 44.34375 24.375 43.421875 23.238281 43.421875 Z M 23.238281 43.707031 C 24.214844 43.707031 25.011719 44.5 25.011719 45.480469 L 25.011719 45.507812 L 21.464844 45.507812 L 21.464844 45.480469 C 21.464844 44.5 22.257812 43.707031 23.238281 43.707031 " fill-opacity="1" fill-rule="nonzero"/><path fill="#ffffff" d="M 15.707031 45.648438 C 15.703125 45.589844 15.699219 45.535156 15.699219 45.480469 C 15.699219 44.421875 16.558594 43.5625 17.613281 43.5625 C 18.671875 43.5625 19.53125 44.421875 19.53125 45.480469 C 19.53125 45.535156 19.527344 45.589844 19.523438 45.648438 L 15.707031 45.648438 " fill-opacity="1" fill-rule="nonzero"/><path fill="#6e6e95" d="M 17.613281 43.421875 C 16.480469 43.421875 15.558594 44.34375 15.558594 45.480469 C 15.558594 45.585938 15.570312 45.6875 15.582031 45.789062 L 19.644531 45.789062 C 19.660156 45.6875 19.671875 45.585938 19.671875 45.480469 C 19.671875 44.34375 18.75 43.421875 17.613281 43.421875 Z M 17.613281 43.707031 C 18.59375 43.707031 19.390625 44.5 19.390625 45.480469 C 19.390625 45.488281 19.390625 45.5 19.386719 45.507812 L 15.839844 45.507812 L 15.839844 45.480469 C 15.839844 44.5 16.636719 43.707031 17.613281 43.707031 " fill-opacity="1" fill-rule="nonzero"/><path fill="#ffffff" d="M 36.890625 23.332031 C 36.628906 23.332031 36.386719 23.226562 36.199219 23.042969 C 36.015625 22.859375 35.917969 22.613281 35.917969 22.355469 C 35.917969 22.09375 36.019531 21.851562 36.203125 21.667969 L 40.097656 17.796875 C 40.28125 17.613281 40.523438 17.515625 40.785156 17.515625 C 41.046875 17.515625 41.289062 17.617188 41.472656 17.800781 C 41.851562 18.183594 41.847656 18.800781 41.46875 19.179688 L 37.574219 23.050781 C 37.394531 23.230469 37.148438 23.332031 36.890625 23.332031 " fill-opacity="1" fill-rule="nonzero"/><path fill="#6e6e95" d="M 40.785156 17.375 C 40.496094 17.375 40.214844 17.480469 39.996094 17.699219 L 36.105469 21.566406 C 35.667969 22 35.667969 22.707031 36.101562 23.144531 C 36.320312 23.363281 36.605469 23.472656 36.890625 23.472656 C 37.175781 23.472656 37.457031 23.363281 37.675781 23.148438 L 41.570312 19.277344 C 42.003906 18.847656 42.007812 18.140625 41.574219 17.703125 C 41.355469 17.484375 41.070312 17.375 40.785156 17.375 Z M 40.785156 17.65625 C 41.007812 17.65625 41.214844 17.742188 41.371094 17.902344 C 41.699219 18.226562 41.695312 18.753906 41.371094 19.078125 L 37.476562 22.949219 C 37.320312 23.105469 37.109375 23.191406 36.890625 23.191406 C 36.667969 23.191406 36.457031 23.101562 36.300781 22.945312 C 36.144531 22.785156 36.058594 22.578125 36.058594 22.355469 C 36.058594 22.132812 36.144531 21.925781 36.304688 21.769531 L 40.195312 17.898438 C 40.351562 17.742188 40.5625 17.65625 40.785156 17.65625 " fill-opacity="1" fill-rule="nonzero"/><path fill="#ffffff" d="M 3.375 23.679688 C 3.351562 23.679688 3.328125 23.679688 3.304688 23.675781 C 2.613281 23.636719 2.085938 23.046875 2.125 22.355469 L 2.796875 15.535156 C 2.820312 15.167969 2.957031 14.324219 3.765625 14.324219 C 3.789062 14.324219 3.8125 14.324219 3.835938 14.328125 C 4.585938 14.371094 4.703125 15.066406 4.671875 15.644531 L 4.621094 22.507812 C 4.585938 23.160156 4.035156 23.679688 3.375 23.679688 " fill-opacity="1" fill-rule="nonzero"/><g clip-path="url(#b3bbb7815e)"><path fill="#6e6e95" d="M 3.765625 14.183594 C 3.050781 14.183594 2.703125 14.78125 2.660156 15.519531 L 1.980469 22.347656 C 1.941406 23.117188 2.527344 23.777344 3.292969 23.820312 C 3.320312 23.820312 3.347656 23.820312 3.375 23.820312 C 4.109375 23.820312 4.722656 23.25 4.765625 22.507812 L 4.8125 15.652344 C 4.855469 14.886719 4.613281 14.230469 3.84375 14.1875 C 3.816406 14.183594 3.792969 14.183594 3.765625 14.183594 Z M 3.765625 14.46875 C 3.789062 14.46875 3.808594 14.46875 3.828125 14.46875 C 4.335938 14.496094 4.574219 14.890625 4.53125 15.636719 C 4.53125 15.640625 4.53125 15.648438 4.53125 15.652344 L 4.480469 22.496094 C 4.445312 23.082031 3.960938 23.539062 3.375 23.539062 C 3.355469 23.539062 3.332031 23.539062 3.3125 23.535156 C 2.703125 23.503906 2.234375 22.980469 2.265625 22.371094 L 2.9375 15.550781 C 2.941406 15.546875 2.941406 15.542969 2.941406 15.539062 C 2.957031 15.214844 3.078125 14.46875 3.765625 14.46875 " fill-opacity="1" fill-rule="nonzero"/></g></svg>