<svg xmlns="http://www.w3.org/2000/svg" xmlns:xlink="http://www.w3.org/1999/xlink" width="500" zoomAndPan="magnify" viewBox="0 0 375 374.999991" height="500" preserveAspectRatio="xMidYMid meet" version="1.0"><defs><clipPath id="cc39712840"><path d="M 118.269531 97 L 156 97 L 156 125.371094 L 118.269531 125.371094 Z M 118.269531 97 " clip-rule="nonzero"/></clipPath><clipPath id="2ed900b401"><path d="M 184 60.871094 L 193 60.871094 L 193 107 L 184 107 Z M 184 60.871094 " clip-rule="nonzero"/></clipPath></defs><rect x="-37.5" width="450" fill="#ffffff" y="-37.499999" height="449.999989" fill-opacity="1"/><rect x="-37.5" width="450" fill="#ffffff" y="-37.499999" height="449.999989" fill-opacity="1"/><path fill="#6e6e95" d="M 149.144531 191.511719 C 147.460938 191.46875 146.078125 192.824219 146.078125 194.503906 C 146.078125 196.1875 147.460938 197.542969 149.144531 197.496094 L 225.558594 197.496094 C 227.242188 197.542969 228.625 196.183594 228.625 194.503906 C 228.625 192.824219 227.242188 191.46875 225.558594 191.511719 Z M 149.144531 191.511719 " fill-opacity="1" fill-rule="nonzero"/><path fill="#6e6e95" d="M 258.71875 170.542969 C 260.359375 170.574219 261.671875 171.921875 261.664062 173.5625 L 261.664062 201.613281 C 261.664062 205.589844 261.550781 209.238281 260.160156 212.621094 C 258.773438 215.996094 255.875 218.800781 251.601562 220.417969 L 251.136719 220.59375 L 251.136719 240.28125 C 255.335938 241.136719 259.042969 243.71875 261.238281 247.511719 C 262.0625 248.941406 261.570312 250.78125 260.140625 251.609375 C 258.707031 252.433594 256.871094 251.949219 256.042969 250.511719 C 254.40625 247.675781 251.40625 245.929688 248.136719 245.929688 C 244.867188 245.929688 241.855469 247.675781 240.222656 250.511719 C 239.414062 251.988281 237.546875 252.507812 236.085938 251.660156 C 234.636719 250.828125 234.152344 248.949219 235.035156 247.507812 C 237.226562 243.71875 240.933594 241.132812 245.132812 240.28125 L 245.132812 222.859375 L 237.839844 225.621094 C 236.273438 226.308594 234.441406 225.546875 233.835938 223.949219 C 233.222656 222.34375 234.089844 220.558594 235.714844 220.027344 L 249.492188 214.824219 C 252.632812 213.644531 253.804688 212.324219 254.621094 210.34375 C 255.4375 208.355469 255.671875 205.402344 255.671875 201.613281 L 255.671875 173.5625 C 255.652344 171.878906 257.027344 170.515625 258.71875 170.542969 Z M 258.71875 170.542969 " fill-opacity="1" fill-rule="nonzero"/><path fill="#6e6e95" d="M 116.28125 170.542969 C 114.636719 170.574219 113.316406 171.921875 113.335938 173.5625 L 113.335938 201.613281 C 113.335938 205.589844 113.449219 209.238281 114.832031 212.621094 C 116.226562 215.996094 119.113281 218.800781 123.390625 220.417969 L 123.863281 220.59375 L 123.863281 240.28125 C 119.660156 241.136719 115.957031 243.71875 113.761719 247.511719 C 112.9375 248.941406 113.417969 250.78125 114.859375 251.609375 C 116.289062 252.433594 118.121094 251.949219 118.945312 250.511719 C 120.582031 247.675781 123.59375 245.929688 126.867188 245.929688 C 130.136719 245.929688 133.144531 247.675781 134.78125 250.511719 C 135.585938 251.988281 137.449219 252.507812 138.90625 251.660156 C 140.363281 250.828125 140.839844 248.949219 139.960938 247.507812 C 137.769531 243.71875 134.0625 241.132812 129.863281 240.28125 L 129.863281 222.859375 L 137.160156 225.621094 C 138.71875 226.308594 140.546875 225.546875 141.160156 223.949219 C 141.765625 222.34375 140.910156 220.558594 139.277344 220.027344 L 125.496094 214.824219 C 122.367188 213.644531 121.1875 212.324219 120.378906 210.34375 C 119.5625 208.355469 119.320312 205.402344 119.320312 201.613281 L 119.320312 173.5625 C 119.335938 171.878906 117.960938 170.515625 116.28125 170.542969 Z M 116.28125 170.542969 " fill-opacity="1" fill-rule="nonzero"/><path fill="#6e6e95" d="M 252.855469 166.984375 L 252.855469 204.816406 C 252.855469 207.625 251.117188 210.140625 248.460938 211.171875 L 230.027344 218.328125 L 225.304688 246.113281 C 224.082031 255.460938 209.78125 253.113281 211.695312 243.875 L 217.046875 212.289062 C 217.445312 209.933594 219.0625 207.957031 221.3125 207.085938 L 232.320312 202.8125 L 232.320312 180.335938 L 228.046875 185.875 C 226.941406 186.949219 225.457031 187.554688 223.894531 187.554688 L 208.769531 187.554688 C 200.898438 187.554688 200.898438 175.914062 208.769531 175.914062 L 221.488281 175.914062 L 233.167969 163.175781 C 234.988281 161.1875 236.929688 159.636719 239.234375 159.636719 L 245.933594 159.636719 C 250.449219 159.636719 252.855469 163.761719 252.855469 166.984375 Z M 252.855469 166.984375 " fill-opacity="1" fill-rule="nonzero"/><path fill="#6e6e95" d="M 159.296875 158.847656 C 157.921875 158.847656 156.835938 159.386719 156.085938 160.148438 L 149.648438 166.632812 L 154.839844 172.289062 L 165.921875 172.289062 C 168.8125 172.289062 171.445312 173.488281 173.105469 175.332031 C 174.761719 177.167969 175.511719 179.464844 175.511719 181.722656 C 175.511719 183.878906 174.824219 186.058594 173.339844 187.851562 L 183.425781 187.851562 L 183.566406 173.683594 L 190.03125 178.65625 C 191.796875 180.019531 194.40625 180.09375 195.902344 178.449219 L 205.457031 167.914062 C 205.707031 167.691406 206.03125 167.5625 206.363281 167.570312 L 211.550781 167.570312 C 213.261719 167.570312 214.382812 167.144531 215.070312 166.605469 C 215.75 166.066406 216.039062 165.433594 216.046875 164.726562 C 216.054688 163.308594 214.765625 161.375 211.410156 160.640625 L 204.636719 158.976562 C 203.511719 158.984375 202.433594 159.394531 201.617188 160.148438 L 193.488281 168.589844 C 193.015625 169.027344 192.273438 169.058594 191.761719 168.648438 L 180.851562 160.148438 C 179.878906 159.386719 178.875 158.847656 177.480469 158.847656 Z M 159.296875 158.847656 " fill-opacity="1" fill-rule="nonzero"/><path fill="#6e6e95" d="M 155.832031 200.925781 L 166.0625 215.429688 L 166.0625 233.910156 C 166.0625 242.1875 179.234375 242.1875 179.234375 233.910156 L 179.234375 214.84375 L 174.988281 207.59375 C 174.304688 206.082031 175.460938 205.550781 176.382812 206.777344 L 181.695312 213.808594 C 181.820312 214.015625 181.882812 214.238281 181.882812 214.480469 L 181.882812 233.90625 C 181.882812 242.183594 194.9375 242.183594 194.9375 233.90625 L 194.9375 213.121094 C 194.9375 211.625 194.425781 210.160156 193.488281 208.980469 L 187.878906 200.921875 L 155.832031 200.921875 Z M 155.832031 200.925781 " fill-opacity="1" fill-rule="nonzero"/><path fill="#6e6e95" d="M 180.507812 146.082031 C 177.71875 152.445312 170.242188 155.375 163.785156 152.625 C 157.347656 149.890625 154.382812 142.496094 157.160156 136.152344 C 159.949219 129.785156 167.425781 126.859375 173.863281 129.601562 C 180.320312 132.347656 183.285156 139.726562 180.507812 146.082031 Z M 180.507812 146.082031 " fill-opacity="1" fill-rule="evenodd"/><path fill="#6e6e95" d="M 121.847656 166.984375 L 121.847656 204.816406 C 121.847656 207.625 123.585938 210.140625 126.230469 211.171875 L 144.675781 218.328125 L 149.394531 246.113281 C 150.613281 255.460938 164.921875 253.113281 163.007812 243.875 L 157.65625 212.289062 C 157.246094 209.933594 155.628906 207.957031 153.378906 207.085938 L 142.378906 202.8125 L 142.378906 180.335938 L 146.644531 185.875 C 147.75 186.949219 149.246094 187.554688 150.796875 187.554688 L 165.929688 187.554688 C 173.792969 187.554688 173.792969 175.914062 165.929688 175.914062 L 153.214844 175.914062 L 141.535156 163.175781 C 139.707031 161.1875 137.765625 159.636719 135.46875 159.636719 L 128.757812 159.636719 C 124.253906 159.636719 121.847656 163.761719 121.847656 166.984375 Z M 121.847656 166.984375 " fill-opacity="1" fill-rule="nonzero"/><path fill="#6e6e95" d="M 119.652344 147.613281 C 122.628906 154.40625 130.617188 157.527344 137.511719 154.59375 C 144.386719 151.675781 147.546875 143.789062 144.582031 137.015625 C 141.601562 130.222656 133.617188 127.089844 126.753906 130.019531 C 119.847656 132.953125 116.6875 140.824219 119.652344 147.613281 Z M 119.652344 147.613281 " fill-opacity="1" fill-rule="evenodd"/><path fill="#6e6e95" d="M 255.058594 147.613281 C 252.074219 154.40625 244.097656 157.527344 237.199219 154.59375 C 230.328125 151.675781 227.164062 143.789062 230.128906 137.015625 C 233.101562 130.222656 241.09375 127.089844 247.960938 130.019531 C 254.859375 132.953125 258.019531 140.824219 255.058594 147.613281 Z M 255.058594 147.613281 " fill-opacity="1" fill-rule="evenodd"/><path fill="#6e6e95" d="M 207.542969 151.757812 C 206.03125 151.8125 204.476562 151.636719 202.90625 151.230469 C 198.902344 150.152344 195.78125 147.675781 193.851562 144.527344 L 189.667969 145.125 C 188.3125 145.316406 187.785156 144.035156 188.636719 142.949219 L 191.804688 138.898438 C 191.507812 136.871094 191.597656 134.734375 192.167969 132.609375 C 194.351562 124.480469 202.433594 119.628906 210.777344 121.867188 C 219.121094 124.109375 223.699219 132.347656 221.523438 140.476562 C 219.75 147.082031 214.085938 151.527344 207.542969 151.757812 Z M 199.152344 139.402344 C 200.734375 139.402344 202.007812 138.121094 202.007812 136.542969 C 202.007812 134.972656 200.734375 133.6875 199.152344 133.6875 C 197.574219 133.6875 196.292969 134.972656 196.292969 136.542969 C 196.292969 138.121094 197.574219 139.402344 199.152344 139.402344 Z M 206.847656 139.402344 C 208.429688 139.402344 209.699219 138.121094 209.707031 136.542969 C 209.699219 134.972656 208.425781 133.6875 206.847656 133.6875 C 205.265625 133.6875 203.984375 134.972656 203.984375 136.542969 C 203.984375 138.121094 205.265625 139.402344 206.847656 139.402344 Z M 214.542969 139.402344 C 216.109375 139.402344 217.394531 138.121094 217.394531 136.542969 C 217.394531 134.972656 216.109375 133.6875 214.542969 133.6875 C 212.953125 133.6875 211.679688 134.972656 211.679688 136.542969 C 211.679688 138.121094 212.953125 139.402344 214.542969 139.402344 Z M 214.542969 139.402344 " fill-opacity="1" fill-rule="evenodd"/><g clip-path="url(#cc39712840)"><path fill="#000000" d="M 120.980469 97.210938 L 120.917969 97.210938 C 119.210938 97.226562 118.445312 98.132812 118.613281 99.925781 C 118.894531 101.105469 120.242188 102.832031 122.667969 105.105469 C 125.265625 107.378906 130.925781 111.394531 139.648438 117.152344 C 144.414062 120.242188 147.894531 122.421875 150.101562 123.691406 C 152.109375 124.824219 153.222656 125.3125 153.433594 125.144531 C 153.863281 125.222656 154.371094 124.886719 154.957031 124.140625 C 155.230469 123.644531 155.230469 123.132812 154.960938 122.601562 C 154.617188 122 154.011719 121.234375 153.148438 120.300781 C 150.527344 117.671875 148.640625 115.894531 147.488281 114.96875 C 134.1875 103.457031 125.351562 97.539062 120.980469 97.210938 " fill-opacity="1" fill-rule="nonzero"/></g><path fill="#000000" d="M 154.136719 80.71875 L 154.105469 80.71875 C 153.402344 80.796875 152.878906 81.070312 152.535156 81.535156 C 152.304688 81.839844 152.152344 82.226562 152.074219 82.691406 C 152.019531 83.15625 152.015625 83.519531 152.058594 83.78125 C 152.328125 85.730469 153.457031 88.53125 155.445312 92.183594 C 157.003906 95.222656 159.558594 98.730469 163.105469 102.714844 C 164.195312 104.015625 165.75 105.582031 167.769531 107.414062 C 168.527344 108.144531 169.1875 108.515625 169.757812 108.527344 C 170.300781 108.503906 170.726562 108.199219 171.042969 107.613281 C 171.164062 107.351562 171.222656 107.164062 171.222656 107.039062 L 171.246094 106.191406 C 171.234375 105.996094 171.210938 105.855469 171.175781 105.773438 C 169.230469 100.566406 167.269531 96.257812 165.296875 92.851562 C 163.546875 89.867188 161.296875 86.824219 158.542969 83.714844 C 156.777344 81.886719 155.3125 80.886719 154.136719 80.71875 " fill-opacity="1" fill-rule="nonzero"/><g clip-path="url(#2ed900b401)"><path fill="#000000" d="M 189.085938 66.890625 L 189.101562 67.085938 C 189.148438 67.617188 189.1875 68.203125 189.21875 68.84375 L 189.238281 69.261719 L 189.246094 69.742188 L 189.246094 70.3125 L 189.238281 70.972656 L 189.222656 71.726562 L 189.199219 72.566406 L 189.164062 73.496094 L 189.121094 74.519531 L 189.070312 75.628906 L 189.003906 76.8125 C 188.988281 76.242188 188.976562 75.644531 188.964844 75.023438 C 188.957031 74.570312 188.945312 73.75 188.929688 72.5625 C 188.960938 70.457031 189 68.726562 189.039062 67.378906 L 189.054688 66.890625 L 189.085938 66.890625 M 190.921875 95.847656 L 190.871094 95.953125 L 190.8125 96.046875 L 190.746094 96.132812 L 190.671875 96.210938 L 190.589844 96.285156 L 190.5 96.347656 L 190.40625 96.40625 L 190.304688 96.453125 L 190.195312 96.496094 C 190.34375 96.425781 190.476562 96.335938 190.59375 96.226562 C 190.710938 96.117188 190.808594 95.992188 190.890625 95.847656 L 190.921875 95.847656 M 189.058594 60.867188 L 188.953125 60.867188 C 188.15625 60.914062 187.53125 61.273438 187.074219 61.949219 L 186.691406 62.578125 C 186.453125 63.050781 186.230469 63.628906 186.035156 64.3125 C 185.640625 65.679688 185.335938 67.46875 185.121094 69.679688 C 184.933594 71.804688 184.84375 73.695312 184.855469 75.351562 C 184.871094 79.441406 185.035156 83.269531 185.355469 86.835938 C 185.40625 87.488281 185.597656 89.710938 185.933594 93.5 L 187.328125 105.503906 C 187.480469 106.355469 188.007812 106.808594 188.902344 106.871094 C 189.402344 106.855469 189.816406 106.628906 190.132812 106.195312 C 190.285156 105.925781 190.359375 105.753906 190.359375 105.6875 C 190.410156 105.304688 190.414062 105.175781 190.371094 105.304688 C 190.554688 105.0625 190.675781 104.679688 190.730469 104.15625 L 191.066406 95.378906 L 192.152344 75.789062 C 192.265625 73.40625 192.324219 71.5625 192.332031 70.257812 C 192.304688 67.183594 192.035156 64.824219 191.519531 63.1875 C 190.953125 61.660156 190.132812 60.886719 189.058594 60.867188 " fill-opacity="1" fill-rule="nonzero"/></g><path fill="#000000" d="M 188.648438 65.582031 C 187.828125 65.582031 187.144531 66.234375 187.109375 67.066406 C 187.097656 67.320312 187.097656 67.617188 187.101562 67.960938 L 187.105469 67.988281 L 187.179688 70.042969 C 187.191406 70.652344 187.238281 72.308594 187.324219 75.003906 L 187.324219 75.007812 C 187.339844 75.5 187.367188 76.914062 187.40625 79.246094 C 187.410156 79.625 187.425781 80.132812 187.441406 80.773438 C 187.449219 81.238281 187.5 82.570312 187.59375 84.761719 C 187.628906 85.59375 188.3125 86.242188 189.132812 86.242188 C 189.15625 86.242188 189.179688 86.242188 189.203125 86.242188 C 190.050781 86.207031 190.710938 85.484375 190.675781 84.628906 C 190.582031 82.441406 190.53125 81.132812 190.527344 80.710938 L 190.523438 80.691406 C 190.507812 80.070312 190.496094 79.570312 190.488281 79.191406 L 190.488281 79.195312 C 190.453125 76.847656 190.425781 75.421875 190.40625 74.90625 L 190.40625 74.910156 C 190.324219 72.222656 190.277344 70.570312 190.261719 69.953125 L 190.261719 69.929688 L 190.1875 67.902344 C 190.183594 67.621094 190.183594 67.382812 190.191406 67.195312 C 190.226562 66.339844 189.566406 65.621094 188.714844 65.585938 C 188.691406 65.585938 188.671875 65.582031 188.648438 65.582031 Z M 188.648438 65.582031 " fill-opacity="1" fill-rule="nonzero"/><path fill="#000000" d="M 222.007812 81.78125 L 221.886719 81.785156 C 221.28125 81.847656 220.714844 82.117188 220.195312 82.585938 C 219.457031 83.222656 218.566406 84.296875 217.519531 85.816406 C 215.996094 88.214844 214.898438 90.085938 214.222656 91.433594 C 213.359375 93.058594 212.546875 94.714844 211.78125 96.402344 L 210.671875 98.957031 C 209.957031 100.679688 209.292969 102.429688 208.675781 104.214844 L 207.785156 106.917969 L 206.84375 110.089844 C 206.722656 110.597656 206.792969 111.058594 207.058594 111.476562 C 207.488281 111.984375 207.929688 112.238281 208.394531 112.238281 C 208.878906 112.222656 209.339844 111.953125 209.765625 111.425781 L 211.800781 108.785156 C 212.617188 107.65625 213.421875 106.476562 214.21875 105.25 C 216.234375 102.253906 218.75 97.699219 221.761719 91.582031 C 222.664062 89.613281 223.300781 87.957031 223.671875 86.613281 C 223.859375 85.941406 223.980469 85.347656 224.035156 84.832031 L 224.066406 84.121094 C 223.945312 82.671875 223.257812 81.894531 222.007812 81.78125 " fill-opacity="1" fill-rule="nonzero"/><path fill="#000000" d="M 265.867188 96.472656 L 265.320312 96.515625 C 258.324219 98.296875 248.125 103.492188 234.726562 112.09375 L 231.097656 114.546875 L 223.320312 120.144531 C 222.636719 120.980469 222.476562 121.613281 222.835938 122.035156 C 223.242188 122.734375 223.808594 123.054688 224.53125 123 C 224.957031 122.957031 225.484375 122.792969 226.113281 122.507812 C 227.777344 121.703125 229.015625 121.015625 229.816406 120.445312 C 237.125 117.515625 242.847656 114.941406 246.988281 112.722656 C 252.800781 109.753906 257.640625 107.023438 261.507812 104.53125 C 265.160156 102.121094 267.203125 100.425781 267.632812 99.449219 C 268.03125 98.671875 268.035156 97.976562 267.648438 97.359375 C 267.335938 96.800781 266.742188 96.503906 265.867188 96.472656 " fill-opacity="1" fill-rule="nonzero"/></svg>