<svg xmlns="http://www.w3.org/2000/svg" xmlns:xlink="http://www.w3.org/1999/xlink" width="500" zoomAndPan="magnify" viewBox="0 0 375 374.999991" height="500" preserveAspectRatio="xMidYMid meet" version="1.0"><defs><clipPath id="73285acf27"><path d="M 13.3125 10.355469 L 337.3125 10.355469 L 337.3125 334.355469 L 13.3125 334.355469 Z M 13.3125 10.355469 " clip-rule="nonzero"/></clipPath></defs><g clip-path="url(#73285acf27)"><path fill="#c6350e" d="M 289.300781 334.53125 L 61.5 334.53125 C 34.929688 334.53125 13.3125 312.914062 13.3125 286.34375 L 13.3125 58.542969 C 13.3125 31.972656 34.929688 10.355469 61.5 10.355469 L 289.300781 10.355469 C 315.871094 10.355469 337.488281 31.972656 337.488281 58.542969 L 337.488281 286.34375 C 337.488281 312.914062 315.871094 334.53125 289.300781 334.53125 Z M 61.5 27.878906 C 44.59375 27.878906 30.835938 41.632812 30.835938 58.542969 L 30.835938 286.34375 C 30.835938 303.25 44.59375 317.007812 61.5 317.007812 L 289.300781 317.007812 C 306.210938 317.007812 319.964844 303.25 319.964844 286.34375 L 319.964844 58.542969 C 319.964844 41.632812 306.210938 27.878906 289.300781 27.878906 Z M 61.5 27.878906 " fill-opacity="1" fill-rule="nonzero"/></g><path fill="#c6350e" d="M 175.402344 264.4375 C 124.675781 264.4375 83.40625 223.167969 83.40625 172.441406 C 83.40625 121.714844 124.675781 80.445312 175.402344 80.445312 C 226.128906 80.445312 267.398438 121.714844 267.398438 172.441406 C 267.398438 223.167969 226.128906 264.4375 175.402344 264.4375 Z M 175.402344 97.96875 C 134.335938 97.96875 100.929688 131.378906 100.929688 172.441406 C 100.929688 213.507812 134.335938 246.914062 175.402344 246.914062 C 216.464844 246.914062 249.875 213.507812 249.875 172.441406 C 249.875 131.378906 216.464844 97.96875 175.402344 97.96875 Z M 175.402344 97.96875 " fill-opacity="1" fill-rule="nonzero"/><path fill="#c6350e" d="M 271.777344 106.730469 C 254.871094 106.730469 241.113281 92.976562 241.113281 76.066406 C 241.113281 59.15625 254.871094 45.402344 271.777344 45.402344 C 288.6875 45.402344 302.441406 59.15625 302.441406 76.066406 C 302.441406 92.976562 288.6875 106.730469 271.777344 106.730469 Z M 271.777344 62.925781 C 264.53125 62.925781 258.636719 68.820312 258.636719 76.066406 C 258.636719 83.3125 264.53125 89.207031 271.777344 89.207031 C 279.023438 89.207031 284.921875 83.3125 284.921875 76.066406 C 284.921875 68.820312 279.023438 62.925781 271.777344 62.925781 Z M 271.777344 62.925781 " fill-opacity="1" fill-rule="nonzero"/></svg>