<svg xmlns="http://www.w3.org/2000/svg" xmlns:xlink="http://www.w3.org/1999/xlink" width="80" zoomAndPan="magnify" viewBox="0 0 60 52.499999" height="70" preserveAspectRatio="xMidYMid meet" version="1.0"><defs><clipPath id="73e0bdc9dd"><path d="M 0.28125 0 L 59.714844 0 L 59.714844 52.003906 L 0.28125 52.003906 Z M 0.28125 0 " clip-rule="nonzero"/></clipPath><clipPath id="f71504e7cc"><path d="M 8 8.867188 L 58.972656 8.867188 L 58.972656 27 L 8 27 Z M 8 8.867188 " clip-rule="nonzero"/></clipPath><clipPath id="15fda57928"><path d="M 1.769531 40 L 11 40 L 11 48.242188 L 1.769531 48.242188 Z M 1.769531 40 " clip-rule="nonzero"/></clipPath><clipPath id="b040ae77b3"><path d="M 13 28 L 21 28 L 21 48.242188 L 13 48.242188 Z M 13 28 " clip-rule="nonzero"/></clipPath><clipPath id="098f83f5b8"><path d="M 21 34 L 28 34 L 28 48.242188 L 21 48.242188 Z M 21 34 " clip-rule="nonzero"/></clipPath><clipPath id="5943b53492"><path d="M 40.550781 28.242188 L 51.695312 28.242188 L 51.695312 40.871094 L 40.550781 40.871094 Z M 40.550781 28.242188 " clip-rule="nonzero"/></clipPath></defs><g clip-path="url(#73e0bdc9dd)"><path fill="#ffffff" d="M 0.28125 0 L 59.71875 0 L 59.71875 52.003906 L 0.28125 52.003906 Z M 0.28125 0 " fill-opacity="1" fill-rule="nonzero"/><path fill="#ffffff" d="M 0.28125 0 L 59.71875 0 L 59.71875 52.003906 L 0.28125 52.003906 Z M 0.28125 0 " fill-opacity="1" fill-rule="nonzero"/></g><g clip-path="url(#f71504e7cc)"><path fill="#fe0a0a" d="M 33.949219 8.867188 C 33.945312 8.871094 22.917969 17.929688 8.878906 21.796875 L 8.878906 24.914062 C 8.878906 25.71875 9.539062 26.378906 10.34375 26.378906 L 10.347656 26.378906 C 10.988281 26.378906 11.539062 25.957031 11.734375 25.378906 C 11.929688 25.957031 12.476562 26.378906 13.121094 26.378906 C 13.765625 26.378906 14.316406 25.957031 14.511719 25.378906 C 14.707031 25.957031 15.253906 26.378906 15.898438 26.378906 C 16.542969 26.378906 17.09375 25.957031 17.289062 25.378906 C 17.484375 25.957031 18.03125 26.378906 18.675781 26.378906 C 19.320312 26.378906 19.867188 25.957031 20.0625 25.378906 C 20.257812 25.957031 20.808594 26.378906 21.453125 26.378906 C 22.097656 26.378906 22.644531 25.957031 22.839844 25.378906 C 23.035156 25.957031 23.585938 26.378906 24.230469 26.378906 C 24.875 26.378906 25.421875 25.957031 25.617188 25.378906 C 25.8125 25.957031 26.363281 26.378906 27.003906 26.378906 L 27.007812 26.378906 C 27.652344 26.378906 28.199219 25.957031 28.394531 25.378906 C 28.589844 25.957031 29.140625 26.378906 29.78125 26.378906 L 29.785156 26.378906 C 30.425781 26.378906 30.976562 25.957031 31.171875 25.378906 C 31.367188 25.957031 31.914062 26.378906 32.558594 26.378906 L 32.5625 26.378906 C 33.203125 26.378906 33.753906 25.957031 33.949219 25.378906 C 34.144531 25.957031 34.691406 26.378906 35.335938 26.378906 C 35.980469 26.378906 36.53125 25.957031 36.726562 25.378906 C 36.921875 25.957031 37.46875 26.378906 38.113281 26.378906 C 38.757812 26.378906 39.308594 25.957031 39.503906 25.378906 C 39.695312 25.957031 40.246094 26.378906 40.890625 26.378906 C 41.535156 26.378906 42.082031 25.957031 42.277344 25.378906 C 42.472656 25.957031 43.023438 26.378906 43.667969 26.378906 C 44.3125 26.378906 44.859375 25.957031 45.054688 25.378906 C 45.25 25.957031 45.800781 26.378906 46.441406 26.378906 L 46.445312 26.378906 C 47.089844 26.378906 47.636719 25.957031 47.832031 25.378906 C 48.027344 25.957031 48.578125 26.378906 49.21875 26.378906 L 49.222656 26.378906 C 49.867188 26.378906 50.414062 25.957031 50.609375 25.378906 C 50.804688 25.957031 51.351562 26.378906 51.996094 26.378906 L 52 26.378906 C 52.640625 26.378906 53.191406 25.957031 53.386719 25.378906 C 53.582031 25.957031 54.128906 26.378906 54.773438 26.378906 L 54.777344 26.378906 C 55.417969 26.378906 55.96875 25.957031 56.164062 25.378906 C 56.359375 25.957031 56.90625 26.378906 57.550781 26.378906 C 58.359375 26.378906 59.015625 25.71875 59.015625 24.914062 L 59.015625 21.796875 C 44.976562 17.929688 33.949219 8.867188 33.949219 8.867188 Z M 33.949219 8.867188 " fill-opacity="1" fill-rule="nonzero"/></g><path fill="#fe0a0a" d="M 11.054688 27.101562 L 12.425781 27.101562 L 12.425781 47.996094 L 11.054688 47.996094 Z M 11.054688 27.101562 " fill-opacity="1" fill-rule="nonzero"/><path fill="#fe0a0a" d="M 55.472656 27.101562 L 56.839844 27.101562 L 56.839844 47.996094 L 55.472656 47.996094 Z M 55.472656 27.101562 " fill-opacity="1" fill-rule="nonzero"/><g clip-path="url(#15fda57928)"><path fill="#fe0a0a" d="M 9.839844 43.890625 L 6.046875 40.660156 C 5.984375 40.605469 5.914062 40.574219 5.839844 40.558594 C 5.359375 40.375 4.621094 40.527344 4.179688 41.300781 C 3.550781 42.410156 3.316406 43.164062 3.21875 44.503906 C 3.21875 45.046875 3.414062 45.359375 3.679688 45.542969 L 4.136719 46.5625 L 2.519531 46.5625 C 2.105469 46.5625 1.769531 46.898438 1.769531 47.3125 C 1.769531 47.726562 2.105469 48.0625 2.519531 48.0625 L 5.296875 48.0625 C 5.550781 48.0625 5.785156 47.933594 5.925781 47.71875 C 6.0625 47.503906 6.082031 47.238281 5.976562 47.003906 L 5.433594 45.792969 L 6.679688 45.324219 L 7.515625 47.652344 C 7.625 47.957031 7.914062 48.148438 8.222656 48.148438 C 8.304688 48.148438 8.390625 48.132812 8.476562 48.101562 C 8.863281 47.964844 9.066406 47.535156 8.925781 47.144531 L 7.832031 44.101562 C 7.765625 43.914062 7.625 43.761719 7.441406 43.675781 C 7.261719 43.589844 7.050781 43.582031 6.863281 43.652344 L 5.429688 44.191406 C 5.621094 43.425781 5.953125 42.675781 6.183594 42.101562 C 6.191406 42.085938 6.199219 42.070312 6.203125 42.054688 L 9.21875 44.621094 C 9.308594 44.699219 9.421875 44.734375 9.53125 44.734375 C 9.664062 44.734375 9.800781 44.679688 9.894531 44.566406 C 10.066406 44.363281 10.042969 44.0625 9.839844 43.890625 Z M 9.839844 43.890625 " fill-opacity="1" fill-rule="nonzero"/></g><path fill="#fe0a0a" d="M 8.449219 38.640625 C 8.425781 38.636719 8.402344 38.632812 8.378906 38.628906 C 8.183594 38.34375 7.882812 38.136719 7.519531 38.066406 C 6.789062 37.925781 6.082031 38.40625 5.941406 39.136719 C 5.800781 39.867188 6.28125 40.574219 7.011719 40.714844 C 7.683594 40.84375 8.332031 40.449219 8.542969 39.820312 C 8.425781 39.792969 8.300781 39.753906 8.175781 39.710938 C 7.519531 39.472656 7.046875 39.109375 7.105469 38.882812 C 7.15625 39.105469 7.652344 39.363281 8.289062 39.484375 C 8.765625 39.574219 9.203125 39.566406 9.441406 39.476562 C 9.550781 39.4375 9.621094 39.378906 9.632812 39.304688 C 9.679688 39.070312 9.148438 38.773438 8.449219 38.640625 Z M 8.449219 38.640625 " fill-opacity="1" fill-rule="nonzero"/><g clip-path="url(#b040ae77b3)"><path fill="#fe0a0a" d="M 13.894531 48.070312 L 14.460938 48.152344 L 15.628906 39.945312 L 18.273438 39.945312 C 18.386719 40.367188 18.527344 40.804688 18.691406 41.253906 C 18.765625 41.457031 18.921875 41.601562 19.105469 41.679688 L 20.023438 48.152344 L 20.589844 48.070312 L 19.679688 41.667969 C 20.03125 41.511719 20.207031 41.109375 20.070312 40.742188 C 19.351562 38.804688 19.226562 37.082031 19.226562 36.117188 C 19.527344 35.992188 19.789062 35.730469 19.894531 35.1875 C 20.046875 33.878906 19.960938 33.105469 19.558594 31.921875 C 19.265625 31.058594 18.535156 30.785156 18.035156 30.910156 C 18.007812 30.917969 17.984375 30.925781 17.964844 30.933594 C 17.269531 30.351562 15.910156 29.164062 15.132812 28.191406 C 14.96875 27.988281 14.671875 27.953125 14.46875 28.117188 C 14.265625 28.277344 14.234375 28.574219 14.394531 28.777344 C 15.265625 29.867188 16.75 31.148438 17.4375 31.722656 C 17.421875 31.847656 17.417969 31.976562 17.433594 32.105469 L 16.167969 32.105469 Z M 17.550781 32.675781 C 17.691406 33.371094 17.863281 34.234375 17.820312 35.03125 C 17.808594 35.0625 17.804688 35.09375 17.796875 35.128906 C 17.789062 35.21875 17.582031 36.976562 18.132812 39.375 L 15.710938 39.375 L 16.660156 32.675781 Z M 17.550781 32.675781 " fill-opacity="1" fill-rule="nonzero"/></g><path fill="#fe0a0a" d="M 17.535156 28.914062 C 18.152344 29.0625 18.699219 29.035156 18.832031 28.859375 C 18.792969 29.085938 18.222656 29.21875 17.539062 29.160156 C 17.410156 29.148438 17.285156 29.128906 17.167969 29.109375 C 17.097656 29.757812 17.515625 30.371094 18.167969 30.53125 C 18.878906 30.707031 19.59375 30.273438 19.769531 29.5625 C 19.941406 28.851562 19.507812 28.136719 18.796875 27.960938 C 18.445312 27.875 18.089844 27.9375 17.804688 28.113281 C 17.78125 28.105469 17.757812 28.097656 17.734375 28.09375 C 17.054688 27.925781 16.460938 27.976562 16.40625 28.203125 C 16.386719 28.273438 16.425781 28.351562 16.507812 28.433594 C 16.683594 28.613281 17.066406 28.796875 17.535156 28.914062 Z M 17.535156 28.914062 " fill-opacity="1" fill-rule="nonzero"/><g clip-path="url(#098f83f5b8)"><path fill="#fe0a0a" d="M 21.199219 34.988281 C 21.101562 35.242188 21.222656 35.527344 21.476562 35.625 L 25.054688 37.039062 C 24.972656 37.300781 24.96875 37.609375 25.046875 37.890625 C 25.199219 38.664062 25.453125 39.734375 25.402344 40.707031 C 25.390625 40.746094 25.382812 40.78125 25.378906 40.820312 L 24.6875 47.15625 C 24.640625 47.578125 24.945312 47.953125 25.363281 48 C 25.390625 48.003906 25.421875 48.003906 25.449219 48.003906 C 25.832031 48.003906 26.164062 47.714844 26.207031 47.324219 L 26.804688 41.859375 C 27.144531 41.742188 27.441406 41.472656 27.558594 40.871094 C 27.71875 39.511719 27.628906 38.707031 27.210938 37.472656 C 27.003906 36.871094 26.59375 36.546875 26.1875 36.4375 C 26.179688 36.433594 26.171875 36.429688 26.167969 36.425781 L 21.835938 34.714844 C 21.582031 34.617188 21.300781 34.738281 21.199219 34.988281 Z M 21.199219 34.988281 " fill-opacity="1" fill-rule="nonzero"/></g><path fill="#fe0a0a" d="M 25.363281 34.125 C 25.964844 34.402344 26.527344 34.484375 26.703125 34.332031 C 26.617188 34.550781 26.007812 34.574219 25.324219 34.378906 C 25.191406 34.339844 25.066406 34.296875 24.953125 34.253906 C 24.753906 34.902344 25.058594 35.613281 25.691406 35.90625 C 26.378906 36.222656 27.199219 35.921875 27.515625 35.230469 C 27.835938 34.542969 27.535156 33.722656 26.84375 33.40625 C 26.5 33.246094 26.128906 33.242188 25.800781 33.363281 C 25.777344 33.351562 25.753906 33.339844 25.730469 33.328125 C 25.074219 33.023438 24.457031 32.957031 24.355469 33.175781 C 24.324219 33.246094 24.34375 33.332031 24.410156 33.433594 C 24.558594 33.652344 24.914062 33.917969 25.363281 34.125 Z M 25.363281 34.125 " fill-opacity="1" fill-rule="nonzero"/><path fill="#fe0a0a" d="M 29.308594 45.558594 L 34.257812 45.558594 L 34.257812 47.917969 L 29.308594 47.917969 Z M 29.308594 45.558594 " fill-opacity="1" fill-rule="nonzero"/><path fill="#fe0a0a" d="M 35.132812 43.046875 L 40.003906 43.046875 L 40.003906 47.917969 L 35.132812 47.917969 Z M 35.132812 43.046875 " fill-opacity="1" fill-rule="nonzero"/><g clip-path="url(#5943b53492)"><path fill="#391e1e" d="M 49.089844 34.59375 L 48.421875 33.925781 L 45.339844 37.003906 L 44.003906 35.667969 L 43.332031 36.335938 L 45.339844 38.34375 Z M 50.652344 29.503906 L 50.019531 29.503906 L 50.019531 28.242188 L 48.757812 28.242188 L 48.757812 29.503906 L 43.707031 29.503906 L 43.707031 28.242188 L 42.445312 28.242188 L 42.445312 29.503906 L 41.8125 29.503906 C 41.113281 29.503906 40.554688 30.070312 40.554688 30.765625 L 40.550781 39.605469 C 40.550781 40.304688 41.113281 40.867188 41.8125 40.867188 L 50.652344 40.867188 C 51.347656 40.867188 51.914062 40.304688 51.914062 39.605469 L 51.914062 30.765625 C 51.914062 30.070312 51.347656 29.503906 50.652344 29.503906 Z M 50.652344 39.605469 L 41.8125 39.605469 L 41.8125 32.660156 L 50.652344 32.660156 Z M 50.652344 39.605469 " fill-opacity="1" fill-rule="nonzero"/></g></svg>