<svg xmlns="http://www.w3.org/2000/svg" xmlns:xlink="http://www.w3.org/1999/xlink" width="70" zoomAndPan="magnify" viewBox="0 0 52.5 52.499999" height="70" preserveAspectRatio="xMidYMid meet" version="1.0"><defs><clipPath id="c880cf7ddf"><path d="M 0 0 L 52.003906 0 L 52.003906 52.003906 L 0 52.003906 Z M 0 0 " clip-rule="nonzero"/></clipPath><clipPath id="5fda7c1a1b"><path d="M 1.585938 11.332031 L 50.621094 11.332031 L 50.621094 49.960938 L 1.585938 49.960938 Z M 1.585938 11.332031 " clip-rule="nonzero"/></clipPath><clipPath id="c7b7043b92"><path d="M 14.21875 1.914062 L 31.304688 1.914062 L 31.304688 12.316406 L 14.21875 12.316406 Z M 14.21875 1.914062 " clip-rule="nonzero"/></clipPath></defs><g clip-path="url(#c880cf7ddf)"><path fill="#ffffff" d="M 0 0 L 52.003906 0 L 52.003906 52.003906 L 0 52.003906 Z M 0 0 " fill-opacity="1" fill-rule="nonzero"/><path fill="#ffffff" d="M 0 0 L 52.003906 0 L 52.003906 52.003906 L 0 52.003906 Z M 0 0 " fill-opacity="1" fill-rule="nonzero"/></g><g clip-path="url(#5fda7c1a1b)"><path fill="#fe0a0a" d="M 50.023438 35.21875 L 49.613281 35.21875 C 49.515625 33.753906 48.964844 30.839844 46.277344 28.742188 C 46.070312 28.578125 45.855469 28.425781 45.640625 28.285156 C 44.925781 27.824219 44.132812 27.453125 43.285156 27.183594 L 43.285156 26.027344 C 44.589844 25.5 45.65625 24.492188 46.152344 23.6875 C 46.449219 23.210938 46.710938 22.488281 46.90625 21.601562 C 47.152344 20.492188 47.234375 19.304688 47.152344 18.0625 C 47.03125 16.230469 46.648438 14.808594 45.984375 13.714844 C 45.027344 12.136719 43.515625 11.335938 41.496094 11.335938 C 39.476562 11.335938 37.964844 12.136719 37.003906 13.714844 C 36.339844 14.808594 35.957031 16.230469 35.835938 18.0625 C 35.757812 19.304688 35.839844 20.492188 36.085938 21.601562 C 36.28125 22.488281 36.542969 23.210938 36.835938 23.6875 C 37.308594 24.449219 38.328125 25.492188 39.707031 26.03125 L 39.707031 27.183594 C 38.855469 27.453125 38.0625 27.824219 37.347656 28.289062 C 37.125 28.433594 36.910156 28.585938 36.710938 28.742188 C 35.003906 30.074219 34.160156 31.738281 33.746094 33.152344 C 33.332031 31.742188 32.488281 30.074219 30.777344 28.742188 C 30.570312 28.578125 30.355469 28.425781 30.140625 28.285156 C 29.425781 27.824219 28.632812 27.453125 27.785156 27.183594 L 27.785156 26.027344 C 29.089844 25.5 30.15625 24.492188 30.652344 23.6875 C 30.949219 23.210938 31.210938 22.488281 31.40625 21.601562 C 31.652344 20.492188 31.734375 19.304688 31.652344 18.0625 C 31.53125 16.230469 31.148438 14.808594 30.484375 13.714844 C 29.527344 12.136719 28.015625 11.335938 25.996094 11.335938 C 23.976562 11.335938 22.464844 12.136719 21.503906 13.714844 C 20.839844 14.808594 20.457031 16.230469 20.335938 18.0625 C 20.257812 19.304688 20.339844 20.492188 20.585938 21.601562 C 20.78125 22.488281 21.042969 23.210938 21.335938 23.6875 C 21.808594 24.449219 22.828125 25.492188 24.207031 26.03125 L 24.207031 27.183594 C 23.355469 27.453125 22.5625 27.824219 21.847656 28.289062 C 21.625 28.433594 21.410156 28.585938 21.210938 28.742188 C 19.503906 30.074219 18.660156 31.738281 18.246094 33.152344 C 17.832031 31.742188 16.988281 30.074219 15.277344 28.742188 C 15.070312 28.578125 14.855469 28.425781 14.640625 28.285156 C 13.925781 27.824219 13.132812 27.453125 12.285156 27.183594 L 12.285156 26.027344 C 13.589844 25.5 14.65625 24.492188 15.15625 23.6875 C 15.449219 23.210938 15.710938 22.488281 15.90625 21.601562 C 16.152344 20.492188 16.234375 19.304688 16.152344 18.0625 C 16.03125 16.230469 15.652344 14.808594 14.984375 13.714844 C 14.027344 12.136719 12.515625 11.335938 10.496094 11.335938 C 8.476562 11.335938 6.964844 12.136719 6.007812 13.714844 C 5.339844 14.808594 4.960938 16.230469 4.839844 18.0625 C 4.757812 19.304688 4.839844 20.492188 5.085938 21.601562 C 5.28125 22.488281 5.542969 23.210938 5.835938 23.6875 C 6.308594 24.449219 7.328125 25.492188 8.707031 26.03125 L 8.707031 27.183594 C 7.855469 27.453125 7.0625 27.824219 6.347656 28.289062 C 6.125 28.433594 5.910156 28.585938 5.710938 28.742188 C 3.027344 30.835938 2.476562 33.742188 2.378906 35.21875 L 1.972656 35.21875 C 1.761719 35.21875 1.585938 35.390625 1.585938 35.605469 L 1.585938 49.699219 C 1.585938 49.910156 1.761719 50.085938 1.972656 50.085938 L 50.023438 50.085938 C 50.238281 50.085938 50.410156 49.910156 50.410156 49.699219 L 50.410156 35.605469 C 50.410156 35.390625 50.238281 35.21875 50.023438 35.21875 Z M 37.496094 23.277344 C 37.246094 22.875 37.019531 22.238281 36.839844 21.433594 C 36.613281 20.398438 36.535156 19.28125 36.609375 18.117188 C 36.878906 14.074219 38.476562 12.109375 41.496094 12.109375 C 44.515625 12.109375 46.113281 14.074219 46.378906 18.117188 C 46.457031 19.28125 46.378906 20.398438 46.148438 21.433594 C 45.972656 22.238281 45.746094 22.875 45.496094 23.277344 C 45.050781 24 44.007812 24.964844 42.769531 25.394531 C 42.339844 25.539062 41.910156 25.617188 41.496094 25.617188 C 41.128906 25.617188 40.652344 25.53125 40.214844 25.390625 C 38.988281 24.984375 37.964844 24.035156 37.496094 23.277344 Z M 40.203125 27.84375 C 40.367188 27.792969 40.480469 27.644531 40.480469 27.46875 L 40.480469 26.265625 C 40.839844 26.347656 41.191406 26.390625 41.496094 26.390625 C 41.828125 26.390625 42.167969 26.351562 42.507812 26.273438 L 42.507812 27.46875 C 42.507812 27.644531 42.621094 27.792969 42.789062 27.84375 C 43.5625 28.066406 44.285156 28.375 44.945312 28.765625 L 43.105469 33.125 L 42.683594 31.410156 L 43.058594 29.578125 C 43.082031 29.464844 43.050781 29.347656 42.980469 29.253906 C 42.90625 29.164062 42.796875 29.113281 42.679688 29.113281 L 40.308594 29.113281 C 40.191406 29.113281 40.082031 29.164062 40.007812 29.253906 C 39.933594 29.347656 39.90625 29.464844 39.929688 29.578125 L 40.300781 31.378906 L 39.882812 33.121094 L 38.042969 28.765625 C 38.703125 28.375 39.425781 28.066406 40.203125 27.84375 Z M 40.996094 31.804688 L 41.980469 31.804688 L 42.601562 34.320312 L 42.222656 35.21875 L 40.765625 35.21875 L 40.390625 34.328125 Z M 40.785156 29.886719 L 42.203125 29.886719 L 41.96875 31.03125 L 41.019531 31.03125 Z M 21.996094 23.277344 C 21.746094 22.875 21.519531 22.238281 21.339844 21.433594 C 21.113281 20.398438 21.035156 19.28125 21.109375 18.117188 C 21.378906 14.074219 22.976562 12.109375 25.996094 12.109375 C 29.015625 12.109375 30.613281 14.074219 30.878906 18.117188 C 30.957031 19.28125 30.878906 20.398438 30.648438 21.433594 C 30.472656 22.238281 30.246094 22.875 29.996094 23.277344 C 29.550781 24 28.507812 24.964844 27.269531 25.394531 C 26.839844 25.539062 26.410156 25.617188 25.996094 25.617188 C 25.628906 25.617188 25.152344 25.53125 24.714844 25.390625 C 23.488281 24.984375 22.464844 24.035156 21.996094 23.277344 Z M 24.703125 27.84375 C 24.867188 27.792969 24.980469 27.644531 24.980469 27.46875 L 24.980469 26.265625 C 25.339844 26.347656 25.691406 26.390625 25.996094 26.390625 C 26.328125 26.390625 26.667969 26.351562 27.007812 26.273438 L 27.007812 27.46875 C 27.007812 27.644531 27.121094 27.792969 27.289062 27.84375 C 28.0625 28.066406 28.785156 28.375 29.445312 28.765625 L 27.605469 33.125 L 27.183594 31.410156 L 27.558594 29.578125 C 27.582031 29.464844 27.554688 29.347656 27.480469 29.253906 C 27.40625 29.164062 27.296875 29.113281 27.179688 29.113281 L 24.808594 29.113281 C 24.691406 29.113281 24.582031 29.164062 24.507812 29.253906 C 24.433594 29.347656 24.40625 29.464844 24.429688 29.578125 L 24.800781 31.378906 L 24.382812 33.121094 L 22.542969 28.765625 C 23.203125 28.375 23.925781 28.066406 24.703125 27.84375 Z M 25.496094 31.804688 L 26.480469 31.804688 L 27.101562 34.320312 L 26.722656 35.21875 L 25.265625 35.21875 L 24.890625 34.328125 Z M 25.285156 29.886719 L 26.703125 29.886719 L 26.46875 31.03125 L 25.519531 31.03125 Z M 6.496094 23.277344 C 6.246094 22.875 6.019531 22.238281 5.839844 21.433594 C 5.613281 20.398438 5.535156 19.28125 5.613281 18.117188 C 5.878906 14.074219 7.476562 12.109375 10.496094 12.109375 C 13.515625 12.109375 15.113281 14.074219 15.378906 18.117188 C 15.457031 19.28125 15.378906 20.398438 15.148438 21.433594 C 14.972656 22.238281 14.746094 22.875 14.496094 23.277344 C 14.050781 24 13.007812 24.964844 11.769531 25.394531 C 11.339844 25.539062 10.914062 25.617188 10.496094 25.617188 C 10.128906 25.617188 9.652344 25.53125 9.214844 25.390625 C 7.988281 24.984375 6.964844 24.035156 6.496094 23.277344 Z M 9.203125 27.84375 C 9.367188 27.792969 9.480469 27.644531 9.480469 27.46875 L 9.480469 26.265625 C 9.839844 26.347656 10.191406 26.390625 10.496094 26.390625 C 10.828125 26.390625 11.167969 26.351562 11.507812 26.273438 L 11.507812 27.46875 C 11.507812 27.644531 11.625 27.792969 11.789062 27.84375 C 12.5625 28.066406 13.285156 28.375 13.945312 28.765625 L 12.105469 33.125 L 11.683594 31.410156 L 12.058594 29.578125 C 12.082031 29.464844 12.054688 29.347656 11.980469 29.253906 C 11.90625 29.164062 11.796875 29.113281 11.679688 29.113281 L 9.308594 29.113281 C 9.195312 29.113281 9.082031 29.164062 9.007812 29.253906 C 8.9375 29.347656 8.90625 29.464844 8.929688 29.578125 L 9.300781 31.378906 L 8.882812 33.121094 L 7.046875 28.765625 C 7.703125 28.375 8.425781 28.066406 9.203125 27.84375 Z M 9.996094 31.804688 L 10.980469 31.804688 L 11.601562 34.320312 L 11.222656 35.21875 L 9.765625 35.21875 L 9.390625 34.328125 Z M 9.785156 29.886719 L 11.203125 29.886719 L 10.96875 31.03125 L 10.019531 31.03125 Z M 49.636719 49.308594 L 2.359375 49.308594 L 2.359375 35.992188 L 49.636719 35.992188 Z M 49.636719 49.308594 " fill-opacity="1" fill-rule="nonzero"/></g><path fill="#fe0a0a" d="M 7.972656 47.34375 L 44.015625 47.34375 C 44.117188 47.34375 44.21875 47.304688 44.289062 47.230469 C 44.363281 47.160156 44.402344 47.058594 44.402344 46.957031 L 44.398438 38.460938 C 44.398438 38.246094 44.226562 38.074219 44.011719 38.074219 L 7.972656 38.074219 C 7.761719 38.074219 7.585938 38.246094 7.585938 38.460938 L 7.585938 46.957031 C 7.585938 47.171875 7.761719 47.34375 7.972656 47.34375 Z M 40.136719 41.085938 C 40.136719 40.871094 40.308594 40.695312 40.523438 40.695312 L 42.460938 40.695312 C 42.675781 40.695312 42.847656 40.871094 42.847656 41.085938 C 42.847656 41.296875 42.675781 41.472656 42.460938 41.472656 L 40.910156 41.472656 L 40.910156 42.261719 L 42.460938 42.261719 C 42.675781 42.261719 42.847656 42.4375 42.847656 42.652344 C 42.847656 42.863281 42.675781 43.039062 42.460938 43.039062 L 40.910156 43.039062 L 40.910156 43.828125 L 42.460938 43.828125 C 42.675781 43.828125 42.847656 44.003906 42.847656 44.214844 C 42.847656 44.429688 42.675781 44.605469 42.460938 44.605469 L 40.523438 44.605469 C 40.308594 44.605469 40.136719 44.429688 40.136719 44.214844 Z M 36.648438 41.085938 C 36.648438 40.871094 36.820312 40.695312 37.035156 40.695312 L 38.972656 40.695312 C 39.1875 40.695312 39.359375 40.871094 39.359375 41.085938 C 39.359375 41.296875 39.1875 41.472656 38.972656 41.472656 L 37.421875 41.472656 L 37.421875 42.261719 L 38.972656 42.261719 C 39.1875 42.261719 39.359375 42.4375 39.359375 42.652344 C 39.359375 42.863281 39.1875 43.039062 38.972656 43.039062 L 37.421875 43.039062 L 37.421875 43.828125 L 38.972656 43.828125 C 39.1875 43.828125 39.359375 44.003906 39.359375 44.214844 C 39.359375 44.429688 39.1875 44.605469 38.972656 44.605469 L 37.035156 44.605469 C 36.820312 44.605469 36.648438 44.429688 36.648438 44.214844 Z M 33.160156 40.695312 L 35.484375 40.695312 C 35.699219 40.695312 35.875 40.871094 35.875 41.085938 C 35.875 41.296875 35.699219 41.472656 35.484375 41.472656 L 34.710938 41.472656 L 34.710938 44.214844 C 34.710938 44.429688 34.539062 44.605469 34.324219 44.605469 C 34.109375 44.605469 33.9375 44.429688 33.9375 44.214844 L 33.9375 41.472656 L 33.160156 41.472656 C 32.945312 41.472656 32.773438 41.296875 32.773438 41.085938 C 32.773438 40.871094 32.945312 40.695312 33.160156 40.695312 Z M 29.285156 40.695312 L 31.609375 40.695312 C 31.824219 40.695312 32 40.871094 32 41.085938 C 32 41.296875 31.824219 41.472656 31.609375 41.472656 L 30.835938 41.472656 L 30.835938 44.214844 C 30.835938 44.429688 30.664062 44.605469 30.449219 44.605469 C 30.234375 44.605469 30.0625 44.429688 30.0625 44.214844 L 30.0625 41.472656 L 29.285156 41.472656 C 29.070312 41.472656 28.898438 41.296875 28.898438 41.085938 C 28.898438 40.871094 29.070312 40.695312 29.285156 40.695312 Z M 27.347656 41.085938 C 27.347656 40.871094 27.523438 40.695312 27.734375 40.695312 C 27.949219 40.695312 28.125 40.871094 28.125 41.085938 L 28.125 44.214844 C 28.125 44.429688 27.949219 44.605469 27.734375 44.605469 C 27.523438 44.605469 27.347656 44.429688 27.347656 44.214844 Z M 22.699219 41.085938 C 22.699219 40.917969 22.804688 40.773438 22.960938 40.71875 C 23.113281 40.664062 23.289062 40.714844 23.390625 40.84375 L 24.636719 42.417969 L 25.882812 40.84375 C 25.984375 40.714844 26.15625 40.664062 26.3125 40.71875 C 26.46875 40.773438 26.574219 40.917969 26.574219 41.085938 L 26.574219 44.214844 C 26.574219 44.429688 26.398438 44.605469 26.1875 44.605469 C 25.972656 44.605469 25.796875 44.429688 25.796875 44.214844 L 25.796875 42.199219 L 24.941406 43.28125 C 24.867188 43.375 24.753906 43.429688 24.636719 43.429688 C 24.519531 43.429688 24.40625 43.375 24.332031 43.28125 L 23.472656 42.199219 L 23.472656 44.214844 C 23.472656 44.429688 23.300781 44.605469 23.085938 44.605469 C 22.871094 44.605469 22.699219 44.429688 22.699219 44.214844 Z M 18.050781 41.085938 C 18.050781 40.917969 18.152344 40.773438 18.308594 40.71875 C 18.464844 40.664062 18.636719 40.714844 18.738281 40.84375 L 19.988281 42.417969 L 21.234375 40.84375 C 21.335938 40.714844 21.507812 40.664062 21.664062 40.71875 C 21.820312 40.773438 21.925781 40.917969 21.925781 41.085938 L 21.925781 44.214844 C 21.925781 44.429688 21.75 44.605469 21.535156 44.605469 C 21.324219 44.605469 21.148438 44.429688 21.148438 44.214844 L 21.148438 42.199219 L 20.289062 43.28125 C 20.214844 43.375 20.105469 43.429688 19.988281 43.429688 C 19.867188 43.429688 19.757812 43.375 19.683594 43.28125 L 18.824219 42.199219 L 18.824219 44.214844 C 18.824219 44.429688 18.648438 44.605469 18.4375 44.605469 C 18.222656 44.605469 18.050781 44.429688 18.050781 44.214844 Z M 15.335938 40.695312 C 16.40625 40.695312 17.273438 41.574219 17.273438 42.652344 C 17.273438 43.726562 16.40625 44.605469 15.335938 44.605469 C 14.269531 44.605469 13.398438 43.726562 13.398438 42.652344 C 13.398438 41.574219 14.269531 40.695312 15.335938 40.695312 Z M 11.074219 40.695312 C 11.628906 40.695312 12.160156 40.9375 12.527344 41.359375 C 12.667969 41.523438 12.652344 41.765625 12.492188 41.90625 C 12.328125 42.046875 12.085938 42.03125 11.945312 41.871094 C 11.722656 41.617188 11.40625 41.472656 11.074219 41.472656 C 10.433594 41.472656 9.910156 42 9.910156 42.652344 C 9.910156 43.300781 10.433594 43.828125 11.074219 43.828125 C 11.40625 43.828125 11.722656 43.683594 11.945312 43.433594 C 12.085938 43.269531 12.328125 43.253906 12.492188 43.394531 C 12.652344 43.535156 12.667969 43.78125 12.527344 43.941406 C 12.160156 44.363281 11.632812 44.605469 11.074219 44.605469 C 10.003906 44.605469 9.136719 43.726562 9.136719 42.652344 C 9.136719 41.574219 10.003906 40.695312 11.074219 40.695312 Z M 11.074219 40.695312 " fill-opacity="1" fill-rule="nonzero"/><path fill="#fe0a0a" d="M 15.335938 43.828125 C 15.976562 43.828125 16.5 43.300781 16.5 42.652344 C 16.5 42 15.976562 41.472656 15.335938 41.472656 C 14.695312 41.472656 14.175781 42 14.175781 42.652344 C 14.175781 43.300781 14.695312 43.828125 15.335938 43.828125 Z M 15.335938 43.828125 " fill-opacity="1" fill-rule="nonzero"/><g clip-path="url(#c7b7043b92)"><path stroke-linecap="butt" transform="matrix(0.0185324, 0, 0, 0.0185665, 13.228088, 1.449418)" fill-opacity="1" fill="#ffffff" fill-rule="nonzero" stroke-linejoin="miter" d="M 73.901339 576.885768 C 66.945609 571.625954 67.156389 564.893391 74.112119 560.264753 C 81.489408 555.215331 90.552934 555.425724 97.087105 560.475146 C 103.832055 565.734961 103.832055 572.257131 96.876325 577.096161 C 89.499036 582.145583 80.435509 581.935191 73.901339 576.885768 Z M 123.434566 555.425724 C 105.307513 548.272376 105.729072 527.443509 124.066905 520.500553 C 137.978364 515.240738 154.62996 518.817412 161.585689 528.285079 C 174.44325 546.378842 148.095789 565.103783 123.434566 555.425724 Z M 194.045761 522.604479 C 170.227657 513.347205 160.742571 492.307945 172.967793 475.68693 C 185.825354 458.434737 214.702171 451.491782 237.677157 460.328271 C 261.495262 469.585545 270.980348 490.835197 258.755126 507.245819 C 245.897565 524.708405 217.020747 531.440968 194.045761 522.604479 Z M 554.268249 490.624804 C 523.072855 485.575382 503.259564 479.68439 479.441459 468.112797 L 466.583898 461.801019 L 444.452031 469.585545 C 432.226809 474.003789 414.732095 478.632427 405.457789 480.105175 C 318.405777 493.359908 233.250783 455.068456 211.118916 392.792248 C 207.957221 384.166151 205.638644 380.379085 203.320068 380.79987 C 201.63383 381.220655 191.516405 381.851833 180.766641 382.272618 C 145.566433 383.955759 116.900395 375.750448 92.239172 357.025507 C 77.484594 345.664306 71.161203 337.87978 65.259372 323.362691 C 57.249744 304.006573 62.097676 276.655535 76.641475 259.403343 C 85.705002 248.67332 106.361411 234.787409 121.326769 229.317201 L 135.238228 224.267779 L 138.189144 212.696186 C 149.571247 169.776097 203.530847 137.375637 264.024618 137.375637 L 277.936077 137.375637 L 279.411535 126.856008 C 285.524146 84.987881 328.944762 46.906822 387.330736 31.968947 C 400.609856 28.602666 407.987145 27.971488 435.599284 27.971488 C 463.211423 27.971488 470.588712 28.602666 483.867833 31.968947 C 527.920788 43.119755 563.120996 66.683725 580.826489 96.980259 C 584.620524 103.50243 588.836118 108.341459 590.733135 108.131067 C 592.419372 107.920674 600.218221 106.027141 608.227849 103.923215 C 628.04114 98.6634 663.030568 97.611437 684.951655 101.188111 C 727.107593 108.551852 764.837157 130.011897 782.753431 157.152541 C 788.233703 165.568245 790.13072 167.040993 794.135534 166.199423 C 805.096078 164.095497 838.610048 163.464319 852.099948 165.357853 C 875.496494 168.513741 899.946938 177.981408 918.70633 191.025749 C 972.45515 228.896416 973.930608 287.806343 921.657245 326.939366 C 894.045106 347.768232 859.266458 357.656684 819.218317 355.973544 L 798.351128 355.342366 L 795.400212 368.386707 C 779.380956 440.972152 693.804402 493.570301 592.630152 493.149516 C 579.983371 493.149516 562.699436 491.88716 554.268249 490.624804 Z M 554.268249 490.624804 " stroke="#000000" stroke-width="6" stroke-opacity="1" stroke-miterlimit="4"/></g></svg>