<svg xmlns="http://www.w3.org/2000/svg" xmlns:xlink="http://www.w3.org/1999/xlink" width="80" zoomAndPan="magnify" viewBox="0 0 60 52.499999" height="70" preserveAspectRatio="xMidYMid meet" version="1.0"><defs><clipPath id="ec7e2a5482"><path d="M 0.28125 0 L 59.714844 0 L 59.714844 52.003906 L 0.28125 52.003906 Z M 0.28125 0 " clip-rule="nonzero"/></clipPath><clipPath id="edf3b4a990"><path d="M 15.585938 28 L 17 28 L 17 29.523438 L 15.585938 29.523438 Z M 15.585938 28 " clip-rule="nonzero"/></clipPath><clipPath id="c7e97b53fe"><path d="M 16 27.296875 L 18 27.296875 L 18 29 L 16 29 Z M 16 27.296875 " clip-rule="nonzero"/></clipPath><clipPath id="90de8d9191"><path d="M 17 27.296875 L 18 27.296875 L 18 29 L 17 29 Z M 17 27.296875 " clip-rule="nonzero"/></clipPath><clipPath id="b9825426dc"><path d="M 18 28 L 19 28 L 19 29.523438 L 18 29.523438 Z M 18 28 " clip-rule="nonzero"/></clipPath><clipPath id="d60abcc684"><path d="M 18 28 L 20.042969 28 L 20.042969 29.523438 L 18 29.523438 Z M 18 28 " clip-rule="nonzero"/></clipPath><clipPath id="18eea136f4"><path d="M 2.339844 4.046875 L 57.316406 4.046875 L 57.316406 47.878906 L 2.339844 47.878906 Z M 2.339844 4.046875 " clip-rule="nonzero"/></clipPath></defs><g clip-path="url(#ec7e2a5482)"><path fill="#ffffff" d="M 0.28125 0 L 59.71875 0 L 59.71875 52.003906 L 0.28125 52.003906 Z M 0.28125 0 " fill-opacity="1" fill-rule="nonzero"/><path fill="#ffffff" d="M 0.28125 0 L 59.71875 0 L 59.71875 52.003906 L 0.28125 52.003906 Z M 0.28125 0 " fill-opacity="1" fill-rule="nonzero"/></g><g clip-path="url(#edf3b4a990)"><path fill="#000000" d="M 15.675781 28.550781 L 15.671875 28.550781 C 15.621094 28.550781 15.597656 28.582031 15.605469 28.644531 C 15.613281 28.683594 15.652344 28.746094 15.722656 28.824219 C 15.800781 28.902344 15.96875 29.039062 16.226562 29.238281 C 16.367188 29.347656 16.472656 29.421875 16.535156 29.464844 C 16.597656 29.503906 16.628906 29.523438 16.636719 29.515625 C 16.648438 29.519531 16.664062 29.507812 16.679688 29.480469 C 16.6875 29.464844 16.6875 29.445312 16.679688 29.429688 C 16.671875 29.40625 16.652344 29.378906 16.628906 29.347656 C 16.550781 29.257812 16.492188 29.195312 16.460938 29.164062 C 16.066406 28.765625 15.804688 28.5625 15.675781 28.550781 " fill-opacity="1" fill-rule="nonzero"/></g><g clip-path="url(#c7e97b53fe)"><path fill="#000000" d="M 16.65625 27.980469 C 16.636719 27.984375 16.621094 27.992188 16.609375 28.007812 C 16.601562 28.019531 16.597656 28.03125 16.59375 28.050781 C 16.59375 28.066406 16.59375 28.078125 16.59375 28.085938 C 16.601562 28.152344 16.636719 28.25 16.695312 28.375 C 16.742188 28.480469 16.816406 28.601562 16.921875 28.742188 C 16.953125 28.785156 17 28.839844 17.0625 28.902344 C 17.082031 28.929688 17.101562 28.941406 17.121094 28.941406 C 17.136719 28.941406 17.148438 28.929688 17.15625 28.910156 C 17.160156 28.902344 17.164062 28.894531 17.164062 28.890625 L 17.164062 28.859375 C 17.164062 28.855469 17.164062 28.847656 17.160156 28.847656 C 17.105469 28.667969 17.046875 28.519531 16.988281 28.398438 C 16.933594 28.296875 16.867188 28.191406 16.789062 28.085938 C 16.734375 28.019531 16.691406 27.988281 16.65625 27.980469 " fill-opacity="1" fill-rule="nonzero"/></g><g clip-path="url(#90de8d9191)"><path fill="#000000" d="M 17.691406 27.503906 L 17.691406 27.507812 C 17.695312 27.527344 17.695312 27.546875 17.695312 27.570312 L 17.695312 27.730469 L 17.691406 27.765625 L 17.691406 27.847656 C 17.6875 27.824219 17.6875 27.804688 17.6875 27.785156 C 17.6875 27.769531 17.6875 27.738281 17.6875 27.699219 C 17.6875 27.625 17.691406 27.566406 17.691406 27.519531 L 17.691406 27.503906 M 17.746094 28.503906 L 17.746094 28.507812 L 17.738281 28.515625 L 17.738281 28.519531 L 17.734375 28.519531 L 17.730469 28.523438 L 17.726562 28.523438 L 17.726562 28.527344 C 17.730469 28.523438 17.734375 28.519531 17.738281 28.515625 C 17.742188 28.511719 17.742188 28.507812 17.746094 28.503906 M 17.691406 27.292969 L 17.6875 27.292969 C 17.664062 27.296875 17.644531 27.308594 17.632812 27.332031 L 17.621094 27.355469 C 17.613281 27.371094 17.609375 27.390625 17.601562 27.414062 C 17.589844 27.460938 17.582031 27.523438 17.574219 27.597656 C 17.570312 27.671875 17.566406 27.738281 17.566406 27.796875 C 17.566406 27.9375 17.570312 28.070312 17.582031 28.191406 C 17.582031 28.214844 17.589844 28.292969 17.597656 28.421875 L 17.640625 28.835938 C 17.644531 28.867188 17.660156 28.882812 17.6875 28.882812 C 17.703125 28.882812 17.714844 28.875 17.722656 28.859375 C 17.726562 28.851562 17.730469 28.847656 17.730469 28.84375 C 17.730469 28.832031 17.730469 28.824219 17.730469 28.832031 C 17.734375 28.820312 17.738281 28.808594 17.742188 28.789062 L 17.75 28.488281 L 17.78125 27.808594 C 17.785156 27.726562 17.789062 27.664062 17.789062 27.621094 C 17.789062 27.511719 17.78125 27.429688 17.765625 27.375 C 17.746094 27.320312 17.722656 27.296875 17.691406 27.292969 " fill-opacity="1" fill-rule="nonzero"/><path fill="#000000" d="M 17.679688 27.457031 C 17.65625 27.457031 17.632812 27.480469 17.632812 27.507812 C 17.632812 27.519531 17.632812 27.527344 17.632812 27.539062 L 17.636719 27.613281 C 17.636719 27.632812 17.636719 27.691406 17.640625 27.785156 C 17.640625 27.800781 17.640625 27.847656 17.640625 27.929688 C 17.640625 27.941406 17.644531 27.960938 17.644531 27.984375 C 17.644531 28 17.644531 28.042969 17.648438 28.121094 C 17.648438 28.148438 17.667969 28.171875 17.695312 28.171875 C 17.722656 28.171875 17.742188 28.144531 17.738281 28.117188 C 17.738281 28.039062 17.734375 27.996094 17.734375 27.980469 C 17.734375 27.957031 17.734375 27.941406 17.734375 27.929688 C 17.734375 27.847656 17.730469 27.796875 17.730469 27.78125 C 17.730469 27.6875 17.726562 27.628906 17.726562 27.609375 L 17.726562 27.539062 C 17.722656 27.527344 17.726562 27.519531 17.726562 27.511719 C 17.726562 27.484375 17.707031 27.460938 17.679688 27.457031 Z M 17.679688 27.457031 " fill-opacity="1" fill-rule="nonzero"/></g><g clip-path="url(#b9825426dc)"><path fill="#000000" d="M 18.667969 28.019531 L 18.664062 28.019531 C 18.644531 28.019531 18.628906 28.027344 18.613281 28.046875 C 18.59375 28.066406 18.566406 28.105469 18.535156 28.15625 C 18.488281 28.238281 18.457031 28.304688 18.4375 28.351562 C 18.410156 28.40625 18.386719 28.464844 18.363281 28.523438 L 18.332031 28.609375 C 18.308594 28.671875 18.289062 28.730469 18.273438 28.792969 L 18.246094 28.886719 L 18.21875 28.996094 C 18.214844 29.011719 18.214844 29.027344 18.222656 29.042969 C 18.238281 29.0625 18.25 29.070312 18.265625 29.070312 C 18.277344 29.070312 18.292969 29.058594 18.304688 29.042969 L 18.363281 28.949219 C 18.390625 28.910156 18.414062 28.871094 18.4375 28.828125 C 18.496094 28.726562 18.570312 28.566406 18.660156 28.355469 C 18.6875 28.289062 18.707031 28.230469 18.714844 28.183594 C 18.722656 28.160156 18.726562 28.140625 18.726562 28.121094 L 18.726562 28.097656 C 18.726562 28.046875 18.703125 28.019531 18.667969 28.019531 " fill-opacity="1" fill-rule="nonzero"/></g><g clip-path="url(#d60abcc684)"><path fill="#000000" d="M 19.96875 28.523438 L 19.949219 28.527344 C 19.742188 28.589844 19.441406 28.769531 19.042969 29.066406 L 18.9375 29.148438 L 18.707031 29.34375 C 18.6875 29.371094 18.679688 29.394531 18.691406 29.410156 C 18.703125 29.433594 18.722656 29.445312 18.742188 29.441406 C 18.753906 29.441406 18.769531 29.433594 18.789062 29.425781 C 18.839844 29.398438 18.875 29.375 18.898438 29.355469 C 19.117188 29.253906 19.285156 29.164062 19.40625 29.085938 C 19.578125 28.984375 19.722656 28.890625 19.835938 28.804688 C 19.945312 28.71875 20.007812 28.660156 20.019531 28.628906 C 20.03125 28.601562 20.03125 28.578125 20.019531 28.554688 C 20.011719 28.535156 19.992188 28.527344 19.96875 28.523438 " fill-opacity="1" fill-rule="nonzero"/></g><g clip-path="url(#18eea136f4)"><path fill="#6e6e95" d="M 57.214844 31.101562 L 56.75 31.101562 C 56.640625 29.445312 56.015625 26.144531 52.96875 23.765625 C 52.734375 23.582031 52.492188 23.410156 52.25 23.253906 C 51.4375 22.726562 50.539062 22.304688 49.578125 22 L 49.578125 20.691406 C 51.058594 20.097656 52.265625 18.953125 52.828125 18.039062 C 53.164062 17.5 53.460938 16.683594 53.683594 15.675781 C 53.960938 14.421875 54.054688 13.074219 53.960938 11.671875 C 53.824219 9.59375 53.390625 7.980469 52.636719 6.742188 C 51.550781 4.953125 49.839844 4.046875 47.550781 4.046875 C 45.261719 4.046875 43.550781 4.953125 42.464844 6.742188 C 41.710938 7.980469 41.28125 9.59375 41.140625 11.671875 C 41.050781 13.074219 41.144531 14.421875 41.421875 15.675781 C 41.644531 16.683594 41.941406 17.5 42.273438 18.039062 C 42.808594 18.90625 43.964844 20.085938 45.523438 20.695312 L 45.527344 22 C 44.5625 22.308594 43.664062 22.726562 42.855469 23.253906 C 42.601562 23.417969 42.359375 23.589844 42.132812 23.765625 C 40.199219 25.277344 39.242188 27.164062 38.773438 28.761719 C 38.304688 27.164062 37.347656 25.277344 35.410156 23.765625 C 35.175781 23.582031 34.933594 23.410156 34.6875 23.253906 C 33.878906 22.726562 32.980469 22.304688 32.019531 22 L 32.019531 20.691406 C 33.5 20.097656 34.707031 18.953125 35.269531 18.039062 C 35.605469 17.5 35.898438 16.683594 36.121094 15.675781 C 36.398438 14.421875 36.496094 13.074219 36.402344 11.671875 C 36.265625 9.59375 35.832031 7.980469 35.078125 6.742188 C 33.992188 4.953125 32.28125 4.046875 29.992188 4.046875 C 27.703125 4.046875 25.992188 4.953125 24.90625 6.742188 C 24.152344 7.980469 23.71875 9.59375 23.582031 11.671875 C 23.492188 13.074219 23.585938 14.421875 23.863281 15.675781 C 24.085938 16.683594 24.378906 17.5 24.714844 18.039062 C 25.25 18.90625 26.40625 20.085938 27.964844 20.695312 L 27.964844 22 C 27 22.308594 26.105469 22.726562 25.292969 23.253906 C 25.042969 23.417969 24.800781 23.589844 24.574219 23.765625 C 22.636719 25.277344 21.679688 27.164062 21.210938 28.761719 C 20.746094 27.164062 19.789062 25.277344 17.851562 23.765625 C 17.617188 23.582031 17.375 23.410156 17.128906 23.253906 C 16.320312 22.726562 15.421875 22.304688 14.457031 22 L 14.460938 20.691406 C 15.941406 20.097656 17.144531 18.953125 17.710938 18.039062 C 18.046875 17.5 18.339844 16.683594 18.5625 15.675781 C 18.839844 14.421875 18.933594 13.074219 18.84375 11.671875 C 18.707031 9.59375 18.273438 7.980469 17.519531 6.742188 C 16.433594 4.953125 14.722656 4.046875 12.433594 4.046875 C 10.144531 4.046875 8.433594 4.953125 7.347656 6.742188 C 6.59375 7.980469 6.160156 9.59375 6.023438 11.671875 C 5.929688 13.074219 6.023438 14.421875 6.300781 15.675781 C 6.523438 16.683594 6.820312 17.5 7.15625 18.039062 C 7.691406 18.90625 8.84375 20.085938 10.40625 20.695312 L 10.40625 22 C 9.441406 22.308594 8.542969 22.726562 7.734375 23.253906 C 7.480469 23.417969 7.238281 23.589844 7.015625 23.765625 C 3.972656 26.140625 3.347656 29.433594 3.238281 31.101562 L 2.777344 31.101562 C 2.535156 31.101562 2.339844 31.300781 2.339844 31.542969 L 2.339844 47.507812 C 2.339844 47.75 2.535156 47.945312 2.777344 47.945312 L 57.214844 47.945312 C 57.457031 47.945312 57.652344 47.75 57.652344 47.507812 L 57.652344 31.542969 C 57.652344 31.300781 57.457031 31.101562 57.214844 31.101562 Z M 43.019531 17.578125 C 42.738281 17.121094 42.480469 16.398438 42.277344 15.488281 C 42.019531 14.3125 41.933594 13.050781 42.019531 11.726562 C 42.320312 7.152344 44.128906 4.925781 47.550781 4.925781 C 50.972656 4.925781 52.785156 7.152344 53.085938 11.726562 C 53.171875 13.050781 53.085938 14.3125 52.824219 15.488281 C 52.625 16.398438 52.367188 17.121094 52.082031 17.578125 C 51.578125 18.394531 50.398438 19.492188 48.996094 19.972656 C 48.511719 20.140625 48.023438 20.226562 47.550781 20.226562 C 47.136719 20.226562 46.59375 20.128906 46.101562 19.96875 C 44.710938 19.507812 43.550781 18.4375 43.019531 17.578125 Z M 46.085938 22.75 C 46.273438 22.695312 46.402344 22.523438 46.402344 22.328125 L 46.402344 20.960938 C 46.808594 21.054688 47.207031 21.105469 47.550781 21.105469 C 47.929688 21.105469 48.316406 21.058594 48.699219 20.96875 L 48.699219 22.328125 C 48.699219 22.523438 48.828125 22.695312 49.019531 22.75 C 49.894531 23 50.714844 23.351562 51.460938 23.796875 L 49.375 28.734375 L 48.894531 26.789062 L 49.324219 24.714844 C 49.351562 24.585938 49.316406 24.453125 49.234375 24.347656 C 49.148438 24.246094 49.023438 24.1875 48.894531 24.1875 L 46.207031 24.1875 C 46.078125 24.1875 45.953125 24.246094 45.867188 24.347656 C 45.785156 24.453125 45.753906 24.585938 45.777344 24.714844 L 46.199219 26.753906 L 45.726562 28.730469 L 43.644531 23.796875 C 44.386719 23.351562 45.207031 23 46.085938 22.75 Z M 46.984375 27.238281 L 48.101562 27.238281 L 48.804688 30.085938 L 48.375 31.101562 L 46.726562 31.101562 L 46.300781 30.09375 Z M 46.746094 25.066406 L 48.355469 25.066406 L 48.089844 26.359375 L 47.015625 26.359375 Z M 25.460938 17.578125 C 25.175781 17.121094 24.921875 16.398438 24.71875 15.488281 C 24.460938 14.3125 24.371094 13.050781 24.457031 11.726562 C 24.761719 7.152344 26.570312 4.925781 29.992188 4.925781 C 33.414062 4.925781 35.222656 7.152344 35.527344 11.726562 C 35.613281 13.050781 35.523438 14.3125 35.265625 15.488281 C 35.0625 16.398438 34.808594 17.121094 34.523438 17.578125 C 34.019531 18.394531 32.839844 19.492188 31.4375 19.972656 C 30.949219 20.140625 30.464844 20.226562 29.992188 20.226562 C 29.578125 20.226562 29.035156 20.128906 28.542969 19.96875 C 27.148438 19.507812 25.992188 18.4375 25.460938 17.578125 Z M 28.527344 22.75 C 28.714844 22.695312 28.84375 22.523438 28.84375 22.328125 L 28.84375 20.960938 C 29.25 21.054688 29.648438 21.105469 29.992188 21.105469 C 30.371094 21.105469 30.753906 21.058594 31.140625 20.96875 L 31.140625 22.328125 C 31.140625 22.523438 31.269531 22.695312 31.457031 22.75 C 32.335938 23 33.152344 23.351562 33.898438 23.796875 L 31.816406 28.734375 L 31.335938 26.789062 L 31.761719 24.714844 C 31.789062 24.585938 31.757812 24.453125 31.671875 24.347656 C 31.589844 24.246094 31.464844 24.1875 31.332031 24.1875 L 28.648438 24.1875 C 28.515625 24.1875 28.390625 24.246094 28.308594 24.347656 C 28.226562 24.453125 28.191406 24.585938 28.21875 24.714844 L 28.640625 26.753906 L 28.164062 28.730469 L 26.082031 23.796875 C 26.828125 23.351562 27.648438 23 28.527344 22.75 Z M 29.425781 27.238281 L 30.542969 27.238281 L 31.246094 30.085938 L 30.816406 31.101562 L 29.167969 31.101562 L 28.742188 30.09375 Z M 29.1875 25.066406 L 30.796875 25.066406 L 30.527344 26.359375 L 29.453125 26.359375 Z M 7.902344 17.578125 C 7.617188 17.121094 7.363281 16.398438 7.160156 15.488281 C 6.898438 14.3125 6.8125 13.050781 6.898438 11.726562 C 7.199219 7.152344 9.011719 4.925781 12.433594 4.925781 C 15.855469 4.925781 17.664062 7.152344 17.964844 11.726562 C 18.054688 13.050781 17.964844 14.3125 17.707031 15.488281 C 17.503906 16.398438 17.246094 17.121094 16.964844 17.578125 C 16.460938 18.394531 15.28125 19.492188 13.878906 19.972656 C 13.390625 20.140625 12.90625 20.226562 12.433594 20.226562 C 12.019531 20.226562 11.476562 20.128906 10.984375 19.96875 C 9.589844 19.507812 8.433594 18.4375 7.902344 17.578125 Z M 10.964844 22.75 C 11.15625 22.695312 11.285156 22.523438 11.285156 22.328125 L 11.285156 20.960938 C 11.6875 21.054688 12.089844 21.105469 12.433594 21.105469 C 12.8125 21.105469 13.195312 21.058594 13.582031 20.96875 L 13.582031 22.328125 C 13.582031 22.523438 13.710938 22.695312 13.898438 22.75 C 14.773438 23 15.59375 23.351562 16.339844 23.796875 L 14.253906 28.734375 L 13.777344 26.789062 L 14.203125 24.714844 C 14.230469 24.585938 14.195312 24.453125 14.113281 24.347656 C 14.03125 24.246094 13.90625 24.1875 13.773438 24.1875 L 11.089844 24.1875 C 10.957031 24.1875 10.832031 24.246094 10.75 24.347656 C 10.664062 24.453125 10.632812 24.585938 10.660156 24.714844 L 11.078125 26.753906 L 10.605469 28.730469 L 8.523438 23.796875 C 9.269531 23.351562 10.089844 23 10.964844 22.75 Z M 11.867188 27.238281 L 12.984375 27.238281 L 13.683594 30.085938 L 13.253906 31.101562 L 11.609375 31.101562 L 11.183594 30.09375 Z M 11.628906 25.066406 L 13.234375 25.066406 L 12.96875 26.359375 L 11.894531 26.359375 Z M 56.773438 47.070312 L 3.21875 47.070312 L 3.21875 31.980469 L 56.773438 31.980469 Z M 56.773438 47.070312 " fill-opacity="1" fill-rule="nonzero"/></g><path fill="#6e6e95" d="M 9.574219 44.84375 L 50.40625 44.84375 C 50.523438 44.84375 50.636719 44.796875 50.71875 44.714844 C 50.800781 44.632812 50.847656 44.519531 50.847656 44.402344 L 50.839844 34.777344 C 50.839844 34.535156 50.644531 34.339844 50.402344 34.339844 L 9.574219 34.339844 C 9.332031 34.339844 9.136719 34.535156 9.136719 34.777344 L 9.136719 44.402344 C 9.136719 44.644531 9.332031 44.84375 9.574219 44.84375 Z M 46.011719 37.75 C 46.011719 37.507812 46.207031 37.3125 46.453125 37.3125 L 48.644531 37.3125 C 48.890625 37.3125 49.085938 37.507812 49.085938 37.75 C 49.085938 37.992188 48.890625 38.191406 48.644531 38.191406 L 46.890625 38.191406 L 46.890625 39.085938 L 48.644531 39.085938 C 48.890625 39.085938 49.085938 39.28125 49.085938 39.523438 C 49.085938 39.769531 48.890625 39.964844 48.644531 39.964844 L 46.890625 39.964844 L 46.890625 40.859375 L 48.644531 40.859375 C 48.890625 40.859375 49.085938 41.054688 49.085938 41.296875 C 49.085938 41.542969 48.890625 41.738281 48.644531 41.738281 L 46.453125 41.738281 C 46.207031 41.738281 46.011719 41.542969 46.011719 41.296875 Z M 42.0625 37.75 C 42.0625 37.507812 42.257812 37.3125 42.5 37.3125 L 44.695312 37.3125 C 44.9375 37.3125 45.132812 37.507812 45.132812 37.75 C 45.132812 37.992188 44.9375 38.191406 44.695312 38.191406 L 42.9375 38.191406 L 42.9375 39.085938 L 44.695312 39.085938 C 44.9375 39.085938 45.132812 39.28125 45.132812 39.523438 C 45.132812 39.769531 44.9375 39.964844 44.695312 39.964844 L 42.9375 39.964844 L 42.9375 40.859375 L 44.695312 40.859375 C 44.9375 40.859375 45.132812 41.054688 45.132812 41.296875 C 45.132812 41.542969 44.9375 41.738281 44.695312 41.738281 L 42.5 41.738281 C 42.257812 41.738281 42.0625 41.542969 42.0625 41.296875 Z M 38.109375 37.3125 L 40.746094 37.3125 C 40.988281 37.3125 41.183594 37.507812 41.183594 37.75 C 41.183594 37.992188 40.988281 38.191406 40.746094 38.191406 L 39.867188 38.191406 L 39.867188 41.296875 C 39.867188 41.542969 39.667969 41.738281 39.425781 41.738281 C 39.183594 41.738281 38.988281 41.542969 38.988281 41.296875 L 38.988281 38.191406 L 38.109375 38.191406 C 37.867188 38.191406 37.671875 37.992188 37.671875 37.75 C 37.671875 37.507812 37.867188 37.3125 38.109375 37.3125 Z M 33.71875 37.3125 L 36.355469 37.3125 C 36.597656 37.3125 36.792969 37.507812 36.792969 37.75 C 36.792969 37.992188 36.597656 38.191406 36.355469 38.191406 L 35.476562 38.191406 L 35.476562 41.296875 C 35.476562 41.542969 35.28125 41.738281 35.039062 41.738281 C 34.796875 41.738281 34.597656 41.542969 34.597656 41.296875 L 34.597656 38.191406 L 33.71875 38.191406 C 33.476562 38.191406 33.28125 37.992188 33.28125 37.75 C 33.28125 37.507812 33.476562 37.3125 33.71875 37.3125 Z M 31.527344 37.75 C 31.527344 37.507812 31.722656 37.3125 31.964844 37.3125 C 32.207031 37.3125 32.402344 37.507812 32.402344 37.75 L 32.402344 41.296875 C 32.402344 41.542969 32.207031 41.738281 31.964844 41.738281 C 31.722656 41.738281 31.527344 41.542969 31.527344 41.296875 Z M 26.257812 37.75 C 26.257812 37.5625 26.375 37.398438 26.550781 37.335938 C 26.730469 37.273438 26.925781 37.332031 27.039062 37.476562 L 28.453125 39.261719 L 29.863281 37.476562 C 29.980469 37.332031 30.175781 37.273438 30.351562 37.335938 C 30.527344 37.398438 30.648438 37.5625 30.648438 37.75 L 30.648438 41.296875 C 30.648438 41.542969 30.449219 41.738281 30.207031 41.738281 C 29.964844 41.738281 29.769531 41.542969 29.769531 41.296875 L 29.769531 39.011719 L 28.796875 40.242188 C 28.714844 40.347656 28.585938 40.40625 28.453125 40.40625 C 28.320312 40.40625 28.191406 40.347656 28.109375 40.242188 L 27.136719 39.011719 L 27.136719 41.296875 C 27.136719 41.542969 26.9375 41.738281 26.695312 41.738281 C 26.453125 41.738281 26.257812 41.542969 26.257812 41.296875 Z M 20.988281 37.75 C 20.988281 37.5625 21.109375 37.398438 21.285156 37.335938 C 21.460938 37.273438 21.65625 37.332031 21.773438 37.476562 L 23.183594 39.261719 L 24.597656 37.476562 C 24.710938 37.332031 24.910156 37.273438 25.085938 37.335938 C 25.261719 37.398438 25.378906 37.5625 25.378906 37.75 L 25.378906 41.296875 C 25.378906 41.542969 25.183594 41.738281 24.941406 41.738281 C 24.699219 41.738281 24.5 41.542969 24.5 41.296875 L 24.5 39.011719 L 23.527344 40.242188 C 23.445312 40.347656 23.320312 40.40625 23.183594 40.40625 C 23.050781 40.40625 22.921875 40.347656 22.839844 40.242188 L 21.867188 39.011719 L 21.867188 41.296875 C 21.867188 41.542969 21.671875 41.738281 21.429688 41.738281 C 21.1875 41.738281 20.988281 41.542969 20.988281 41.296875 Z M 17.917969 37.3125 C 19.128906 37.3125 20.113281 38.304688 20.113281 39.523438 C 20.113281 40.746094 19.128906 41.738281 17.917969 41.738281 C 16.707031 41.738281 15.722656 40.746094 15.722656 39.523438 C 15.722656 38.304688 16.707031 37.3125 17.917969 37.3125 Z M 13.085938 37.3125 C 13.71875 37.3125 14.320312 37.585938 14.734375 38.0625 C 14.894531 38.246094 14.875 38.523438 14.695312 38.683594 C 14.511719 38.84375 14.234375 38.824219 14.074219 38.640625 C 13.824219 38.355469 13.464844 38.191406 13.085938 38.191406 C 12.363281 38.191406 11.769531 38.789062 11.769531 39.523438 C 11.769531 40.261719 12.363281 40.859375 13.085938 40.859375 C 13.464844 40.859375 13.824219 40.695312 14.074219 40.410156 C 14.234375 40.226562 14.511719 40.207031 14.695312 40.367188 C 14.875 40.527344 14.894531 40.804688 14.734375 40.988281 C 14.320312 41.464844 13.71875 41.738281 13.085938 41.738281 C 11.878906 41.738281 10.894531 40.746094 10.894531 39.523438 C 10.894531 38.304688 11.878906 37.3125 13.085938 37.3125 Z M 13.085938 37.3125 " fill-opacity="1" fill-rule="nonzero"/><path fill="#6e6e95" d="M 17.917969 40.859375 C 18.644531 40.859375 19.234375 40.261719 19.234375 39.523438 C 19.234375 38.789062 18.644531 38.191406 17.917969 38.191406 C 17.191406 38.191406 16.601562 38.789062 16.601562 39.523438 C 16.601562 40.261719 17.191406 40.859375 17.917969 40.859375 Z M 17.917969 40.859375 " fill-opacity="1" fill-rule="nonzero"/></svg>